<svg width="32" height="32" viewBox="0 0 32 32" fill="none" xmlns="http://www.w3.org/2000/svg">
<path fill-rule="evenodd" clip-rule="evenodd" d="M16.0002 17.3334C16.7366 17.3334 17.3335 17.9303 17.3335 18.6667V21.3334C17.3335 22.0697 16.7366 22.6667 16.0002 22.6667C15.2638 22.6667 14.6669 22.0697 14.6669 21.3334V18.6667C14.6669 17.9303 15.2638 17.3334 16.0002 17.3334Z" fill="#FFDD2D"/>
<path fill-rule="evenodd" clip-rule="evenodd" d="M25.0276 11.3668C24.2564 10.9738 23.3873 10.8699 22.5335 10.8295V9.33335C22.5335 5.72509 19.6085 2.80002 16.0002 2.80002C12.392 2.80002 9.46688 5.72509 9.46688 9.33335V10.8295C8.61317 10.8699 7.74406 10.9738 6.9728 11.3668C5.99435 11.8653 5.19885 12.6608 4.70031 13.6393C4.38177 14.2645 4.25259 14.9339 4.19203 15.6751C4.13352 16.3912 4.13353 17.2723 4.13355 18.3497V21.6503C4.13353 22.7277 4.13352 23.6088 4.19203 24.3249C4.25259 25.0661 4.38177 25.7356 4.70031 26.3608C5.19885 27.3392 5.99435 28.1347 6.9728 28.6333C7.59798 28.9518 8.26742 29.081 9.00864 29.1415C9.72474 29.2 10.6059 29.2 11.6833 29.2H20.3172C21.3946 29.2 22.2757 29.2 22.9918 29.1415C23.733 29.081 24.4024 28.9518 25.0276 28.6333C26.0061 28.1347 26.8016 27.3392 27.3001 26.3608C27.6187 25.7356 27.7478 25.0661 27.8084 24.3249C27.8669 23.6088 27.8669 22.7277 27.8669 21.6503V18.3497C27.8669 17.2723 27.8669 16.3912 27.8084 15.6751C27.7478 14.9339 27.6187 14.2645 27.3001 13.6393C26.8016 12.6608 26.0061 11.8653 25.0276 11.3668ZM9.20407 13.2505C8.61127 13.299 8.29284 13.3878 8.06237 13.5052C7.53552 13.7736 7.10717 14.202 6.83873 14.7288C6.7213 14.9593 6.63249 15.2777 6.58406 15.8705C6.53448 16.4774 6.53355 17.2601 6.53355 18.4V21.6C6.53355 22.7399 6.53448 23.5227 6.58406 24.1295C6.63249 24.7223 6.7213 25.0407 6.83873 25.2712C7.10717 25.798 7.53552 26.2264 8.06237 26.4948C8.29284 26.6123 8.61127 26.7011 9.20407 26.7495C9.81088 26.7991 10.5936 26.8 11.7335 26.8H20.2669C21.4068 26.8 22.1895 26.7991 22.7964 26.7495C23.3892 26.7011 23.7076 26.6123 23.9381 26.4948C24.4649 26.2264 24.8933 25.798 25.1617 25.2712C25.2791 25.0407 25.3679 24.7223 25.4164 24.1295C25.4659 23.5227 25.4669 22.7399 25.4669 21.6V18.4C25.4669 17.2601 25.4659 16.4774 25.4164 15.8705C25.3679 15.2777 25.2791 14.9593 25.1617 14.7288C24.8933 14.202 24.4649 13.7736 23.9381 13.5052C23.7076 13.3878 23.3892 13.299 22.7964 13.2505C22.1895 13.201 21.4068 13.2 20.2669 13.2H11.7335C10.5936 13.2 9.81088 13.201 9.20407 13.2505ZM20.1335 9.33335C20.1335 7.05058 18.283 5.20002 16.0002 5.20002C13.7174 5.20002 11.8669 7.05058 11.8669 9.33335V10.8H20.1335V9.33335Z" fill="#FFDD2D"/>
<path fill-rule="evenodd" clip-rule="evenodd" d="M17.3335 18.6667C17.3335 17.9303 16.7366 17.3334 16.0002 17.3334C15.2638 17.3334 14.6669 17.9303 14.6669 18.6667V21.3334C14.6669 22.0697 15.2638 22.6667 16.0002 22.6667C16.7366 22.6667 17.3335 22.0697 17.3335 21.3334V18.6667Z" fill="#FFDD2D"/>
</svg>
