<svg width="150" height="31" viewBox="0 0 150 31" fill="none" xmlns="http://www.w3.org/2000/svg">
<g clip-path="url(#clip0_1_379)">
<path fill-rule="evenodd" clip-rule="evenodd" d="M24.253 10.1379V10.2145C24.2914 10.1762 24.3297 10.0996 24.3297 10.023C24.3297 9.94633 24.3297 9.90803 24.253 9.83144C24.2147 9.75474 24.1381 9.71645 24.0231 9.71645H21.6476C21.571 9.71645 21.4944 9.75474 21.4944 9.79315L10.3832 27.8391H10.2299L2.87367 9.83144C2.83526 9.79314 2.83526 9.79315 2.87367 9.75475C2.87367 9.71645 2.83527 9.71645 2.72038 9.71645H0.34487C0.268279 9.71645 0.191583 9.75474 0.114992 9.83144C0.0383997 9.90803 0 9.94633 0 10.023C0 10.0996 0.000104178 10.1762 0.0384001 10.2145V10.1379L8.3909 30.6361C8.4292 30.6744 8.50579 30.7127 8.58249 30.7127H11.5326C11.6093 30.7127 11.6859 30.6744 11.7242 30.6361L24.253 10.1379ZM41.8778 30.6744C42.0693 30.6744 42.1461 30.5595 42.184 30.3679L42.4144 28.2606C42.4523 28.069 42.3376 27.9541 42.184 27.9541H26.8584L27.5481 21.2491H42.3755C42.5669 21.2491 42.6437 21.1341 42.6827 20.9042L42.8742 18.797C42.912 18.5671 42.8352 18.4521 42.6438 18.4521H27.8163L28.4292 12.3984H43.7548C43.9462 12.3984 44.023 12.2835 44.062 12.0536L44.2534 9.94633C44.2913 9.71645 44.2145 9.60156 44.023 9.60156H26.322C26.1304 9.60156 26.0154 9.71645 25.9771 9.94633L23.9465 30.2912C23.9082 30.4828 24.0231 30.5978 24.2147 30.5978H41.8778V30.6744ZM66.5135 30.6744C66.6671 30.6744 66.7439 30.5595 66.7817 30.3679L67.3951 24.3908C67.4719 23.7777 67.4719 23.2031 67.4719 22.6283C67.433 22.092 67.3562 21.5939 67.2036 21.1725C66.8207 20.2145 66.2841 19.5632 65.5171 19.2184C66.0537 18.8736 66.4756 18.3755 66.7817 17.7242C67.089 17.0345 67.2804 16.2299 67.3951 15.2721C67.7781 11.5556 65.5939 9.67815 60.8816 9.67815H46.1693C45.9768 9.67815 45.8621 9.79315 45.8242 10.023L43.7937 30.3679C43.7547 30.5595 43.8705 30.6744 44.062 30.6744H46.1693C46.3608 30.6744 46.4754 30.5595 46.5133 30.3679L47.4328 21.2491H60.8816C61.7244 21.2491 62.4524 21.3257 63.0269 21.4789C63.6023 21.6322 64.0232 21.9004 64.3293 22.2836C64.5219 22.59 64.6744 23.0115 64.7512 23.5096C64.828 24.0077 64.828 24.6207 64.7512 25.3487C64.7133 25.5786 64.6744 25.8851 64.6365 26.2682C64.5597 26.6514 64.4829 27.1495 64.4061 27.7242C64.2147 28.9119 64.1 29.7549 64.0621 30.3295C64.0232 30.5211 64.1379 30.6361 64.3293 30.6361H66.5135V30.6744ZM64.6744 15.4252C64.4829 17.3793 63.0658 18.3755 60.4219 18.3755H47.7011L48.2766 12.59H61.1499C63.717 12.59 64.8659 13.5479 64.6744 15.4252ZM93.8698 24.6591C94.1002 22.2453 93.2953 20.5594 91.4184 19.6015C90.6904 19.2567 89.8087 19.0268 88.6977 18.8353C87.6246 18.6437 86.3221 18.5671 84.8282 18.5671H84.1001C83.794 18.5671 83.4489 18.5671 83.027 18.6054H82.6062C82.5294 18.6054 82.4526 18.6054 82.3379 18.6054C82.2611 18.6054 82.1843 18.6054 82.1075 18.6054C81.4562 18.6437 80.9197 18.6437 80.4599 18.6437H79.4257C77.3184 18.6437 75.7855 18.4138 74.8281 18.0306C73.6782 17.5326 73.1416 16.6896 73.2573 15.4635C73.372 14.2375 73.755 13.4329 74.4451 13.0497C74.7134 12.8583 75.0964 12.7433 75.5561 12.6284C76.0159 12.5134 76.5903 12.4751 77.2805 12.4751H87.4331C88.9281 12.4751 90.0391 12.6667 90.7672 13.0497C91.2648 13.2797 91.571 13.6628 91.7625 14.1226C91.955 14.5823 91.9929 15.1571 91.955 15.8084C91.955 16 92.0307 16.0766 92.1843 16.0766H94.3295C94.4831 16.0766 94.56 16 94.5978 15.8084C95.0197 11.747 92.8356 9.75475 88.1233 9.75475H77.6635C73.372 9.75475 70.9964 11.6705 70.6134 15.5019C70.383 17.8774 71.15 19.5249 72.9501 20.4061C74.2915 21.0575 76.361 21.4024 79.1953 21.4024H80.0769C80.422 21.4024 80.8429 21.4024 81.3026 21.3639H81.7245C81.8013 21.3639 81.8781 21.3639 81.9549 21.3639C82.0307 21.3639 82.0696 21.3639 82.1075 21.3639H82.7208H83.2574C83.6404 21.3257 83.9854 21.3257 84.2916 21.3257H85.0964C86.1685 21.3257 87.088 21.3641 87.855 21.4406C88.6599 21.5172 89.2722 21.6705 89.7319 21.9004C90.8819 22.3985 91.4184 23.318 91.2648 24.6591C91.188 25.3104 91.0733 25.8468 90.8429 26.3065C90.6136 26.7663 90.2685 27.1495 89.8087 27.4176C89.4636 27.6092 89.0039 27.7625 88.5063 27.8774C87.9697 27.9924 87.3563 28.0307 86.5904 28.0307H77.089C76.3221 28.0307 75.6329 27.9924 75.0964 27.8774C74.5219 27.7625 74.1 27.6092 73.755 27.4559C73.2573 27.2261 72.9501 26.843 72.7586 26.3831C72.5672 25.9234 72.5293 25.3487 72.5672 24.6974C72.6061 24.5058 72.4904 24.3908 72.2989 24.3908H70.1916C70.0001 24.3908 69.9233 24.5058 69.8854 24.6974C69.6939 26.728 70.1915 28.2606 71.4562 29.3334C72.5293 30.2912 74.0622 30.751 76.1684 30.751H86.4368C87.6246 30.751 88.6209 30.6744 89.5026 30.4828C90.3832 30.2912 91.1112 29.9847 91.6478 29.5633C92.8745 28.4905 93.6404 26.8813 93.8698 24.6591ZM119.963 10.1762C119.963 10.1762 119.963 10.1762 120 10.1379C120 10.0996 120.039 10.0613 120.039 10.023C120.077 9.79315 119.963 9.67815 119.732 9.67815H116.399L102.644 18.1456H99.6552L100.46 10.023C100.499 9.79315 100.383 9.67815 100.192 9.67815H98.0844C97.893 9.67815 97.7783 9.79315 97.7404 10.023L95.7088 30.3679C95.671 30.5595 95.7856 30.6744 95.9771 30.6744H98.0844C98.2759 30.6744 98.3916 30.5595 98.4295 30.3679L99.4258 20.636H102.491L114.061 30.6361H117.548C117.739 30.6361 117.855 30.5211 117.893 30.3295C117.893 30.2529 117.932 30.2146 117.932 30.2146L105.173 19.2567L119.963 10.1762ZM121.648 30.6744C121.802 30.6744 121.878 30.5595 121.916 30.3679L123.947 10.023C123.986 9.79315 123.909 9.67815 123.755 9.67815H122.147C121.954 9.67815 121.878 9.79315 121.839 10.023L119.809 30.3679C119.771 30.5595 119.886 30.6744 120.039 30.6744H121.648ZM149.043 24.6591C149.273 22.2453 148.468 20.5594 146.591 19.6015C145.863 19.2567 144.981 19.0268 143.87 18.8353C142.798 18.6437 141.495 18.5671 140.001 18.5671H139.273C138.966 18.5671 138.621 18.5671 138.199 18.6054H137.779C137.702 18.6054 137.587 18.6054 137.51 18.6054C137.433 18.6054 137.357 18.6054 137.28 18.6054C136.629 18.6437 136.092 18.6437 135.632 18.6437H134.598C132.491 18.6437 130.959 18.4138 130 18.0306C128.852 17.5326 128.315 16.6896 128.43 15.4635C128.544 14.2375 128.927 13.4329 129.618 13.0497C129.886 12.8583 130.269 12.7433 130.729 12.6284C131.188 12.5134 131.763 12.4751 132.453 12.4751H142.606C144.101 12.4751 145.212 12.6667 145.94 13.0497C146.437 13.2797 146.744 13.6628 146.936 14.1226C147.127 14.5823 147.165 15.1571 147.127 15.8084C147.127 16 147.204 16.0766 147.357 16.0766H149.503C149.656 16.0766 149.732 16 149.771 15.8084C150.192 11.747 148.008 9.75475 143.296 9.75475H132.836C128.544 9.75475 126.169 11.6705 125.786 15.5019C125.556 17.8774 126.322 19.5249 128.124 20.4061C129.464 21.0575 131.533 21.4024 134.369 21.4024H135.249C135.594 21.4024 136.016 21.4024 136.476 21.3639H136.897C136.974 21.3639 137.051 21.3639 137.127 21.3639C137.204 21.3639 137.242 21.3639 137.28 21.3639H137.893H138.43C138.813 21.3257 139.158 21.3257 139.464 21.3257H140.269C141.342 21.3257 142.261 21.3641 143.027 21.4406C143.832 21.5172 144.446 21.6705 144.905 21.9004C146.054 22.3985 146.591 23.318 146.437 24.6591C146.36 25.3104 146.246 25.8468 146.016 26.3065C145.786 26.7663 145.441 27.1495 144.981 27.4176C144.637 27.6092 144.177 27.7625 143.679 27.8774C143.142 27.9924 142.53 28.0307 141.763 28.0307H132.261C131.494 28.0307 130.805 27.9924 130.269 27.8774C129.694 27.7625 129.272 27.6092 128.927 27.4559C128.43 27.2261 128.124 26.843 127.932 26.3831C127.74 25.9234 127.702 25.3487 127.74 24.6974C127.778 24.5058 127.664 24.3908 127.472 24.3908H125.365C125.172 24.3908 125.097 24.5058 125.058 24.6974C124.866 26.728 125.365 28.2606 126.629 29.3334C127.702 30.2912 129.235 30.751 131.342 30.751H141.61C142.798 30.751 143.793 30.6744 144.675 30.4828C145.557 30.2912 146.285 29.9847 146.82 29.5633C148.047 28.4905 148.813 26.8813 149.043 24.6591Z" fill="black"/>
<path fill-rule="evenodd" clip-rule="evenodd" d="M124.253 0.750732C125.671 0.750732 126.782 1.90016 126.782 3.27952C126.782 4.6971 125.634 5.80821 124.253 5.80821C122.836 5.80821 121.725 4.65881 121.725 3.27952C121.725 1.90016 122.836 0.750732 124.253 0.750732Z" fill="black"/>
</g>
<defs>
<clipPath id="clip0_1_379">
<rect width="150" height="30" fill="white" transform="translate(0 0.750732)"/>
</clipPath>
</defs>
</svg>
