<svg width="184" height="38" viewBox="0 0 184 38" fill="none" xmlns="http://www.w3.org/2000/svg">
<g clip-path="url(#clip0_1_418)">
<path fill-rule="evenodd" clip-rule="evenodd" d="M56.4575 0.250732H5.77887C2.58454 0.250732 -0.0355269 2.86544 0.000364408 6.05325V25.3591C0.000364408 28.5469 2.58454 31.1616 5.81476 31.1616H29.7902L40.7729 37.2507L38.2964 31.1616H56.4575C59.6518 31.1616 62.2719 28.5827 62.2719 25.3591V6.05325C62.236 2.82963 59.6518 0.250732 56.4575 0.250732ZM4.70213 4.72798C3.9843 4.7638 3.44593 5.05034 3.08702 5.51598C2.72811 5.98161 2.62043 6.5547 2.69222 7.23524C4.19965 16.7628 5.59941 23.1742 6.8915 26.5053C7.39398 27.7231 7.96824 28.2962 8.68607 28.2604C9.76281 28.1887 11.019 26.7202 12.5264 23.8548C13.3161 22.243 14.5364 19.8073 16.1874 16.5479C17.5512 21.3475 19.4535 24.9651 21.8223 27.3649C22.4684 28.0455 23.1862 28.3678 23.8322 28.2962C24.4065 28.2604 24.8731 27.938 25.1961 27.3649C25.4473 26.8993 25.555 26.3262 25.5191 25.6815C25.3756 23.3533 25.5909 20.1297 26.2369 16.0106C26.883 11.7483 27.7085 8.66796 28.7134 6.84124C28.9288 6.44724 29.0006 6.08907 28.9647 5.62343C28.9288 5.05034 28.6417 4.54889 28.1751 4.19071C27.7085 3.83253 27.1701 3.61763 26.56 3.68926C25.8062 3.72508 25.2679 4.08326 24.8731 4.79962C23.2939 7.66506 22.1812 12.3214 21.4993 18.7686C20.5302 16.333 19.7047 13.4675 19.0946 10.1007C18.8074 8.59633 18.1255 7.87997 17.0129 7.9516C16.2591 7.98742 15.6131 8.52469 15.1106 9.49178L9.54746 20.0939C8.61429 16.4046 7.7529 11.9274 6.96329 6.59052C6.74794 5.22943 5.99422 4.62053 4.70213 4.72798ZM53.7656 6.5547C55.5602 6.9487 56.9241 7.91579 57.8213 9.49178C58.6468 10.8528 59.0416 12.5005 59.0416 14.5063C59.0416 17.121 58.3956 19.5208 57.0676 21.7057C55.5243 24.2488 53.5503 25.5024 51.0738 25.5024C50.6431 25.5024 50.1765 25.4666 49.7099 25.3591C47.9153 24.9651 46.5514 23.998 45.6542 22.422C44.8287 21.0251 44.4339 19.3417 44.4339 17.4075C44.4339 14.7928 45.0799 12.393 46.4079 10.244C47.9512 7.70087 49.9611 6.44725 52.4017 6.44725C52.7965 6.41143 53.2631 6.44725 53.7656 6.5547ZM52.6889 20.273C53.622 19.4492 54.2681 18.1955 54.627 16.5121C54.7347 15.939 54.8065 15.2943 54.8065 14.6495C54.8065 13.8974 54.6629 13.1094 54.3399 12.3214C53.9451 11.3185 53.4426 10.7812 52.8324 10.6737C51.8993 10.4947 51.0379 10.9961 50.1765 12.2497C49.4945 13.2168 49.0638 14.2197 48.8126 15.2584C48.669 15.8315 48.6331 16.4763 48.6331 17.121C48.6331 17.8732 48.7767 18.6612 49.0997 19.4492C49.4945 20.4521 49.997 20.9893 50.6072 21.0968C51.2532 21.2401 51.9352 20.9535 52.6889 20.273ZM41.8497 9.49178C40.9165 7.87997 39.5526 6.91288 37.794 6.5547C37.3274 6.44725 36.8608 6.41143 36.4301 6.41143C33.9895 6.41143 32.0154 7.66506 30.4362 10.2081C29.1083 12.3572 28.4622 14.757 28.4622 17.3717C28.4622 19.3417 28.857 20.9893 29.6825 22.3862C30.6157 23.998 31.9437 24.9651 33.7382 25.3233C34.2048 25.4308 34.6714 25.4666 35.1021 25.4666C37.5786 25.4666 39.5526 24.2129 41.096 21.6699C42.4239 19.485 43.07 17.0852 43.07 14.4704C43.07 12.5005 42.6752 10.8528 41.8497 9.49178ZM38.6553 16.5121C38.2964 18.1955 37.6504 19.4492 36.7172 20.273C35.9635 20.9177 35.2816 21.2042 34.6714 21.0968C34.0613 20.9535 33.5588 20.4521 33.164 19.4492C32.841 18.6612 32.6974 17.8732 32.6974 17.121C32.6974 16.4763 32.7333 15.8674 32.8768 15.2584C33.0922 14.2197 33.5229 13.2168 34.2407 12.2497C35.0662 10.9961 35.9635 10.4947 36.8967 10.6737C37.5068 10.817 38.0093 11.3185 38.4041 12.3214C38.7271 13.1094 38.8707 13.8974 38.8707 14.6495C38.8348 15.2943 38.7989 15.939 38.6553 16.5121Z" fill="black"/>
<path fill-rule="evenodd" clip-rule="evenodd" d="M68.6967 9.27679C66.9739 10.9602 66.1484 13.0735 66.1484 15.6882C66.1484 18.4462 66.9739 20.7027 68.6608 22.422C70.3477 24.1412 72.5371 25.0009 75.2648 25.0009C76.0545 25.0009 76.9517 24.8576 77.9208 24.6069V20.4878C77.0235 20.7385 76.2698 20.8818 75.5879 20.8818C74.224 20.8818 73.1831 20.4162 72.3576 19.5207C71.5321 18.5894 71.1373 17.3716 71.1373 15.8315C71.1373 14.3987 71.5321 13.1809 72.3217 12.2855C73.1473 11.3542 74.1163 10.8886 75.3366 10.8886C76.1262 10.8886 76.9517 11.0318 77.8849 11.2826V7.16353C77.0594 6.94862 76.0903 6.84116 75.1213 6.84116C72.5371 6.76953 70.3836 7.59334 68.6967 9.27679ZM86.3553 6.76953C84.0223 6.76953 82.1919 7.55753 80.8639 9.0977C79.5359 10.6378 78.8899 12.8227 78.8899 15.6165C78.8899 18.6253 79.5359 20.9534 80.8639 22.5652C82.156 24.1771 84.0582 24.965 86.5706 24.965C88.9753 24.965 90.8417 24.1412 92.1338 22.5652C93.4259 20.9534 94.1078 18.6969 94.1078 15.7956C94.1078 12.8944 93.4618 10.6737 92.1338 9.0977C90.734 7.52171 88.8318 6.76953 86.3553 6.76953ZM88.3652 19.9505C87.8986 20.6669 87.2167 21.0251 86.3553 21.0251C85.5298 21.0251 84.9196 20.6669 84.4889 19.9505C84.0582 19.2342 83.8429 17.8014 83.8429 15.6524C83.8429 12.3213 84.6684 10.6737 86.3912 10.6737C88.1857 10.6737 89.083 12.3571 89.083 15.724C89.083 17.8373 88.8318 19.2342 88.3652 19.9505ZM106.67 7.23516L105.737 11.1035C105.521 12.1064 105.27 13.1093 105.091 14.148L104.588 16.8344C104.121 14.148 103.44 10.9602 102.614 7.19934H96.7279L94.5026 24.4994H98.9172L100.102 12.572L103.117 24.4994H106.275L109.182 12.6078L110.438 24.4994H115.068L112.735 7.19934H106.67V7.23516ZM127.846 7.23516L126.913 11.1035C126.697 12.1064 126.446 13.1093 126.266 14.148L125.764 16.8344C125.297 14.148 124.615 10.9602 123.79 7.19934H117.904L115.679 24.4994H120.093L121.278 12.572L124.292 24.4994H127.451L130.322 12.6078L131.578 24.4994H136.208L133.875 7.19934H127.846V7.23516ZM142.274 17.694H146.437V14.1122H142.274V10.9244H147.048V7.23516H137.572V24.5352H147.048V20.846H142.238V17.694H142.274ZM160.256 14.9718C160.722 14.1838 161.009 13.36 161.009 12.5362C161.009 10.9244 160.363 9.59915 159.107 8.66788C157.851 7.73662 156.092 7.23516 153.903 7.23516H148.447V24.5352H153.113V16.6553H153.185L156.989 24.5352H161.942L158.174 16.7269C159.071 16.3329 159.753 15.7598 160.256 14.9718ZM153.077 14.6853V10.5662C154.19 10.602 154.98 10.7811 155.482 11.1393C155.949 11.4975 156.2 12.0706 156.2 12.8586C156.164 14.0406 155.123 14.6495 153.077 14.6853ZM163.737 9.27679C162.05 10.9602 161.189 13.0735 161.189 15.6882C161.189 18.4462 162.014 20.7027 163.701 22.422C165.388 24.1412 167.577 25.0009 170.305 25.0009C171.095 25.0009 171.992 24.8576 172.961 24.6069V20.4878C172.064 20.7385 171.31 20.8818 170.628 20.8818C169.264 20.8818 168.223 20.4162 167.398 19.5207C166.572 18.5894 166.178 17.3716 166.178 15.8315C166.178 14.3987 166.572 13.1809 167.362 12.2855C168.188 11.3542 169.157 10.8886 170.377 10.8886C171.167 10.8886 171.992 11.0318 172.925 11.2826V7.16353C172.1 6.94862 171.131 6.84116 170.162 6.84116C167.613 6.76953 165.46 7.59334 163.737 9.27679ZM178.919 20.8102V17.6582H183.082V14.0764H178.919V10.8886H183.729V7.19934H174.253V24.4994H183.764V20.8102H178.919Z" fill="black"/>
</g>
<defs>
<clipPath id="clip0_1_418">
<rect width="184" height="37" fill="white" transform="translate(0 0.250732)"/>
</clipPath>
</defs>
</svg>
