<svg width="186" height="37" viewBox="0 0 186 37" fill="none" xmlns="http://www.w3.org/2000/svg">
<g clip-path="url(#clip0_1_405)">
<path d="M18.8242 19.4858C18.8242 22.2472 18.0032 24.5731 16.3553 26.4561C14.6355 28.4289 12.4009 29.4193 9.66553 29.4193C6.92291 29.4193 4.69553 28.4289 2.97579 26.4561C1.32719 24.5731 0.5 22.2472 0.5 19.4858C0.5 16.7168 1.32719 14.3916 2.97579 12.5155C4.71466 10.5611 6.94927 9.58445 9.66553 9.58445C12.4009 9.58445 14.6355 10.5611 16.3553 12.5155C18.0032 14.3916 18.8242 16.7168 18.8242 19.4858ZM13.378 19.4858C13.378 18.2351 13.0786 17.1793 12.4793 16.3258C11.8088 15.3556 10.8704 14.8736 9.66553 14.8736C8.46031 14.8736 7.52227 15.3556 6.85106 16.3258C6.24556 17.1793 5.94588 18.2351 5.94588 19.4858C5.94588 20.7296 6.24556 21.798 6.85106 22.6772C7.52227 23.6474 8.46031 24.1301 9.66553 24.1301C10.8704 24.1301 11.8088 23.6474 12.4793 22.6772C13.0786 21.798 13.378 20.7296 13.378 19.4858ZM38.5161 19.4858C38.5161 22.0652 37.7734 24.319 36.2815 26.247C34.6856 28.3574 32.6272 29.4193 30.1258 29.4193C28.3602 29.4193 26.8625 28.9048 25.6378 27.8888C25.6378 28.1227 25.6638 28.6896 25.7161 29.5959C25.7681 30.5068 25.7938 31.2495 25.7938 31.8359C25.7938 35.0742 24.8297 36.6893 22.902 36.6893C22.1135 36.6893 21.469 36.4091 20.9541 35.8552C20.4461 35.2956 20.1919 34.6233 20.1919 33.8297V12.7697C20.1919 12.001 20.4526 11.3363 20.9736 10.7766C21.4946 10.2228 22.1398 9.94334 22.9085 9.94334C24.0675 9.94334 24.9146 10.5218 25.4489 11.6757C26.5888 10.2817 28.1457 9.58445 30.1193 9.58445C32.6272 9.58445 34.6791 10.6261 36.2815 12.7177C37.7669 14.6526 38.5161 16.9064 38.5161 19.4858ZM33.0699 19.4858C33.0699 18.2351 32.7644 17.1793 32.165 16.3258C31.4935 15.3556 30.5558 14.8736 29.3506 14.8736C28.1457 14.8736 27.2077 15.3556 26.5365 16.3258C25.9371 17.1793 25.6378 18.2351 25.6378 19.4858C25.6378 20.7296 25.9371 21.798 26.5365 22.6772C27.2077 23.6474 28.1457 24.1301 29.3506 24.1301C30.5558 24.1301 31.4935 23.6474 32.165 22.6772C32.7644 21.798 33.0699 20.7296 33.0699 19.4858ZM58.3315 18.9002C58.3315 19.8111 58.1163 20.4365 57.6863 20.7889C57.2566 21.1337 56.5858 21.3095 55.6802 21.3095H45.8503C45.8503 22.3519 46.3392 23.1527 47.3162 23.7124C48.1044 24.1496 49.0685 24.3717 50.2083 24.3717C51.0947 24.3717 52.1563 24.0774 53.4005 23.4986C54.6447 22.9119 55.4455 22.6249 55.7914 22.6249C56.4229 22.6249 56.9569 22.853 57.4 23.3221C57.8361 23.7849 58.0582 24.345 58.0582 24.9902C58.0582 26.481 56.9443 27.6418 54.7158 28.4751C53.016 29.1001 51.2897 29.4193 49.5249 29.4193C46.6847 29.4193 44.3917 28.4751 42.6394 26.5929C40.8868 24.71 40.008 22.3454 40.008 19.4858C40.008 16.7623 40.9197 14.4371 42.7434 12.4967C44.5606 10.5546 46.8216 9.58445 49.518 9.58445C52.0259 9.58445 54.1233 10.503 55.8044 12.3397C57.4844 14.1771 58.3315 16.3655 58.3315 18.9002ZM52.886 17.5314C52.8596 16.6973 52.4754 15.942 51.7327 15.2574C50.99 14.5739 50.2022 14.2356 49.3682 14.2356C48.5085 14.2356 47.7069 14.5739 46.9646 15.2574C46.2222 15.942 45.8503 16.6973 45.8503 17.5314H52.886ZM76.6293 26.2008C76.6293 26.9962 76.3752 27.6667 75.8675 28.2271C75.3526 28.7813 74.7078 29.0615 73.9196 29.0615C72.0175 29.0615 71.0661 27.5501 71.0661 24.5341C71.0661 23.9543 71.1055 23.0426 71.1835 21.7854C71.2683 20.5343 71.3077 19.6161 71.3077 19.0363C71.3077 15.8373 70.2718 14.2356 68.2069 14.2356C66.1416 14.2356 65.1126 15.8373 65.1126 19.0363C65.1126 19.6161 65.1451 20.5343 65.2036 21.7854C65.2689 23.0426 65.3014 23.9543 65.3014 24.5341C65.3014 27.5501 64.3634 29.0615 62.4877 29.0615C61.6991 29.0615 61.0546 28.7813 60.5462 28.2271C60.0317 27.6667 59.7775 26.9962 59.7775 26.2008V12.7639C59.7775 11.9743 60.0317 11.3045 60.5462 10.7636C61.0546 10.2163 61.706 9.94334 62.4942 9.94334C63.7969 9.94334 64.702 10.5218 65.2101 11.6757C66.0896 10.2817 67.6461 9.58445 69.8743 9.58445C71.9392 9.58445 73.5809 10.1311 74.7858 11.2189C76.017 12.3859 76.6293 13.9876 76.6293 16.0268V26.2008ZM93.7147 25.622C93.7147 26.8529 92.9154 27.8295 91.3119 28.547C90.0355 29.1261 88.6873 29.4193 87.2669 29.4193C84.5239 29.4193 82.2966 28.4289 80.5768 26.4561C78.9289 24.5731 78.1017 22.2472 78.1017 19.4858C78.1017 16.7168 78.9419 14.3789 80.6288 12.4635C82.316 10.5423 84.5239 9.58445 87.2669 9.58445C88.8498 9.58445 90.2114 9.81878 91.3451 10.2817C92.9269 10.907 93.7147 11.8837 93.7147 13.2127C93.7147 13.8832 93.5075 14.4761 93.0897 14.9909C92.6734 15.499 92.1387 15.7596 91.4877 15.7596C91.044 15.7596 90.406 15.6098 89.5723 15.3173C88.739 15.0169 88.075 14.8736 87.5865 14.8736C86.2899 14.8736 85.28 15.3361 84.5572 16.2608C83.8856 17.0948 83.5473 18.1632 83.5473 19.4858C83.5473 20.7296 83.8469 21.7854 84.4532 22.6386C85.1233 23.6355 86.0682 24.1301 87.2731 24.1301C87.8078 24.1301 88.5368 23.9738 89.4679 23.6539C90.4002 23.3423 91.0714 23.1794 91.4877 23.1794C92.0943 23.1794 92.6142 23.4394 93.058 23.9478C93.4945 24.4623 93.7147 25.0154 93.7147 25.622ZM113.511 26.2008C113.511 26.9962 113.258 27.6667 112.749 28.2271C112.235 28.7813 111.584 29.0615 110.794 29.0615C109.609 29.0615 108.763 28.4813 108.255 27.3284C107.115 28.7228 105.558 29.4193 103.584 29.4193C101.058 29.4193 98.9859 28.3574 97.3824 26.247C95.9234 24.319 95.1886 22.0652 95.1886 19.4858C95.1886 16.9064 95.9234 14.6526 97.3824 12.7177C99.0119 10.6261 101.076 9.58445 103.584 9.58445C105.558 9.58445 107.115 10.2817 108.255 11.6757C108.763 10.5218 109.609 9.94334 110.794 9.94334C111.564 9.94334 112.209 10.2228 112.731 10.7766C113.251 11.3363 113.511 11.9945 113.511 12.7639V26.2008ZM108.066 19.4858C108.066 18.2351 107.767 17.1793 107.167 16.3258C106.47 15.3556 105.532 14.8736 104.353 14.8736C103.148 14.8736 102.21 15.3556 101.539 16.3258C100.934 17.1793 100.634 18.2351 100.634 19.4858C100.634 20.7296 100.926 21.798 101.506 22.6772C102.197 23.6474 103.148 24.1301 104.353 24.1301C105.558 24.1301 106.496 23.6474 107.167 22.6772C107.767 21.798 108.066 20.7296 108.066 19.4858ZM127.406 12.4047C127.406 13.5705 126.84 14.3717 125.706 14.8079C124.657 15.1603 123.614 15.5192 122.573 15.8893C121.432 16.5413 120.865 17.7527 120.865 19.5118V26.2008C120.865 26.9962 120.605 27.6667 120.098 28.2271C119.582 28.7813 118.931 29.0615 118.143 29.0615C117.349 29.0615 116.697 28.7813 116.189 28.2271C115.674 27.6667 115.42 26.9962 115.42 26.2008V12.7639C115.42 11.9743 115.674 11.3045 116.182 10.7636C116.697 10.2163 117.349 9.94334 118.137 9.94334C119.439 9.94334 120.344 10.5218 120.853 11.6757C122.019 10.2817 123.27 9.58445 124.618 9.58445C125.386 9.58445 126.045 9.86391 126.592 10.4178C127.132 10.9781 127.406 11.6425 127.406 12.4047ZM141.613 12.6524C141.613 13.8637 141.138 14.6259 140.194 14.9523C139.73 15.1148 138.759 15.1993 137.281 15.1993V26.2008C137.281 26.9962 137.02 27.6667 136.513 28.2271C135.997 28.7813 135.347 29.0615 134.558 29.0615C133.791 29.0615 133.138 28.7813 132.617 28.2271C132.097 27.6667 131.836 26.9962 131.836 26.2008V15.1993C130.715 15.1993 129.901 15.0559 129.387 14.7765C128.684 14.3854 128.337 13.6752 128.337 12.6524C128.337 11.6302 128.695 10.933 129.418 10.5611C129.907 10.2874 130.715 10.1448 131.836 10.1448V7.81272C131.836 5.07046 132.74 3.70276 134.558 3.70276C136.369 3.70276 137.281 5.07046 137.281 7.81272V10.1448C138.759 10.1448 139.73 10.2293 140.194 10.3918C141.138 10.7175 141.613 11.4738 141.613 12.6524ZM185.363 9.34455C185.348 7.67253 182.259 6.91368 174.261 6.91368C155.494 6.91368 150.733 6.11212 145.638 0.750732C147.781 3.96995 148.954 10.008 168.79 9.70757C189.485 9.38875 176.86 15.0437 173.186 21.4326C179.811 15.52 185.343 11.6228 185.363 9.36887V9.34455ZM158.992 26.5142C158.992 28.078 157.723 29.3475 156.159 29.3475C154.589 29.3475 153.319 28.078 153.319 26.5142C153.319 24.944 154.589 23.6741 156.159 23.6741C157.723 23.6741 158.992 24.944 158.992 26.5142ZM171.916 26.5142C171.916 28.078 170.647 29.3475 169.082 29.3475C167.513 29.3475 166.243 28.078 166.243 26.5142C166.243 24.944 167.513 23.6741 169.082 23.6741C170.647 23.6741 171.916 24.944 171.916 26.5142Z" fill="black"/>
</g>
<defs>
<clipPath id="clip0_1_405">
<rect width="185" height="36" fill="white" transform="translate(0.5 0.750732)"/>
</clipPath>
</defs>
</svg>
