<svg width="148" height="44" viewBox="0 0 148 44" fill="none" xmlns="http://www.w3.org/2000/svg">
<g clip-path="url(#clip0_1_413)">
<path d="M20.724 13.1485V37.6426L18.3015 39.1147L15.8776 37.6342V13.1674L9.59992 17.0103V37.9573L18.3015 43.2507L27.0771 37.9196V16.9972L20.724 13.1485ZM18.3015 0.250732L0 11.2751V32.2254L4.75306 35.0094V14.0577L18.3053 5.86444L31.8699 14.0454L31.9258 14.0765L31.9192 34.9769L36.6263 32.2239V11.2751L18.3015 0.250732Z" fill="black"/>
<path d="M64.5757 31.4329L63.3145 15.4147L56.9164 31.52H54.8322L48.4356 15.4147L47.2033 31.4329H44.6216L46.2348 11.3018H49.6395L55.9489 27.816L62.257 11.3018H65.6322L67.2166 31.4329H64.5757ZM77.8683 24.3721C72.7031 24.8686 71.6186 26.2676 71.6186 27.6987C71.6186 28.8359 72.3804 29.5661 73.7023 29.5661C75.2289 29.5661 76.6938 28.8076 77.8683 27.6107V24.3721ZM78.3663 31.4329L78.073 29.5661C76.9582 30.7027 75.4331 31.7245 73.1437 31.7245C70.6208 31.7245 69.0364 30.2067 69.0364 27.8434C69.0364 24.3725 72.0275 23.0027 77.8688 22.3884V21.8048C77.8688 20.0543 76.8127 19.4414 75.1971 19.4414C73.4957 19.4414 71.8829 19.9666 70.3564 20.6374L70.0034 18.3914C71.6764 17.7192 73.2612 17.2236 75.4331 17.2236C78.8368 17.2236 80.4789 18.594 80.4789 21.6879V31.4334L78.3663 31.4329ZM88.3135 19.1206C86.5529 19.1206 85.4674 20.465 85.4674 22.1548C85.4674 23.7597 86.5827 25.0122 88.3135 25.0122C90.1049 25.0122 91.2188 23.7017 91.2188 22.0375C91.2188 20.3751 90.0447 19.1206 88.3135 19.1206ZM84.5 32.9507C84.5 34.0591 85.9379 34.8755 88.666 34.8755C91.395 34.8755 92.9201 33.9423 92.9201 32.775C92.9201 31.928 92.2763 31.3462 90.2811 30.9962L88.6068 30.7032C87.8454 30.5586 87.4346 30.471 86.877 30.3542C85.2329 31.1705 84.5 31.9873 84.5 32.9507ZM95.4739 17.3126L95.8553 19.6458L93.185 19.9078C93.5669 20.5503 93.7445 21.28 93.7445 22.0671C93.7445 25.0443 91.2192 26.8513 88.3732 26.8513C88.0207 26.8513 87.6682 26.8221 87.3171 26.7637C86.9059 27.027 86.615 27.3492 86.615 27.6111C86.615 28.1062 87.112 28.2245 89.5757 28.6621L90.5735 28.8354C93.5399 29.3607 95.3862 30.2929 95.3862 32.4528C95.3862 35.371 92.1872 36.7418 88.5499 36.7418C84.9107 36.7418 82.0055 35.6047 82.0055 33.1547C82.0055 31.724 83.0033 30.6156 84.969 29.5656C84.3531 29.128 84.0901 28.6315 84.0901 28.1053C84.0901 27.4331 84.6179 26.7627 85.556 26.2097C84.0034 25.4513 82.944 23.9641 82.944 22.0662C82.944 19.0617 85.4684 17.2241 88.3144 17.2241C89.7235 17.2241 90.9563 17.6316 91.9233 18.3914L95.4739 17.3126ZM101.929 19.2666C100.316 19.2666 98.9358 20.4052 98.5246 22.7959H105.273C104.952 20.5498 103.955 19.2666 101.929 19.2666ZM107.916 24.7517H98.409C98.4966 27.9908 100.049 29.5086 102.486 29.5086C104.511 29.5086 105.98 28.7205 107.504 27.5235L107.885 29.8576C106.391 31.0245 104.6 31.725 102.282 31.725C98.644 31.725 95.7965 29.5364 95.7965 24.431C95.7965 19.9671 98.4384 17.226 101.96 17.226C106.037 17.226 107.917 20.3468 107.917 24.1973L107.916 24.7517ZM118.919 31.4329V21.9503C118.919 20.5216 118.303 19.5582 116.777 19.5582C115.399 19.5582 113.99 20.4646 112.728 21.8052V31.4334H110.116V17.5157H112.2L112.522 19.5286C113.841 18.3335 115.486 17.2231 117.481 17.2231C120.12 17.2231 121.532 18.7984 121.532 21.3073V31.432L118.919 31.4329ZM129.248 31.6666C126.782 31.6666 125.17 30.7927 125.17 27.9889V19.7047H123.056V17.5162H125.17V12.8771L127.725 12.4988V17.5152H130.744L131.098 19.7038H127.725V27.5226C127.725 28.6621 128.193 29.3607 129.66 29.3607C130.13 29.3607 130.54 29.3319 130.863 29.2731L131.217 31.4871C130.775 31.578 130.16 31.6666 129.248 31.6666ZM137.906 19.4122C135.381 19.4122 134.118 21.5706 134.118 24.4889C134.118 27.3492 135.439 29.5656 137.906 29.5656C140.487 29.5656 141.777 27.4057 141.777 24.4889C141.777 21.63 140.428 19.4122 137.906 19.4122ZM137.906 31.725C134.178 31.725 131.478 29.07 131.478 24.4898C131.478 19.9073 134.178 17.2264 137.906 17.2264C141.661 17.2264 144.418 19.9073 144.418 24.4898C144.418 29.07 141.661 31.725 137.906 31.725ZM146.26 17.0366H145.995V17.6283H146.245C146.472 17.6283 146.614 17.5345 146.614 17.3324C146.615 17.1379 146.488 17.0366 146.26 17.0366ZM146.793 18.7579L146.191 17.901H145.995V18.7273H145.65V16.7248H146.261C146.686 16.7248 146.967 16.9353 146.967 17.3084C146.967 17.5962 146.809 17.7851 146.559 17.8629L147.14 18.6806L146.793 18.7579ZM128.725 29.095C127.879 29.095 127.204 29.6716 127.204 30.6999C127.204 31.7207 127.879 32.2978 128.725 32.2978C129.58 32.2978 130.254 31.7207 130.254 30.6999C130.253 29.6716 129.571 29.095 128.725 29.095ZM128.725 32.5083C127.675 32.5083 126.945 31.7838 126.945 30.6999C126.945 29.6245 127.69 28.8844 128.725 28.8844C129.774 28.8844 130.503 29.6174 130.503 30.6999C130.503 31.7763 129.759 32.5083 128.725 32.5083Z" fill="black"/>
</g>
<defs>
<clipPath id="clip0_1_413">
<rect width="148" height="43" fill="white" transform="translate(0 0.250732)"/>
</clipPath>
</defs>
</svg>
