<svg width="182" height="34" viewBox="0 0 182 34" fill="none" xmlns="http://www.w3.org/2000/svg">
<g clip-path="url(#clip0_1_392)">
<path d="M122.647 13.011V25.7713H124.505H126.364V20.0558C126.364 16.334 126.403 14.3402 126.496 14.3402C126.576 14.3402 126.629 14.1542 126.629 13.9415C126.629 13.7155 126.695 13.5427 126.762 13.5427C126.841 13.5427 126.894 13.4364 126.894 13.3035C126.894 13.1705 127.014 12.9845 127.16 12.8781C127.306 12.7718 127.425 12.6123 127.425 12.506C127.425 12.28 127.757 11.9477 127.983 11.9477C128.089 11.9477 128.248 11.8281 128.355 11.6819C128.461 11.5356 128.647 11.416 128.779 11.416C128.912 11.416 129.018 11.3496 129.018 11.2831C129.018 11.2033 129.138 11.1502 129.284 11.1502C129.43 11.1502 129.549 11.0837 129.549 11.0173C129.549 10.9375 129.788 10.8843 130.08 10.8843C130.372 10.8843 130.611 10.8179 130.611 10.7514C130.611 10.6717 130.916 10.6185 131.275 10.6185C131.646 10.6185 131.938 10.6717 131.938 10.7514C131.938 10.8179 132.177 10.8843 132.469 10.8843C132.761 10.8843 133 10.9375 133 11.0173C133 11.0837 133.12 11.1502 133.266 11.1502C133.412 11.1502 133.531 11.2033 133.531 11.2831C133.531 11.3496 133.624 11.416 133.73 11.416C133.996 11.416 134.593 12.0141 134.593 12.28C134.593 12.3863 134.659 12.4794 134.726 12.4794C134.805 12.4794 134.859 12.599 134.859 12.7452C134.859 12.8914 134.925 13.011 134.991 13.011C135.071 13.011 135.124 13.1307 135.124 13.2769C135.124 13.4231 135.19 13.5427 135.257 13.5427C135.336 13.5427 135.389 13.9814 135.389 14.6061C135.389 15.2308 135.443 15.6694 135.522 15.6694C135.602 15.6694 135.655 17.4373 135.655 20.7204V25.7713H137.513H139.372V19.7899C139.372 15.8954 139.332 13.8086 139.239 13.8086C139.159 13.8086 139.106 13.4098 139.106 12.8781C139.106 12.3464 139.053 11.9477 138.973 11.9477C138.907 11.9477 138.841 11.7616 138.841 11.5489C138.841 11.323 138.787 11.1502 138.708 11.1502C138.641 11.1502 138.575 11.0305 138.575 10.8843C138.575 10.7381 138.522 10.6185 138.442 10.6185C138.376 10.6185 138.31 10.5255 138.31 10.4058C138.31 10.2862 138.137 10.0203 137.911 9.82093C137.699 9.62155 137.513 9.35571 137.513 9.23608C137.513 9.11646 137.42 9.02341 137.301 9.02341C137.181 9.02341 136.916 8.83732 136.717 8.62465C136.518 8.39869 136.252 8.2259 136.133 8.2259C136.013 8.2259 135.92 8.15944 135.92 8.09298C135.92 8.01322 135.801 7.96006 135.655 7.96006C135.509 7.96006 135.389 7.8936 135.389 7.82714C135.389 7.74739 135.151 7.69422 134.859 7.69422C134.567 7.69422 134.328 7.62776 134.328 7.5613C134.328 7.48155 133.624 7.42838 132.469 7.42838C131.315 7.42838 130.611 7.48155 130.611 7.5613C130.611 7.62776 130.438 7.69422 130.213 7.69422C130 7.69422 129.815 7.74739 129.815 7.82714C129.815 7.8936 129.695 7.96006 129.549 7.96006C129.403 7.96006 129.284 8.01322 129.284 8.09298C129.284 8.15944 129.164 8.2259 129.018 8.2259C128.872 8.2259 128.753 8.27906 128.753 8.35881C128.753 8.42527 128.66 8.49173 128.554 8.49173C128.288 8.49173 126.629 10.1532 126.629 10.4191C126.629 10.5255 126.576 10.6185 126.496 10.6185C126.417 10.6185 126.364 8.79745 126.364 5.43459V0.250732H124.505H122.647V13.011Z" fill="black"/>
<path d="M108.311 1.44713C108.311 1.51359 108.072 1.58005 107.78 1.58005C107.488 1.58005 107.249 1.63322 107.249 1.71297C107.249 1.77943 107.077 1.84589 106.851 1.84589C106.639 1.84589 106.453 1.89906 106.453 1.97881C106.453 2.04527 106.334 2.11173 106.188 2.11173C106.042 2.11173 105.922 2.16489 105.922 2.24464C105.922 2.31111 105.803 2.37757 105.657 2.37757C105.511 2.37757 105.391 2.43073 105.391 2.51049C105.391 2.57695 105.298 2.6434 105.179 2.6434C105.059 2.6434 104.794 2.8162 104.595 3.04216C104.396 3.25483 104.13 3.44092 104.011 3.44092C103.891 3.44092 103.798 3.53396 103.798 3.65359C103.798 3.77322 103.626 4.03906 103.4 4.23844C103.188 4.43782 103.002 4.70365 103.002 4.82328C103.002 4.94291 102.949 5.03595 102.869 5.03595C102.803 5.03595 102.737 5.15558 102.737 5.30179C102.737 5.448 102.683 5.56763 102.604 5.56763C102.537 5.56763 102.471 5.74043 102.471 5.96639C102.471 6.17906 102.418 6.36515 102.338 6.36515C102.259 6.36515 102.206 7.02974 102.206 8.0931C102.206 9.15645 102.259 9.82105 102.338 9.82105C102.418 9.82105 102.471 10.0603 102.471 10.3527C102.471 10.6451 102.537 10.8844 102.604 10.8844C102.683 10.8844 102.737 11.004 102.737 11.1502C102.737 11.2964 102.803 11.416 102.869 11.416C102.949 11.416 103.002 11.5091 103.002 11.6154C103.002 11.8813 104.661 13.5428 104.927 13.5428C105.033 13.5428 105.126 13.5959 105.126 13.6757C105.126 13.7421 105.245 13.8086 105.391 13.8086C105.537 13.8086 105.657 13.8618 105.657 13.9415C105.657 14.008 105.776 14.0744 105.922 14.0744C106.068 14.0744 106.188 14.1276 106.188 14.2074C106.188 14.2738 106.307 14.3403 106.453 14.3403C106.599 14.3403 106.719 14.3934 106.719 14.4732C106.719 14.5396 106.904 14.6061 107.117 14.6061C107.342 14.6061 107.515 14.6593 107.515 14.739C107.515 14.8055 107.701 14.8719 107.913 14.8719C108.139 14.8719 108.311 14.9251 108.311 15.0049C108.311 15.0713 108.55 15.1378 108.842 15.1378C109.134 15.1378 109.373 15.191 109.373 15.2707C109.373 15.3372 109.612 15.4036 109.904 15.4036C110.196 15.4036 110.435 15.4568 110.435 15.5365C110.435 15.603 110.674 15.6695 110.966 15.6695C111.258 15.6695 111.497 15.7226 111.497 15.8024C111.497 15.8688 111.683 15.9353 111.895 15.9353C112.121 15.9353 112.293 15.9885 112.293 16.0682C112.293 16.1347 112.479 16.2011 112.692 16.2011C112.917 16.2011 113.09 16.2543 113.09 16.3341C113.09 16.4005 113.209 16.467 113.355 16.467C113.501 16.467 113.621 16.5201 113.621 16.5999C113.621 16.6664 113.74 16.7328 113.886 16.7328C114.032 16.7328 114.152 16.786 114.152 16.8657C114.152 16.9322 114.245 16.9987 114.351 16.9987C114.616 16.9987 115.214 17.5968 115.214 17.8626C115.214 17.969 115.28 18.062 115.346 18.062C115.426 18.062 115.479 18.5538 115.479 19.2583C115.479 19.9628 115.426 20.4546 115.346 20.4546C115.28 20.4546 115.214 20.5476 115.214 20.6539C115.214 20.9198 114.616 21.5179 114.351 21.5179C114.245 21.5179 114.152 21.5711 114.152 21.6508C114.152 21.7173 114.032 21.7838 113.886 21.7838C113.74 21.7838 113.621 21.8369 113.621 21.9167C113.621 21.9831 113.448 22.0496 113.223 22.0496C113.01 22.0496 112.824 22.1028 112.824 22.1825C112.824 22.2623 112.2 22.3154 111.232 22.3154C110.263 22.3154 109.639 22.2623 109.639 22.1825C109.639 22.1028 109.4 22.0496 109.108 22.0496C108.816 22.0496 108.577 21.9831 108.577 21.9167C108.577 21.8369 108.404 21.7838 108.179 21.7838C107.966 21.7838 107.78 21.7173 107.78 21.6508C107.78 21.5711 107.608 21.5179 107.382 21.5179C107.17 21.5179 106.984 21.4515 106.984 21.385C106.984 21.3052 106.878 21.2521 106.745 21.2521C106.612 21.2521 106.427 21.1325 106.32 20.9862C106.214 20.84 106.042 20.7204 105.922 20.7204C105.803 20.7204 105.63 20.6008 105.524 20.4546C105.418 20.3084 105.245 20.1887 105.126 20.1887C105.006 20.1887 104.834 20.0691 104.728 19.9229C104.621 19.7767 104.436 19.657 104.303 19.657C104.17 19.657 104.064 19.5906 104.064 19.5241C104.064 19.4444 103.971 19.3912 103.865 19.3912C103.626 19.3912 102.471 20.5077 102.471 20.7337C102.471 20.8134 102.232 21.1059 101.94 21.385C101.648 21.6641 101.409 21.9566 101.409 22.0363C101.409 22.249 102.564 23.3788 102.776 23.3788C102.869 23.3788 103.029 23.4984 103.135 23.6446C103.241 23.7908 103.427 23.9105 103.559 23.9105C103.692 23.9105 103.798 23.9636 103.798 24.0434C103.798 24.1098 103.918 24.1763 104.064 24.1763C104.21 24.1763 104.329 24.2295 104.329 24.3092C104.329 24.3757 104.449 24.4421 104.595 24.4421C104.741 24.4421 104.86 24.4953 104.86 24.5751C104.86 24.6415 104.98 24.708 105.126 24.708C105.272 24.708 105.391 24.7612 105.391 24.8409C105.391 24.9074 105.511 24.9738 105.657 24.9738C105.803 24.9738 105.922 25.027 105.922 25.1067C105.922 25.1732 106.108 25.2397 106.32 25.2397C106.546 25.2397 106.719 25.2928 106.719 25.3726C106.719 25.439 106.957 25.5055 107.249 25.5055C107.542 25.5055 107.78 25.5587 107.78 25.6384C107.78 25.7049 108.086 25.7713 108.444 25.7713C108.816 25.7713 109.108 25.8245 109.108 25.9043C109.108 25.984 109.864 26.0372 111.099 26.0372C112.333 26.0372 113.09 25.984 113.09 25.9043C113.09 25.8245 113.395 25.7713 113.753 25.7713C114.125 25.7713 114.417 25.7049 114.417 25.6384C114.417 25.5587 114.603 25.5055 114.815 25.5055C115.041 25.5055 115.214 25.439 115.214 25.3726C115.214 25.2928 115.333 25.2397 115.479 25.2397C115.625 25.2397 115.745 25.1732 115.745 25.1067C115.745 25.027 115.864 24.9738 116.01 24.9738C116.156 24.9738 116.275 24.9074 116.275 24.8409C116.275 24.7612 116.368 24.708 116.488 24.708C116.607 24.708 116.873 24.5219 117.072 24.3092C117.271 24.0833 117.51 23.9105 117.603 23.9105C117.802 23.9105 118.134 23.5782 118.134 23.3788C118.134 23.2857 118.32 23.0465 118.532 22.8471C118.758 22.6477 118.93 22.3819 118.93 22.2623C118.93 22.1426 118.997 22.0496 119.063 22.0496C119.143 22.0496 119.196 21.8635 119.196 21.6508C119.196 21.4249 119.262 21.2521 119.328 21.2521C119.408 21.2521 119.461 21.066 119.461 20.8533C119.461 20.6274 119.527 20.4546 119.594 20.4546C119.673 20.4546 119.727 19.883 119.727 18.9924C119.727 18.1019 119.673 17.5303 119.594 17.5303C119.527 17.5303 119.461 17.3442 119.461 17.1316C119.461 16.9056 119.408 16.7328 119.328 16.7328C119.262 16.7328 119.196 16.5467 119.196 16.3341C119.196 16.1081 119.143 15.9353 119.063 15.9353C118.997 15.9353 118.93 15.8423 118.93 15.7359C118.93 15.4701 117.005 13.5428 116.74 13.5428C116.634 13.5428 116.541 13.4763 116.541 13.4098C116.541 13.3301 116.421 13.2769 116.275 13.2769C116.129 13.2769 116.01 13.2105 116.01 13.144C116.01 13.0642 115.891 13.0111 115.745 13.0111C115.599 13.0111 115.479 12.9446 115.479 12.8782C115.479 12.7984 115.36 12.7452 115.214 12.7452C115.068 12.7452 114.948 12.6788 114.948 12.6123C114.948 12.5326 114.776 12.4794 114.55 12.4794C114.338 12.4794 114.152 12.4129 114.152 12.3465C114.152 12.2667 113.979 12.2136 113.753 12.2136C113.541 12.2136 113.355 12.1471 113.355 12.0806C113.355 12.0009 113.116 11.9477 112.824 11.9477C112.532 11.9477 112.293 11.8813 112.293 11.8148C112.293 11.7351 112.054 11.6819 111.762 11.6819C111.47 11.6819 111.232 11.6154 111.232 11.549C111.232 11.4692 111.059 11.416 110.833 11.416C110.621 11.416 110.435 11.3496 110.435 11.2831C110.435 11.2034 110.196 11.1502 109.904 11.1502C109.612 11.1502 109.373 11.0837 109.373 11.0173C109.373 10.9375 109.254 10.8844 109.108 10.8844C108.962 10.8844 108.842 10.8179 108.842 10.7514C108.842 10.6717 108.67 10.6185 108.444 10.6185C108.232 10.6185 108.046 10.5521 108.046 10.4856C108.046 10.4059 107.953 10.3527 107.847 10.3527C107.581 10.3527 106.719 9.48875 106.719 9.22291C106.719 9.11658 106.665 9.02354 106.586 9.02354C106.519 9.02354 106.453 8.83745 106.453 8.62478C106.453 8.39881 106.4 8.22602 106.32 8.22602C106.254 8.22602 106.188 8.03993 106.188 7.82726C106.188 7.6013 106.254 7.4285 106.32 7.4285C106.4 7.4285 106.453 7.24242 106.453 7.02974C106.453 6.80378 106.519 6.63099 106.586 6.63099C106.665 6.63099 106.719 6.53794 106.719 6.41831C106.719 6.16577 107.037 5.83347 107.276 5.83347C107.382 5.83347 107.542 5.71384 107.648 5.56763C107.754 5.40813 107.993 5.30179 108.205 5.30179C108.404 5.30179 108.577 5.23533 108.577 5.16887C108.577 5.08912 109.333 5.03595 110.568 5.03595C111.802 5.03595 112.559 5.08912 112.559 5.16887C112.559 5.23533 112.798 5.30179 113.09 5.30179C113.382 5.30179 113.621 5.35496 113.621 5.43471C113.621 5.50117 113.807 5.56763 114.019 5.56763C114.245 5.56763 114.417 5.6208 114.417 5.70055C114.417 5.76701 114.537 5.83347 114.683 5.83347C114.829 5.83347 114.948 5.88664 114.948 5.96639C114.948 6.03285 115.068 6.09931 115.214 6.09931C115.36 6.09931 115.479 6.15248 115.479 6.23223C115.479 6.29869 115.585 6.36515 115.718 6.36515C115.851 6.36515 116.037 6.48477 116.143 6.63099C116.461 7.06962 117.337 6.87024 117.337 6.36515C117.337 6.2721 117.523 6.03285 117.736 5.83347C117.961 5.63409 118.134 5.38154 118.134 5.27521C118.134 5.18216 118.253 5.00937 118.399 4.90303C118.545 4.7967 118.665 4.61061 118.665 4.49098C118.665 4.35806 118.731 4.23844 118.824 4.21185C119.036 4.1321 118.359 3.44092 118.067 3.44092C117.961 3.44092 117.868 3.37446 117.868 3.308C117.868 3.22825 117.762 3.17508 117.629 3.17508C117.497 3.17508 117.311 3.05546 117.205 2.90924C117.098 2.74974 116.859 2.6434 116.647 2.6434C116.448 2.6434 116.275 2.57695 116.275 2.51049C116.275 2.43073 116.156 2.37757 116.01 2.37757C115.864 2.37757 115.745 2.31111 115.745 2.24464C115.745 2.16489 115.572 2.11173 115.346 2.11173C115.134 2.11173 114.948 2.04527 114.948 1.97881C114.948 1.89906 114.776 1.84589 114.55 1.84589C114.338 1.84589 114.152 1.77943 114.152 1.71297C114.152 1.63322 113.913 1.58005 113.621 1.58005C113.329 1.58005 113.09 1.51359 113.09 1.44713C113.09 1.36738 112.2 1.31421 110.701 1.31421C109.201 1.31421 108.311 1.36738 108.311 1.44713Z" fill="black"/>
<path d="M0 13.8085V25.7712H1.99102H3.98204V22.3153V18.8594H7.03493C8.98613 18.8594 10.0878 18.8062 10.0878 18.7265C10.0878 18.6467 10.5258 18.5936 11.1497 18.5936C11.7736 18.5936 12.2116 18.5404 12.2116 18.4606C12.2116 18.3809 12.3974 18.3277 12.6098 18.3277C12.8354 18.3277 13.008 18.2613 13.008 18.1948C13.008 18.1151 13.1938 18.0619 13.4062 18.0619C13.6318 18.0619 13.8044 17.9954 13.8044 17.929C13.8044 17.8492 13.9902 17.796 14.2026 17.796C14.4282 17.796 14.6008 17.7296 14.6008 17.6631C14.6008 17.5834 14.707 17.5302 14.8397 17.5302C14.9725 17.5302 15.1583 17.4106 15.2645 17.2644C15.3707 17.1182 15.5299 16.9985 15.6229 16.9985C15.8751 16.9985 17.521 15.3237 17.521 15.0712C17.521 14.9649 17.5873 14.8718 17.6537 14.8718C17.7333 14.8718 17.7864 14.7522 17.7864 14.606C17.7864 14.4598 17.8528 14.3401 17.9192 14.3401C17.9988 14.3401 18.0519 14.1541 18.0519 13.9414C18.0519 13.7154 18.1183 13.5426 18.1846 13.5426C18.2643 13.5426 18.3174 13.3034 18.3174 13.0109C18.3174 12.7185 18.3837 12.4793 18.4501 12.4793C18.5297 12.4793 18.5828 11.6818 18.5828 10.3526C18.5828 9.02334 18.5297 8.22583 18.4501 8.22583C18.3837 8.22583 18.3174 7.98657 18.3174 7.69415C18.3174 7.40173 18.2643 7.16247 18.1846 7.16247C18.1183 7.16247 18.0519 6.97638 18.0519 6.76371C18.0519 6.53775 17.9988 6.36495 17.9192 6.36495C17.8528 6.36495 17.7864 6.24533 17.7864 6.09912C17.7864 5.9529 17.7333 5.83328 17.6537 5.83328C17.5873 5.83328 17.521 5.74023 17.521 5.62061C17.521 5.50098 17.3484 5.23514 17.1228 5.03576C16.8971 4.83638 16.7246 4.57054 16.7246 4.45092C16.7246 4.33129 16.6316 4.23824 16.5122 4.23824C16.3927 4.23824 16.1272 4.05216 15.9281 3.83949C15.729 3.61352 15.4636 3.44073 15.3441 3.44073C15.2247 3.44073 15.1317 3.37427 15.1317 3.30781C15.1317 3.22806 15.0123 3.17489 14.8663 3.17489C14.7203 3.17489 14.6008 3.10843 14.6008 3.04197C14.6008 2.96222 14.4813 2.90905 14.3353 2.90905C14.1893 2.90905 14.0699 2.84259 14.0699 2.77613C14.0699 2.69638 13.8973 2.64321 13.6717 2.64321C13.4593 2.64321 13.2735 2.57675 13.2735 2.51029C13.2735 2.43054 13.0345 2.37737 12.7425 2.37737C12.4505 2.37737 12.2116 2.31091 12.2116 2.24445C12.2116 2.1647 11.8134 2.11154 11.2824 2.11154C10.7515 2.11154 10.3533 2.05837 10.3533 1.97862C10.3533 1.89886 8.53483 1.8457 5.17665 1.8457H0V13.8085ZM10.6188 5.70036C10.6188 5.76682 10.8577 5.83328 11.1497 5.83328C11.4417 5.83328 11.6806 5.88645 11.6806 5.9662C11.6806 6.03266 11.8001 6.09912 11.9461 6.09912C12.0921 6.09912 12.2116 6.15228 12.2116 6.23204C12.2116 6.2985 12.331 6.36495 12.477 6.36495C12.6231 6.36495 12.7425 6.41812 12.7425 6.49787C12.7425 6.56433 12.8354 6.63079 12.9416 6.63079C13.2071 6.63079 13.8044 7.22893 13.8044 7.49477C13.8044 7.60111 13.8708 7.69415 13.9371 7.69415C14.0168 7.69415 14.0699 7.81378 14.0699 7.95999C14.0699 8.1062 14.1362 8.22583 14.2026 8.22583C14.2822 8.22583 14.3353 8.46508 14.3353 8.7575C14.3353 9.04993 14.4017 9.28918 14.4681 9.28918C14.5477 9.28918 14.6008 9.64806 14.6008 10.0867C14.6008 10.5254 14.5477 10.8842 14.4681 10.8842C14.4017 10.8842 14.3353 11.1767 14.3353 11.5488C14.3353 11.9077 14.2822 12.2134 14.2026 12.2134C14.1362 12.2134 14.0699 12.3331 14.0699 12.4793C14.0699 12.6255 14.0168 12.7451 13.9371 12.7451C13.8708 12.7451 13.8044 12.8647 13.8044 13.0109C13.8044 13.1572 13.7513 13.2768 13.6717 13.2768C13.6053 13.2768 13.5389 13.3698 13.5389 13.4762C13.5389 13.742 12.9416 14.3401 12.6761 14.3401C12.57 14.3401 12.477 14.3933 12.477 14.4731C12.477 14.5395 12.3576 14.606 12.2116 14.606C12.0656 14.606 11.9461 14.6591 11.9461 14.7389C11.9461 14.8054 11.7072 14.8718 11.4152 14.8718C11.1232 14.8718 10.8842 14.925 10.8842 15.0047C10.8842 15.0845 9.6498 15.1377 7.43313 15.1377H3.98204V10.3526V5.56744H7.3004C9.42415 5.56744 10.6188 5.62061 10.6188 5.70036Z" fill="black"/>
<path d="M68.4912 11.283C68.4912 17.4903 68.531 20.7202 68.6239 20.7202C68.7036 20.7202 68.7567 21.0127 68.7567 21.3848C68.7567 21.7437 68.823 22.0494 68.8894 22.0494C68.9691 22.0494 69.0221 22.2222 69.0221 22.4482C69.0221 22.6609 69.0885 22.8469 69.1549 22.8469C69.2345 22.8469 69.2876 22.9533 69.2876 23.0862C69.2876 23.2191 69.4071 23.4052 69.5531 23.5115C69.6991 23.6179 69.8186 23.7774 69.8186 23.8837C69.8186 24.1097 70.6813 24.9737 70.907 24.9737C71.0132 24.9737 71.1724 25.0933 71.2786 25.2395C71.3848 25.3857 71.5707 25.5053 71.7034 25.5053C71.8361 25.5053 71.9423 25.5585 71.9423 25.6382C71.9423 25.7047 72.1281 25.7712 72.3405 25.7712C72.5662 25.7712 72.7387 25.8243 72.7387 25.9041C72.7387 25.9705 72.9776 26.037 73.2697 26.037C73.5617 26.037 73.8006 26.0902 73.8006 26.1699C73.8006 26.2497 74.159 26.3028 74.597 26.3028C75.035 26.3028 75.3934 26.2497 75.3934 26.1699C75.3934 26.0902 75.6323 26.037 75.9243 26.037C76.2164 26.037 76.4553 25.9705 76.4553 25.9041C76.4553 25.8243 76.5747 25.7712 76.7208 25.7712C76.8668 25.7712 76.9862 25.7047 76.9862 25.6382C76.9862 25.5585 77.1057 25.5053 77.2517 25.5053C77.3977 25.5053 77.5172 25.4389 77.5172 25.3724C77.5172 25.2927 77.6233 25.2395 77.7561 25.2395C77.8888 25.2395 78.0746 25.1199 78.1808 24.9737C78.287 24.8274 78.4728 24.7078 78.6056 24.7078C78.7781 24.7078 78.8445 24.6015 78.8445 24.3091C78.8445 24.0831 78.7914 23.9103 78.7118 23.9103C78.6454 23.9103 78.579 23.804 78.579 23.671C78.579 23.5381 78.4596 23.352 78.3136 23.2457C78.1676 23.1394 78.0481 22.9533 78.0481 22.8204C78.0481 22.6874 77.995 22.5811 77.9154 22.5811C77.849 22.5811 77.7826 22.4881 77.7826 22.3684C77.7826 22.2621 77.6897 22.076 77.5835 21.9564C77.3977 21.7703 77.3446 21.7836 77.1322 22.0361C76.9995 22.1956 76.7871 22.3153 76.6677 22.3153C76.5482 22.3153 76.4553 22.3684 76.4553 22.4482C76.4553 22.5146 76.3358 22.5811 76.1898 22.5811C76.0438 22.5811 75.9243 22.6343 75.9243 22.714C75.9243 22.7938 75.5261 22.8469 74.9952 22.8469C74.4643 22.8469 74.0661 22.7938 74.0661 22.714C74.0661 22.6343 73.9731 22.5811 73.867 22.5811C73.6015 22.5811 72.7387 21.7171 72.7387 21.4513C72.7387 21.345 72.6856 21.2519 72.606 21.2519C72.5263 21.2519 72.4732 19.391 72.4732 15.9351V10.6184H74.8625H77.2517V9.15626V7.69415H74.8625H72.4732V4.76992V1.8457H70.4822H68.4912V11.283Z" fill="black"/>
<path d="M41.4135 7.29552C41.4135 7.37527 40.9755 7.42844 40.3516 7.42844C39.7278 7.42844 39.2897 7.48161 39.2897 7.56136C39.2897 7.62782 39.1172 7.69428 38.8915 7.69428C38.6792 7.69428 38.4933 7.74745 38.4933 7.8272C38.4933 7.89366 38.3208 7.96012 38.0951 7.96012C37.8827 7.96012 37.6969 8.01329 37.6969 8.09304C37.6969 8.1595 37.5775 8.22596 37.4315 8.22596C37.2854 8.22596 37.166 8.27913 37.166 8.35888C37.166 8.42534 37.0598 8.4918 36.9271 8.4918C36.7943 8.4918 36.6085 8.61143 36.5023 8.75764C36.3961 8.90385 36.2368 9.02348 36.1439 9.02348C35.9183 9.02348 33.9804 10.9641 33.9804 11.1901C33.9804 11.2831 33.8609 11.4426 33.7149 11.549C33.5689 11.6553 33.4494 11.8414 33.4494 11.9743C33.4494 12.1072 33.3963 12.2136 33.3167 12.2136C33.2503 12.2136 33.1839 12.3332 33.1839 12.4794C33.1839 12.6256 33.1309 12.7452 33.0512 12.7452C32.9848 12.7452 32.9185 12.8649 32.9185 13.0111C32.9185 13.1573 32.8654 13.2769 32.7857 13.2769C32.7194 13.2769 32.653 13.4497 32.653 13.6757C32.653 13.8883 32.5999 14.0744 32.5203 14.0744C32.4539 14.0744 32.3875 14.3669 32.3875 14.739C32.3875 15.0979 32.3344 15.4036 32.2548 15.4036C32.1752 15.4036 32.1221 15.9353 32.1221 16.7328C32.1221 17.5303 32.1752 18.062 32.2548 18.062C32.3344 18.062 32.3875 18.4209 32.3875 18.8595C32.3875 19.2982 32.4406 19.657 32.5203 19.657C32.5999 19.657 32.653 19.8298 32.653 20.0558C32.653 20.2685 32.7194 20.4546 32.7857 20.4546C32.8654 20.4546 32.9185 20.5742 32.9185 20.7204C32.9185 20.8666 32.9848 20.9862 33.0512 20.9862C33.1309 20.9862 33.1839 21.1059 33.1839 21.2521C33.1839 21.3983 33.2503 21.5179 33.3167 21.5179C33.3963 21.5179 33.4494 21.611 33.4494 21.7306C33.4494 21.8502 33.6352 22.1161 33.8476 22.3154C34.0733 22.5148 34.2458 22.7541 34.2458 22.8338C34.2458 23.0332 34.8564 23.6446 35.0555 23.6446C35.1351 23.6446 35.3741 23.8307 35.5732 24.0434C35.7723 24.2693 36.0245 24.4421 36.1307 24.4421C36.2236 24.4421 36.3961 24.5618 36.5023 24.708C36.6085 24.8542 36.7943 24.9738 36.9271 24.9738C37.0598 24.9738 37.166 25.027 37.166 25.1067C37.166 25.1732 37.2854 25.2397 37.4315 25.2397C37.5775 25.2397 37.6969 25.2928 37.6969 25.3726C37.6969 25.439 37.8827 25.5055 38.0951 25.5055C38.3208 25.5055 38.4933 25.5587 38.4933 25.6384C38.4933 25.7049 38.7323 25.7713 39.0243 25.7713C39.3163 25.7713 39.5552 25.8245 39.5552 25.9043C39.5552 25.984 40.3516 26.0372 41.679 26.0372C43.0063 26.0372 43.8027 25.984 43.8027 25.9043C43.8027 25.8245 44.0416 25.7713 44.3336 25.7713C44.6257 25.7713 44.8646 25.7049 44.8646 25.6384C44.8646 25.5587 45.0504 25.5055 45.2628 25.5055C45.4884 25.5055 45.661 25.439 45.661 25.3726C45.661 25.2928 45.7805 25.2397 45.9265 25.2397C46.0725 25.2397 46.1919 25.1732 46.1919 25.1067C46.1919 25.027 46.2981 24.9738 46.4309 24.9738C46.5636 24.9738 46.7494 24.8542 46.8556 24.708C46.9618 24.5618 47.1343 24.4421 47.2273 24.4421C47.3334 24.4421 47.5856 24.2693 47.7847 24.0434C47.9838 23.8307 48.2228 23.6446 48.3024 23.6446C48.5679 23.6446 49.1121 23.0066 49.1121 22.7142C49.1121 22.4351 47.2538 20.4546 46.9883 20.4546C46.9087 20.4546 46.5503 20.747 46.1919 21.1192C45.8335 21.478 45.4486 21.7838 45.3424 21.7838C45.223 21.7838 45.1301 21.8369 45.1301 21.9167C45.1301 21.9831 45.0106 22.0496 44.8646 22.0496C44.7186 22.0496 44.5991 22.1028 44.5991 22.1825C44.5991 22.249 44.4266 22.3154 44.2009 22.3154C43.9885 22.3154 43.8027 22.3686 43.8027 22.4484C43.8027 22.5281 43.0992 22.5813 41.9444 22.5813C40.7896 22.5813 40.0861 22.5281 40.0861 22.4484C40.0861 22.3686 39.9136 22.3154 39.6879 22.3154C39.4756 22.3154 39.2897 22.249 39.2897 22.1825C39.2897 22.1028 39.1835 22.0496 39.0508 22.0496C38.9181 22.0496 38.7323 21.93 38.6261 21.7838C38.5199 21.6375 38.3606 21.5179 38.2544 21.5179C38.1615 21.5179 37.8695 21.3052 37.6173 21.0527C37.2058 20.6406 37.1793 20.5609 37.3518 20.3881C37.458 20.2818 37.6438 20.1887 37.75 20.1887C37.8695 20.1887 37.9624 20.1223 37.9624 20.0558C37.9624 19.9761 38.1482 19.9229 38.3606 19.9229C38.5862 19.9229 38.7588 19.8564 38.7588 19.79C38.7588 19.7102 38.8783 19.657 39.0243 19.657C39.1703 19.657 39.2897 19.5906 39.2897 19.5241C39.2897 19.4444 39.4092 19.3912 39.5552 19.3912C39.7012 19.3912 39.8207 19.3247 39.8207 19.2583C39.8207 19.1785 40.0065 19.1254 40.2189 19.1254C40.4445 19.1254 40.6171 19.0589 40.6171 18.9924C40.6171 18.9127 40.7365 18.8595 40.8825 18.8595C41.0286 18.8595 41.148 18.7931 41.148 18.7266C41.148 18.6469 41.3338 18.5937 41.5462 18.5937C41.7719 18.5937 41.9444 18.5272 41.9444 18.4608C41.9444 18.381 42.0639 18.3279 42.2099 18.3279C42.3559 18.3279 42.4754 18.2614 42.4754 18.1949C42.4754 18.1152 42.5948 18.062 42.7408 18.062C42.8868 18.062 43.0063 17.9956 43.0063 17.9291C43.0063 17.8493 43.1921 17.7962 43.4045 17.7962C43.6302 17.7962 43.8027 17.7297 43.8027 17.6633C43.8027 17.5835 43.9222 17.5303 44.0682 17.5303C44.2142 17.5303 44.3336 17.4639 44.3336 17.3974C44.3336 17.3177 44.4531 17.2645 44.5991 17.2645C44.7451 17.2645 44.8646 17.198 44.8646 17.1316C44.8646 17.0518 45.0504 16.9987 45.2628 16.9987C45.4884 16.9987 45.661 16.9322 45.661 16.8657C45.661 16.786 45.7805 16.7328 45.9265 16.7328C46.0725 16.7328 46.1919 16.6664 46.1919 16.5999C46.1919 16.5201 46.3778 16.467 46.5901 16.467C46.8158 16.467 46.9883 16.4005 46.9883 16.3341C46.9883 16.2543 47.1078 16.2011 47.2538 16.2011C47.3998 16.2011 47.5193 16.1347 47.5193 16.0682C47.5193 15.9885 47.6387 15.9353 47.7847 15.9353C47.9308 15.9353 48.0502 15.8688 48.0502 15.8024C48.0502 15.7226 48.236 15.6695 48.4484 15.6695C48.6741 15.6695 48.8466 15.603 48.8466 15.5365C48.8466 15.4568 48.9661 15.4036 49.1121 15.4036C49.2581 15.4036 49.3776 15.3372 49.3776 15.2707C49.3776 15.191 49.497 15.1378 49.643 15.1378C49.789 15.1378 49.9085 15.0713 49.9085 15.0049C49.9085 14.9251 50.028 14.8719 50.174 14.8719C50.3996 14.8719 50.4394 14.7789 50.4394 14.2074C50.4394 13.8352 50.3863 13.5428 50.3067 13.5428C50.2403 13.5428 50.174 13.3035 50.174 13.0111C50.174 12.7187 50.1209 12.4794 50.0412 12.4794C49.9749 12.4794 49.9085 12.3598 49.9085 12.2136C49.9085 12.0673 49.8554 11.9477 49.7758 11.9477C49.7094 11.9477 49.643 11.8281 49.643 11.6819C49.643 11.5357 49.5899 11.416 49.5103 11.416C49.4439 11.416 49.3776 11.3097 49.3776 11.1768C49.3776 11.0439 49.2581 10.8578 49.1121 10.7514C48.9661 10.6451 48.8466 10.4856 48.8466 10.3793C48.8466 10.1533 47.9838 9.28931 47.7582 9.28931C47.652 9.28931 47.4927 9.16969 47.3865 9.02348C47.2804 8.87726 47.1078 8.75764 46.9883 8.75764C46.8689 8.75764 46.6963 8.63801 46.5901 8.4918C46.4839 8.34559 46.2981 8.22596 46.1654 8.22596C46.0326 8.22596 45.9265 8.1595 45.9265 8.09304C45.9265 8.01329 45.7539 7.96012 45.5283 7.96012C45.3159 7.96012 45.1301 7.89366 45.1301 7.8272C45.1301 7.74745 44.9575 7.69428 44.7319 7.69428C44.5195 7.69428 44.3336 7.62782 44.3336 7.56136C44.3336 7.48161 43.8425 7.42844 43.139 7.42844C42.4355 7.42844 41.9444 7.37527 41.9444 7.29552C41.9444 7.21577 41.825 7.1626 41.679 7.1626C41.5329 7.1626 41.4135 7.21577 41.4135 7.29552ZM43.5372 11.0173C43.5372 11.0837 43.6567 11.1502 43.8027 11.1502C43.9487 11.1502 44.0682 11.2034 44.0682 11.2831C44.0682 11.3496 44.1876 11.416 44.3336 11.416C44.4797 11.416 44.5991 11.4692 44.5991 11.549C44.5991 11.6154 44.692 11.6819 44.7982 11.6819C45.0637 11.6819 45.661 12.28 45.661 12.5459C45.661 12.6522 45.7274 12.7452 45.7937 12.7452C45.8734 12.7452 45.9265 12.8649 45.9265 13.0111C45.9265 13.1839 45.8335 13.2769 45.661 13.2769C45.515 13.2769 45.3955 13.3301 45.3955 13.4098C45.3955 13.4763 45.2761 13.5428 45.1301 13.5428C44.984 13.5428 44.8646 13.5959 44.8646 13.6757C44.8646 13.7421 44.692 13.8086 44.4664 13.8086C44.254 13.8086 44.0682 13.8618 44.0682 13.9415C44.0682 14.008 43.9487 14.0744 43.8027 14.0744C43.6567 14.0744 43.5372 14.1276 43.5372 14.2074C43.5372 14.2738 43.4178 14.3403 43.2718 14.3403C43.1258 14.3403 43.0063 14.3934 43.0063 14.4732C43.0063 14.5396 42.8337 14.6061 42.6081 14.6061C42.3957 14.6061 42.2099 14.6593 42.2099 14.739C42.2099 14.8055 42.0904 14.8719 41.9444 14.8719C41.7984 14.8719 41.679 14.9251 41.679 15.0049C41.679 15.0713 41.5595 15.1378 41.4135 15.1378C41.2675 15.1378 41.148 15.191 41.148 15.2707C41.148 15.3372 40.9755 15.4036 40.7498 15.4036C40.5374 15.4036 40.3516 15.4568 40.3516 15.5365C40.3516 15.603 40.2322 15.6695 40.0861 15.6695C39.9401 15.6695 39.8207 15.7226 39.8207 15.8024C39.8207 15.8688 39.7012 15.9353 39.5552 15.9353C39.4092 15.9353 39.2897 15.9885 39.2897 16.0682C39.2897 16.1347 39.1172 16.2011 38.8915 16.2011C38.6792 16.2011 38.4933 16.2543 38.4933 16.3341C38.4933 16.4005 38.3739 16.467 38.2279 16.467C38.0819 16.467 37.9624 16.5201 37.9624 16.5999C37.9624 16.6664 37.8429 16.7328 37.6969 16.7328C37.5509 16.7328 37.4315 16.786 37.4315 16.8657C37.4315 16.9322 37.2589 16.9987 37.0332 16.9987C36.8209 16.9987 36.635 17.0518 36.635 17.1316C36.635 17.198 36.5156 17.2645 36.3696 17.2645C36.2236 17.2645 36.1041 17.3177 36.1041 17.3974C36.1041 17.4639 36.051 17.5303 35.9714 17.5303C35.8917 17.5303 35.8386 17.0917 35.8386 16.467C35.8386 15.8423 35.8917 15.4036 35.9714 15.4036C36.051 15.4036 36.1041 15.1644 36.1041 14.8719C36.1041 14.5795 36.1705 14.3403 36.2368 14.3403C36.3165 14.3403 36.3696 14.2339 36.3696 14.101C36.3696 13.9681 36.489 13.782 36.635 13.6757C36.7811 13.5693 36.9005 13.4098 36.9005 13.3035C36.9005 13.2105 37.1129 12.9313 37.3651 12.6788C37.6173 12.4262 37.896 12.2136 37.9889 12.2136C38.0951 12.2136 38.2544 12.0939 38.3606 11.9477C38.4668 11.8015 38.6526 11.6819 38.7853 11.6819C38.9181 11.6819 39.0243 11.6154 39.0243 11.549C39.0243 11.4692 39.1437 11.416 39.2897 11.416C39.4357 11.416 39.5552 11.3496 39.5552 11.2831C39.5552 11.2034 39.741 11.1502 39.9534 11.1502C40.1791 11.1502 40.3516 11.0837 40.3516 11.0173C40.3516 10.9375 40.9755 10.8844 41.9444 10.8844C42.9134 10.8844 43.5372 10.9375 43.5372 11.0173Z" fill="black"/>
<path d="M29.7323 7.56139C29.7323 7.62785 29.5598 7.69431 29.3341 7.69431C29.1217 7.69431 28.9359 7.74748 28.9359 7.82723C28.9359 7.89369 28.8164 7.96015 28.6704 7.96015C28.5244 7.96015 28.405 8.01332 28.405 8.09307C28.405 8.15953 28.2988 8.22599 28.166 8.22599C28.0333 8.22599 27.8475 8.34562 27.7413 8.49183C27.6351 8.63804 27.4758 8.75767 27.3829 8.75767C27.1705 8.75767 25.7503 10.1533 25.7503 10.3527C25.7503 10.5122 25.4317 10.8843 25.299 10.8843C25.2592 10.8843 25.2193 10.1666 25.2193 9.28934V7.69431H23.2283H21.2373V16.7328V25.7713H23.2283H25.2193V20.9862C25.2193 17.8892 25.2724 16.2011 25.3521 16.2011C25.4317 16.2011 25.4848 15.8954 25.4848 15.5365C25.4848 15.1643 25.5512 14.8719 25.6175 14.8719C25.6972 14.8719 25.7503 14.7523 25.7503 14.6061C25.7503 14.4599 25.8166 14.3402 25.883 14.3402C25.9627 14.3402 26.0157 14.2206 26.0157 14.0744C26.0157 13.9282 26.0821 13.8086 26.1485 13.8086C26.2281 13.8086 26.2812 13.7155 26.2812 13.6092C26.2812 13.2503 27.9669 11.6819 28.3386 11.6819C28.5244 11.6819 28.6704 11.6154 28.6704 11.5489C28.6704 11.4692 28.8563 11.416 29.0686 11.416C29.2943 11.416 29.4668 11.3496 29.4668 11.2831C29.4668 11.2033 29.8252 11.1502 30.2633 11.1502H31.0597V9.28934V7.42847H30.396C30.0376 7.42847 29.7323 7.48164 29.7323 7.56139Z" fill="black"/>
<path d="M57.3413 7.56139C57.3413 7.62785 57.1687 7.69431 56.9431 7.69431C56.7307 7.69431 56.5449 7.74748 56.5449 7.82723C56.5449 7.89369 56.3723 7.96015 56.1467 7.96015C55.9343 7.96015 55.7485 8.01332 55.7485 8.09307C55.7485 8.15953 55.6423 8.22599 55.5096 8.22599C55.3768 8.22599 55.191 8.34562 55.0848 8.49183C54.9786 8.63804 54.8193 8.75767 54.7264 8.75767C54.4742 8.75767 53.3593 9.90077 53.3593 10.1533C53.3593 10.2597 53.3062 10.3527 53.2265 10.3527C53.1602 10.3527 53.0938 10.4723 53.0938 10.6186C53.0938 10.7648 53.0407 10.8844 52.9611 10.8844C52.8947 10.8844 52.8283 11.004 52.8283 11.1502C52.8283 11.2964 52.7752 11.4161 52.6956 11.4161C52.6159 11.4161 52.5629 11.9478 52.5629 12.7453C52.5629 13.5428 52.6159 14.0745 52.6956 14.0745C52.7752 14.0745 52.8283 14.2473 52.8283 14.4466C52.8283 14.6593 52.9345 14.8986 53.0938 15.0049C53.2398 15.1112 53.3593 15.2707 53.3593 15.3771C53.3593 15.4701 53.5053 15.6961 53.6911 15.8689C53.8637 16.055 54.0893 16.2012 54.1822 16.2012C54.2884 16.2012 54.4477 16.3208 54.5539 16.467C54.6601 16.6132 54.8326 16.7328 54.9521 16.7328C55.0715 16.7328 55.2441 16.8525 55.3503 16.9987C55.4565 17.1449 55.6423 17.2645 55.775 17.2645C55.9078 17.2645 56.014 17.3177 56.014 17.3974C56.014 17.4639 56.1998 17.5304 56.4122 17.5304C56.6378 17.5304 56.8104 17.5835 56.8104 17.6633C56.8104 17.7297 56.9962 17.7962 57.2086 17.7962C57.4342 17.7962 57.6068 17.8494 57.6068 17.9291C57.6068 17.9956 57.7926 18.062 58.005 18.062C58.2306 18.062 58.4032 18.1152 58.4032 18.195C58.4032 18.2614 58.589 18.3279 58.8014 18.3279C59.027 18.3279 59.1996 18.3811 59.1996 18.4608C59.1996 18.5273 59.3854 18.5937 59.5978 18.5937C59.8234 18.5937 59.996 18.6469 59.996 18.7266C59.996 18.7931 60.1154 18.8596 60.2615 18.8596C60.4075 18.8596 60.5269 18.9127 60.5269 18.9925C60.5269 19.0589 60.6464 19.1254 60.7924 19.1254C60.9384 19.1254 61.0579 19.1786 61.0579 19.2583C61.0579 19.3248 61.1508 19.3912 61.257 19.3912C61.5755 19.3912 62.1197 20.0027 62.1197 20.3748C62.1197 20.5476 62.1994 20.7337 62.2923 20.7736C62.425 20.8401 62.425 20.8666 62.2923 20.9331C62.1994 20.973 62.1197 21.1591 62.1197 21.3319C62.1197 21.704 61.3233 22.5813 60.9915 22.5813C60.8853 22.5813 60.7924 22.6345 60.7924 22.7142C60.7924 22.794 60.2216 22.8471 59.3323 22.8471C58.443 22.8471 57.8722 22.794 57.8722 22.7142C57.8722 22.6345 57.6333 22.5813 57.3413 22.5813C57.0493 22.5813 56.8104 22.5148 56.8104 22.4484C56.8104 22.3686 56.6909 22.3155 56.5449 22.3155C56.3989 22.3155 56.2794 22.249 56.2794 22.1825C56.2794 22.1028 56.1069 22.0496 55.8812 22.0496C55.6688 22.0496 55.483 21.9832 55.483 21.9167C55.483 21.837 55.3768 21.7838 55.2441 21.7838C55.1114 21.7838 54.9255 21.6642 54.8193 21.5179C54.7132 21.3717 54.5406 21.2521 54.4211 21.2521C54.3017 21.2521 54.1291 21.1325 54.0229 20.9863C53.6911 20.5343 52.8283 20.747 52.8283 21.2787C52.8283 21.385 52.7089 21.5445 52.5629 21.6509C52.4168 21.7572 52.2974 21.9433 52.2974 22.0762C52.2974 22.2091 52.2443 22.3155 52.1646 22.3155C52.0983 22.3155 52.0319 22.4218 52.0319 22.5547C52.0319 22.6876 51.9125 22.8737 51.7664 22.9801C51.6204 23.0864 51.501 23.2459 51.501 23.3522C51.501 23.5782 51.8328 23.9105 52.0585 23.9105C52.1646 23.9105 52.3239 24.0301 52.4301 24.1763C52.5363 24.3225 52.7221 24.4422 52.8549 24.4422C52.9876 24.4422 53.0938 24.4953 53.0938 24.5751C53.0938 24.6416 53.2133 24.708 53.3593 24.708C53.5053 24.708 53.6247 24.7612 53.6247 24.8409C53.6247 24.9074 53.7442 24.9739 53.8902 24.9739C54.0362 24.9739 54.1557 25.027 54.1557 25.1068C54.1557 25.1732 54.3415 25.2397 54.5539 25.2397C54.7795 25.2397 54.9521 25.2929 54.9521 25.3726C54.9521 25.4391 55.1379 25.5055 55.3503 25.5055C55.5759 25.5055 55.7485 25.5587 55.7485 25.6384C55.7485 25.7049 55.9874 25.7714 56.2794 25.7714C56.5714 25.7714 56.8104 25.8245 56.8104 25.9043C56.8104 25.984 57.2086 26.0372 57.7395 26.0372C58.2704 26.0372 58.6686 26.0904 58.6686 26.1701C58.6686 26.2366 58.9739 26.303 59.3323 26.303C59.704 26.303 59.996 26.2366 59.996 26.1701C59.996 26.0904 60.3942 26.0372 60.9251 26.0372C61.4561 26.0372 61.8543 25.984 61.8543 25.9043C61.8543 25.8245 62.0401 25.7714 62.2525 25.7714C62.4781 25.7714 62.6507 25.7049 62.6507 25.6384C62.6507 25.5587 62.7701 25.5055 62.9161 25.5055C63.0622 25.5055 63.1816 25.4391 63.1816 25.3726C63.1816 25.2929 63.2745 25.2397 63.394 25.2397C63.5135 25.2397 63.7789 25.0536 63.978 24.8409C64.1771 24.615 64.4426 24.4422 64.5621 24.4422C64.6815 24.4422 64.7744 24.3491 64.7744 24.2295C64.7744 24.1099 64.9603 23.844 65.1726 23.6447C65.3983 23.4453 65.5708 23.1794 65.5708 23.0598C65.5708 22.9402 65.6372 22.8471 65.7036 22.8471C65.7832 22.8471 65.8363 22.6611 65.8363 22.4484C65.8363 22.2224 65.9027 22.0496 65.969 22.0496C66.0487 22.0496 66.1018 21.4781 66.1018 20.5875C66.1018 19.697 66.0487 19.1254 65.969 19.1254C65.9027 19.1254 65.8363 18.9393 65.8363 18.7266C65.8363 18.5007 65.7832 18.3279 65.7036 18.3279C65.6372 18.3279 65.5708 18.2348 65.5708 18.1285C65.5708 17.876 64.1904 16.467 63.9382 16.467C63.8453 16.467 63.686 16.3474 63.5798 16.2012C63.4736 16.055 63.2878 15.9353 63.1551 15.9353C63.0223 15.9353 62.9161 15.8689 62.9161 15.8024C62.9161 15.7227 62.7436 15.6695 62.5179 15.6695C62.3056 15.6695 62.1197 15.603 62.1197 15.5366C62.1197 15.4568 62.0003 15.4037 61.8543 15.4037C61.7083 15.4037 61.5888 15.3372 61.5888 15.2707C61.5888 15.191 61.4162 15.1378 61.1906 15.1378C60.9782 15.1378 60.7924 15.0714 60.7924 15.0049C60.7924 14.9251 60.5535 14.872 60.2615 14.872C59.9694 14.872 59.7305 14.8055 59.7305 14.7391C59.7305 14.6593 59.4916 14.6061 59.1996 14.6061C58.9076 14.6061 58.6686 14.5397 58.6686 14.4732C58.6686 14.3935 58.4961 14.3403 58.2704 14.3403C58.0581 14.3403 57.8722 14.2738 57.8722 14.2074C57.8722 14.1276 57.7262 14.0745 57.5404 14.0745C57.328 14.0745 57.0227 13.9017 56.744 13.6092C56.3325 13.2105 56.2794 13.0643 56.2794 12.4794C56.2794 11.8946 56.3325 11.7484 56.744 11.3496C57.0227 11.0572 57.328 10.8844 57.5404 10.8844C57.7262 10.8844 57.8722 10.8179 57.8722 10.7515C57.8722 10.6717 58.4961 10.6186 59.465 10.6186C60.434 10.6186 61.0579 10.6717 61.0579 10.7515C61.0579 10.8179 61.2968 10.8844 61.5888 10.8844C61.8808 10.8844 62.1197 10.9376 62.1197 11.0173C62.1197 11.0838 62.2392 11.1502 62.3852 11.1502C62.5312 11.1502 62.6507 11.2034 62.6507 11.2832C62.6507 11.3496 62.7701 11.4161 62.9161 11.4161C63.0622 11.4161 63.1816 11.4692 63.1816 11.549C63.1816 11.6155 63.3011 11.6819 63.4471 11.6819C63.5931 11.6819 63.7126 11.7351 63.7126 11.8148C63.7126 12.0142 64.0975 11.9743 64.3231 11.7617C64.4293 11.6553 64.509 11.4692 64.509 11.3629C64.509 11.2433 64.5753 11.1502 64.6417 11.1502C64.7213 11.1502 64.7744 11.0306 64.7744 10.8844C64.7744 10.7382 64.8408 10.6186 64.9072 10.6186C64.9868 10.6186 65.0399 10.4989 65.0399 10.3527C65.0399 10.2065 65.1063 10.0869 65.1726 10.0869C65.2523 10.0869 65.3054 9.96723 65.3054 9.82102C65.3054 9.67481 65.3717 9.55518 65.4381 9.55518C65.5177 9.55518 65.5708 9.43555 65.5708 9.28934C65.5708 9.11655 65.4779 9.02351 65.3054 9.02351C65.1594 9.02351 65.0399 8.95705 65.0399 8.89058C65.0399 8.81083 64.9204 8.75767 64.7744 8.75767C64.6284 8.75767 64.509 8.69121 64.509 8.62475C64.509 8.545 64.3895 8.49183 64.2435 8.49183C64.0975 8.49183 63.978 8.42537 63.978 8.35891C63.978 8.27916 63.8586 8.22599 63.7126 8.22599C63.5665 8.22599 63.4471 8.15953 63.4471 8.09307C63.4471 8.01332 63.2745 7.96015 63.0489 7.96015C62.8365 7.96015 62.6507 7.89369 62.6507 7.82723C62.6507 7.74748 62.4118 7.69431 62.1197 7.69431C61.8277 7.69431 61.5888 7.62785 61.5888 7.56139C61.5888 7.48164 60.7924 7.42847 59.465 7.42847C58.1377 7.42847 57.3413 7.48164 57.3413 7.56139Z" fill="black"/>
<path d="M86.2772 7.56114C86.2772 7.62759 86.0383 7.69405 85.7463 7.69405C85.4542 7.69405 85.2153 7.74722 85.2153 7.82697C85.2153 7.89343 85.0959 7.95989 84.9499 7.95989C84.8038 7.95989 84.6844 8.01306 84.6844 8.09281C84.6844 8.15927 84.5649 8.22573 84.4189 8.22573C84.2729 8.22573 84.1534 8.2789 84.1534 8.35865C84.1534 8.42511 84.034 8.49157 83.888 8.49157C83.742 8.49157 83.6225 8.54474 83.6225 8.62449C83.6225 8.69095 83.5296 8.75741 83.4234 8.75741C83.1579 8.75741 80.9678 10.9506 80.9678 11.2164C80.9678 11.3228 80.9147 11.4158 80.8351 11.4158C80.7687 11.4158 80.7023 11.5221 80.7023 11.6551C80.7023 11.788 80.5829 11.9741 80.4369 12.0804C80.2776 12.1867 80.1714 12.426 80.1714 12.6387C80.1714 12.838 80.1183 13.0108 80.0387 13.0108C79.9723 13.0108 79.9059 13.1836 79.9059 13.4096C79.9059 13.6223 79.8528 13.8083 79.7732 13.8083C79.6936 13.8083 79.6405 14.1672 79.6405 14.6059C79.6405 15.0445 79.5874 15.4034 79.5077 15.4034C79.4281 15.4034 79.375 15.8952 79.375 16.5997C79.375 17.3041 79.4281 17.7959 79.5077 17.7959C79.5874 17.7959 79.6405 18.1548 79.6405 18.5934C79.6405 19.0321 79.6936 19.391 79.7732 19.391C79.8528 19.391 79.9059 19.6302 79.9059 19.9226C79.9059 20.2151 79.9723 20.4543 80.0387 20.4543C80.1183 20.4543 80.1714 20.5739 80.1714 20.7202C80.1714 20.8664 80.2378 20.986 80.3041 20.986C80.3838 20.986 80.4369 21.1056 80.4369 21.2518C80.4369 21.398 80.5032 21.5177 80.5696 21.5177C80.6493 21.5177 80.7023 21.624 80.7023 21.7569C80.7023 21.8898 80.8218 22.0759 80.9678 22.1823C81.1138 22.2886 81.2333 22.4481 81.2333 22.5412C81.2333 22.7671 83.1712 24.7077 83.3969 24.7077C83.4898 24.7077 83.6491 24.8274 83.7552 24.9736C83.8614 25.1198 84.0473 25.2394 84.18 25.2394C84.3127 25.2394 84.4189 25.2926 84.4189 25.3723C84.4189 25.4388 84.6047 25.5053 84.8171 25.5053C85.0428 25.5053 85.2153 25.5584 85.2153 25.6382C85.2153 25.7046 85.4011 25.7711 85.6135 25.7711C85.8392 25.7711 86.0117 25.8243 86.0117 25.904C86.0117 25.9838 86.7683 26.0369 88.0027 26.0369C89.2372 26.0369 89.9938 25.9838 89.9938 25.904C89.9938 25.8243 90.1796 25.7711 90.392 25.7711C90.6176 25.7711 90.7902 25.7046 90.7902 25.6382C90.7902 25.5584 90.9096 25.5053 91.0556 25.5053C91.2016 25.5053 91.3211 25.4388 91.3211 25.3723C91.3211 25.2926 91.4406 25.2394 91.5866 25.2394C91.7326 25.2394 91.852 25.173 91.852 25.1065C91.852 25.0267 91.945 24.9736 92.0511 24.9736C92.1706 24.9736 92.675 24.5482 93.1794 24.0431C93.6838 23.5248 94.1351 23.1127 94.1749 23.1127C94.2147 23.1127 94.2413 23.7108 94.2413 24.4419V25.7711H96.2323H98.2233V16.7326V7.69405H96.2323H94.2413V9.15617C94.2413 9.95368 94.2014 10.6183 94.1616 10.6183C94.0289 10.6183 93.7103 10.2461 93.7103 10.0866C93.7103 9.88723 92.5555 8.75741 92.3432 8.75741C92.2503 8.75741 92.091 8.63778 91.9848 8.49157C91.8786 8.34536 91.6928 8.22573 91.56 8.22573C91.4273 8.22573 91.3211 8.15927 91.3211 8.09281C91.3211 8.01306 91.2016 7.95989 91.0556 7.95989C90.9096 7.95989 90.7902 7.89343 90.7902 7.82697C90.7902 7.74722 90.6176 7.69405 90.392 7.69405C90.1796 7.69405 89.9938 7.62759 89.9938 7.56114C89.9938 7.48138 89.2903 7.42822 88.1355 7.42822C86.9807 7.42822 86.2772 7.48138 86.2772 7.56114ZM89.9938 10.7512C89.9938 10.8177 90.1796 10.8841 90.392 10.8841C90.6176 10.8841 90.7902 10.9373 90.7902 11.017C90.7902 11.0835 90.9096 11.15 91.0556 11.15C91.2016 11.15 91.3211 11.2031 91.3211 11.2829C91.3211 11.3493 91.414 11.4158 91.5202 11.4158C91.7724 11.4158 93.1794 12.7982 93.1794 13.0507C93.1794 13.1438 93.2989 13.3033 93.4449 13.4096C93.5909 13.5159 93.7103 13.702 93.7103 13.8349C93.7103 13.9679 93.7767 14.0742 93.8431 14.0742C93.9227 14.0742 93.9758 14.3134 93.9758 14.6059C93.9758 14.8983 94.0422 15.1375 94.1085 15.1375C94.1882 15.1375 94.2413 15.7623 94.2413 16.7326C94.2413 17.7029 94.1882 18.3276 94.1085 18.3276C94.0422 18.3276 93.9758 18.5004 93.9758 18.7264C93.9758 18.939 93.9227 19.1251 93.8431 19.1251C93.7767 19.1251 93.7103 19.2979 93.7103 19.4973C93.7103 19.71 93.6041 19.9492 93.4449 20.0556C93.2989 20.1619 93.1794 20.3214 93.1794 20.4144C93.1794 20.667 91.7724 22.0494 91.5202 22.0494C91.414 22.0494 91.3211 22.1025 91.3211 22.1823C91.3211 22.2487 91.2016 22.3152 91.0556 22.3152C90.9096 22.3152 90.7902 22.3684 90.7902 22.4481C90.7902 22.5146 90.4982 22.581 90.1265 22.581C89.7681 22.581 89.4628 22.6342 89.4628 22.7139C89.4628 22.7804 89.2239 22.8469 88.9319 22.8469C88.6399 22.8469 88.4009 22.7804 88.4009 22.7139C88.4009 22.6342 88.1089 22.581 87.7373 22.581C87.3789 22.581 87.0736 22.5146 87.0736 22.4481C87.0736 22.3684 86.9541 22.3152 86.8081 22.3152C86.6621 22.3152 86.5427 22.2487 86.5427 22.1823C86.5427 22.1025 86.4232 22.0494 86.2772 22.0494C86.1312 22.0494 86.0117 21.9829 86.0117 21.9164C86.0117 21.8367 85.9188 21.7835 85.8126 21.7835C85.5472 21.7835 84.1534 20.3879 84.1534 20.122C84.1534 20.0157 84.1003 19.9226 84.0207 19.9226C83.9543 19.9226 83.888 19.803 83.888 19.6568C83.888 19.5106 83.8349 19.391 83.7552 19.391C83.6889 19.391 83.6225 19.2713 83.6225 19.1251C83.6225 18.9789 83.5694 18.8593 83.4898 18.8593C83.4234 18.8593 83.357 18.5536 83.357 18.1947C83.357 17.8225 83.3039 17.5301 83.2243 17.5301C83.1579 17.5301 83.0916 17.2244 83.0916 16.8655C83.0916 16.4933 83.1579 16.2009 83.2243 16.2009C83.3039 16.2009 83.357 15.8952 83.357 15.5363C83.357 15.1641 83.4234 14.8717 83.4898 14.8717C83.5694 14.8717 83.6225 14.6856 83.6225 14.4729C83.6225 14.247 83.6889 14.0742 83.7552 14.0742C83.8349 14.0742 83.888 13.9546 83.888 13.8083C83.888 13.6621 83.9543 13.5425 84.0207 13.5425C84.1003 13.5425 84.1534 13.4495 84.1534 13.3431C84.1534 13.0773 85.8126 11.4158 86.0781 11.4158C86.1843 11.4158 86.2772 11.3493 86.2772 11.2829C86.2772 11.2031 86.3967 11.15 86.5427 11.15C86.6887 11.15 86.8081 11.0835 86.8081 11.017C86.8081 10.9373 86.994 10.8841 87.2063 10.8841C87.432 10.8841 87.6045 10.8177 87.6045 10.7512C87.6045 10.6714 88.0957 10.6183 88.7992 10.6183C89.5026 10.6183 89.9938 10.6714 89.9938 10.7512Z" fill="black"/>
<path d="M148.663 7.56114C148.663 7.62759 148.49 7.69405 148.265 7.69405C148.052 7.69405 147.866 7.74722 147.866 7.82697C147.866 7.89343 147.694 7.95989 147.468 7.95989C147.256 7.95989 147.07 8.01306 147.07 8.09281C147.07 8.15927 146.951 8.22573 146.804 8.22573C146.658 8.22573 146.539 8.2789 146.539 8.35865C146.539 8.42511 146.42 8.49157 146.274 8.49157C146.128 8.49157 146.008 8.54474 146.008 8.62449C146.008 8.69095 145.915 8.75741 145.796 8.75741C145.69 8.75741 145.358 8.99666 145.079 9.28909C144.8 9.58151 144.495 9.82077 144.415 9.82077C144.216 9.82077 143.884 10.1531 143.884 10.3524C143.884 10.4322 143.645 10.7379 143.353 11.017C143.061 11.2962 142.822 11.6285 142.822 11.7348C142.822 11.8544 142.769 11.9475 142.69 11.9475C142.623 11.9475 142.557 12.0671 142.557 12.2133C142.557 12.3595 142.504 12.4792 142.424 12.4792C142.358 12.4792 142.292 12.5988 142.292 12.745C142.292 12.8912 142.238 13.0108 142.159 13.0108C142.092 13.0108 142.026 13.1836 142.026 13.4096C142.026 13.6223 141.973 13.8083 141.893 13.8083C141.827 13.8083 141.761 13.9811 141.761 14.2071C141.761 14.4198 141.707 14.6059 141.628 14.6059C141.548 14.6059 141.495 15.4034 141.495 16.7326C141.495 18.0618 141.548 18.8593 141.628 18.8593C141.707 18.8593 141.761 19.0321 141.761 19.258C141.761 19.4707 141.827 19.6568 141.893 19.6568C141.973 19.6568 142.026 19.8296 142.026 20.0556C142.026 20.2682 142.092 20.4543 142.159 20.4543C142.238 20.4543 142.292 20.5739 142.292 20.7202C142.292 20.8664 142.358 20.986 142.424 20.986C142.504 20.986 142.557 21.1056 142.557 21.2518C142.557 21.398 142.623 21.5177 142.69 21.5177C142.769 21.5177 142.822 21.6107 142.822 21.7303C142.822 21.85 143.008 22.1158 143.221 22.3152C143.446 22.5146 143.619 22.7538 143.619 22.8336C143.619 23.033 144.495 23.9102 144.694 23.9102C144.774 23.9102 145.013 24.083 145.212 24.309C145.411 24.5217 145.676 24.7077 145.796 24.7077C145.915 24.7077 146.008 24.7609 146.008 24.8407C146.008 24.9071 146.128 24.9736 146.274 24.9736C146.42 24.9736 146.539 25.0267 146.539 25.1065C146.539 25.173 146.658 25.2394 146.804 25.2394C146.951 25.2394 147.07 25.2926 147.07 25.3723C147.07 25.4388 147.189 25.5053 147.335 25.5053C147.481 25.5053 147.601 25.5584 147.601 25.6382C147.601 25.7046 147.84 25.7711 148.132 25.7711C148.424 25.7711 148.663 25.8243 148.663 25.904C148.663 25.9838 149.552 26.0369 151.052 26.0369C152.552 26.0369 153.441 25.9838 153.441 25.904C153.441 25.8243 153.627 25.7711 153.839 25.7711C154.065 25.7711 154.238 25.7046 154.238 25.6382C154.238 25.5584 154.423 25.5053 154.636 25.5053C154.861 25.5053 155.034 25.4388 155.034 25.3723C155.034 25.2926 155.154 25.2394 155.3 25.2394C155.446 25.2394 155.565 25.173 155.565 25.1065C155.565 25.0267 155.684 24.9736 155.83 24.9736C155.976 24.9736 156.096 24.9071 156.096 24.8407C156.096 24.7609 156.189 24.7077 156.295 24.7077C156.547 24.7077 159.016 22.262 159.016 22.0095C159.016 21.9164 159.136 21.7569 159.282 21.6506C159.428 21.5443 159.547 21.3582 159.547 21.2253C159.547 21.0923 159.613 20.986 159.68 20.986C159.759 20.986 159.812 20.7999 159.812 20.5872C159.812 20.3613 159.879 20.1885 159.945 20.1885C160.025 20.1885 160.078 20.0024 160.078 19.7897C160.078 19.5638 160.144 19.391 160.211 19.391C160.29 19.391 160.343 19.1517 160.343 18.8593C160.343 18.5669 160.41 18.3276 160.476 18.3276C160.556 18.3276 160.609 17.7029 160.609 16.7326C160.609 15.7623 160.556 15.1375 160.476 15.1375C160.41 15.1375 160.343 14.8983 160.343 14.6059C160.343 14.3134 160.29 14.0742 160.211 14.0742C160.144 14.0742 160.078 13.8881 160.078 13.6754C160.078 13.4495 160.025 13.2767 159.945 13.2767C159.879 13.2767 159.812 13.157 159.812 13.0108C159.812 12.8646 159.759 12.745 159.68 12.745C159.613 12.745 159.547 12.6254 159.547 12.4792C159.547 12.3329 159.494 12.2133 159.414 12.2133C159.348 12.2133 159.282 12.0937 159.282 11.9475C159.282 11.8013 159.228 11.6816 159.149 11.6816C159.082 11.6816 159.016 11.5886 159.016 11.4823C159.016 11.2297 156.839 9.02325 156.587 9.02325C156.494 9.02325 156.335 8.90362 156.229 8.75741C156.122 8.6112 155.937 8.49157 155.804 8.49157C155.671 8.49157 155.565 8.42511 155.565 8.35865C155.565 8.2789 155.446 8.22573 155.3 8.22573C155.154 8.22573 155.034 8.15927 155.034 8.09281C155.034 8.01306 154.861 7.95989 154.636 7.95989C154.423 7.95989 154.238 7.89343 154.238 7.82697C154.238 7.74722 153.999 7.69405 153.707 7.69405C153.415 7.69405 153.176 7.62759 153.176 7.56114C153.176 7.48138 152.34 7.42822 150.919 7.42822C149.499 7.42822 148.663 7.48138 148.663 7.56114ZM151.583 10.7512C151.583 10.8177 151.888 10.8841 152.247 10.8841C152.618 10.8841 152.91 10.9373 152.91 11.017C152.91 11.0835 153.03 11.15 153.176 11.15C153.322 11.15 153.441 11.2031 153.441 11.2829C153.441 11.3493 153.561 11.4158 153.707 11.4158C153.853 11.4158 153.972 11.469 153.972 11.5487C153.972 11.6152 154.065 11.6816 154.171 11.6816C154.437 11.6816 155.83 13.0773 155.83 13.3431C155.83 13.4495 155.897 13.5425 155.963 13.5425C156.043 13.5425 156.096 13.6621 156.096 13.8083C156.096 13.9546 156.162 14.0742 156.229 14.0742C156.308 14.0742 156.361 14.1938 156.361 14.34C156.361 14.4862 156.428 14.6059 156.494 14.6059C156.574 14.6059 156.627 14.8983 156.627 15.2705C156.627 15.6293 156.693 15.9351 156.76 15.9351C156.839 15.9351 156.892 16.2275 156.892 16.5997C156.892 16.9585 156.839 17.2643 156.76 17.2643C156.68 17.2643 156.627 17.6231 156.627 18.0618C156.627 18.5004 156.574 18.8593 156.494 18.8593C156.428 18.8593 156.361 18.9789 156.361 19.1251C156.361 19.2713 156.308 19.391 156.229 19.391C156.162 19.391 156.096 19.5106 156.096 19.6568C156.096 19.803 156.043 19.9226 155.963 19.9226C155.897 19.9226 155.83 20.0157 155.83 20.122C155.83 20.3879 154.437 21.7835 154.171 21.7835C154.065 21.7835 153.972 21.8367 153.972 21.9164C153.972 21.9829 153.853 22.0494 153.707 22.0494C153.561 22.0494 153.441 22.1025 153.441 22.1823C153.441 22.2487 153.322 22.3152 153.176 22.3152C153.03 22.3152 152.91 22.3684 152.91 22.4481C152.91 22.5146 152.618 22.581 152.247 22.581C151.888 22.581 151.583 22.6342 151.583 22.7139C151.583 22.7804 151.291 22.8469 150.919 22.8469C150.561 22.8469 150.256 22.7804 150.256 22.7139C150.256 22.6342 150.017 22.581 149.725 22.581C149.433 22.581 149.194 22.5146 149.194 22.4481C149.194 22.3684 149.021 22.3152 148.796 22.3152C148.583 22.3152 148.397 22.2487 148.397 22.1823C148.397 22.1025 148.291 22.0494 148.158 22.0494C148.026 22.0494 147.84 21.9297 147.734 21.7835C147.627 21.6373 147.468 21.5177 147.362 21.5177C147.15 21.5177 146.539 20.9195 146.539 20.7069C146.539 20.6271 146.366 20.3879 146.141 20.1885C145.928 19.9891 145.743 19.7233 145.743 19.6036C145.743 19.484 145.69 19.391 145.61 19.391C145.544 19.391 145.477 19.1517 145.477 18.8593C145.477 18.5669 145.424 18.3276 145.344 18.3276C145.265 18.3276 145.212 17.7029 145.212 16.7326C145.212 15.7623 145.265 15.1375 145.344 15.1375C145.424 15.1375 145.477 14.8983 145.477 14.6059C145.477 14.3134 145.544 14.0742 145.61 14.0742C145.69 14.0742 145.743 13.9679 145.743 13.8349C145.743 13.702 145.862 13.5159 146.008 13.4096C146.154 13.3033 146.274 13.1438 146.274 13.0374C146.274 12.8115 147.136 11.9475 147.362 11.9475C147.468 11.9475 147.627 11.8278 147.734 11.6816C147.84 11.5354 148.026 11.4158 148.158 11.4158C148.291 11.4158 148.397 11.3493 148.397 11.2829C148.397 11.2031 148.517 11.15 148.663 11.15C148.809 11.15 148.928 11.0835 148.928 11.017C148.928 10.9373 149.167 10.8841 149.459 10.8841C149.751 10.8841 149.99 10.8177 149.99 10.7512C149.99 10.6714 150.349 10.6183 150.787 10.6183C151.225 10.6183 151.583 10.6714 151.583 10.7512Z" fill="black"/>
<path d="M170.962 7.56139C170.962 7.62785 170.79 7.6943 170.564 7.6943C170.352 7.6943 170.166 7.74747 170.166 7.82722C170.166 7.89368 170.046 7.96014 169.9 7.96014C169.754 7.96014 169.635 8.01331 169.635 8.09306C169.635 8.15952 169.542 8.22598 169.422 8.22598C169.303 8.22598 169.037 8.39878 168.838 8.62474C168.639 8.83741 168.4 9.0235 168.307 9.0235C168.108 9.0235 167.776 9.3558 167.776 9.55518C167.776 9.70139 166.927 10.6185 166.781 10.6185C166.741 10.6185 166.715 9.95393 166.715 9.15642V7.6943H164.856H162.998V20.0558V32.4173H164.856H166.715V27.7651C166.715 25.1998 166.741 23.1129 166.794 23.1129C166.834 23.1129 167.219 23.4718 167.644 23.9105C168.069 24.3491 168.507 24.708 168.599 24.708C168.706 24.708 168.865 24.8276 168.971 24.9738C169.077 25.12 169.263 25.2397 169.396 25.2397C169.529 25.2397 169.635 25.2928 169.635 25.3726C169.635 25.439 169.821 25.5055 170.033 25.5055C170.259 25.5055 170.431 25.5587 170.431 25.6384C170.431 25.7049 170.617 25.7713 170.829 25.7713C171.055 25.7713 171.228 25.8245 171.228 25.9043C171.228 25.984 171.931 26.0372 173.086 26.0372C174.241 26.0372 174.944 25.984 174.944 25.9043C174.944 25.8245 175.13 25.7713 175.342 25.7713C175.568 25.7713 175.741 25.7049 175.741 25.6384C175.741 25.5587 175.86 25.5055 176.006 25.5055C176.152 25.5055 176.272 25.439 176.272 25.3726C176.272 25.2928 176.391 25.2397 176.537 25.2397C176.683 25.2397 176.802 25.1732 176.802 25.1067C176.802 25.027 176.922 24.9738 177.068 24.9738C177.214 24.9738 177.333 24.9074 177.333 24.8409C177.333 24.7611 177.426 24.708 177.532 24.708C177.785 24.708 179.988 22.5281 179.988 22.2756C179.988 22.1825 180.108 22.023 180.254 21.9167C180.4 21.8103 180.519 21.6242 180.519 21.4913C180.519 21.3584 180.585 21.2521 180.652 21.2521C180.731 21.2521 180.784 21.1324 180.784 20.9862C180.784 20.84 180.851 20.7204 180.917 20.7204C180.997 20.7204 181.05 20.5343 181.05 20.3216C181.05 20.0957 181.116 19.9229 181.183 19.9229C181.262 19.9229 181.315 19.6172 181.315 19.2583C181.315 18.8861 181.382 18.5937 181.448 18.5937C181.528 18.5937 181.581 17.836 181.581 16.5999C181.581 15.3637 181.528 14.6061 181.448 14.6061C181.382 14.6061 181.315 14.3668 181.315 14.0744C181.315 13.782 181.262 13.5427 181.183 13.5427C181.116 13.5427 181.05 13.3567 181.05 13.144C181.05 12.918 180.997 12.7452 180.917 12.7452C180.851 12.7452 180.784 12.6256 180.784 12.4794C180.784 12.3332 180.731 12.2136 180.652 12.2136C180.585 12.2136 180.519 12.0939 180.519 11.9477C180.519 11.8015 180.466 11.6819 180.386 11.6819C180.32 11.6819 180.254 11.5888 180.254 11.4825C180.254 11.23 177.811 8.75766 177.559 8.75766C177.466 8.75766 177.307 8.63803 177.201 8.49182C177.094 8.33232 176.856 8.22598 176.643 8.22598C176.444 8.22598 176.272 8.15952 176.272 8.09306C176.272 8.01331 176.152 7.96014 176.006 7.96014C175.86 7.96014 175.741 7.89368 175.741 7.82722C175.741 7.74747 175.568 7.6943 175.342 7.6943C175.13 7.6943 174.944 7.62785 174.944 7.56139C174.944 7.48163 174.188 7.42847 172.953 7.42847C171.719 7.42847 170.962 7.48163 170.962 7.56139ZM173.617 10.7514C173.617 10.8179 173.803 10.8844 174.015 10.8844C174.241 10.8844 174.413 10.9375 174.413 11.0173C174.413 11.0837 174.506 11.1502 174.626 11.1502C174.745 11.1502 175.011 11.323 175.21 11.549C175.409 11.7616 175.648 11.9477 175.741 11.9477C175.94 11.9477 176.272 12.28 176.272 12.4794C176.272 12.5724 176.457 12.8117 176.67 13.0111C176.895 13.2105 177.068 13.4763 177.068 13.5959C177.068 13.7155 177.134 13.8086 177.201 13.8086C177.28 13.8086 177.333 13.9814 177.333 14.2073C177.333 14.42 177.4 14.6061 177.466 14.6061C177.546 14.6061 177.599 14.8454 177.599 15.1378C177.599 15.4302 177.665 15.6695 177.732 15.6695C177.811 15.6695 177.864 16.1081 177.864 16.7328C177.864 17.3575 177.811 17.7962 177.732 17.7962C177.665 17.7962 177.599 18.0354 177.599 18.3278C177.599 18.6203 177.546 18.8595 177.466 18.8595C177.4 18.8595 177.333 19.0323 177.333 19.2317C177.333 19.4444 177.227 19.6836 177.068 19.79C176.922 19.8963 176.802 20.0558 176.802 20.1488C176.802 20.3748 175.395 21.7838 175.17 21.7838C175.077 21.7838 174.918 21.9034 174.811 22.0496C174.705 22.2091 174.466 22.3154 174.254 22.3154C174.055 22.3154 173.882 22.3686 173.882 22.4483C173.882 22.5281 173.524 22.5813 173.086 22.5813C172.648 22.5813 172.289 22.6344 172.289 22.7142C172.289 22.7806 172.17 22.8471 172.024 22.8471C171.878 22.8471 171.759 22.7806 171.759 22.7142C171.759 22.6344 171.467 22.5813 171.095 22.5813C170.736 22.5813 170.431 22.5148 170.431 22.4483C170.431 22.3686 170.259 22.3154 170.06 22.3154C169.847 22.3154 169.608 22.2091 169.502 22.0496C169.396 21.9034 169.237 21.7838 169.144 21.7838C168.918 21.7838 167.776 20.6406 167.776 20.4147C167.776 20.3216 167.657 20.1621 167.511 20.0558C167.352 19.9495 167.246 19.7102 167.246 19.4975C167.246 19.2982 167.192 19.1254 167.113 19.1254C167.046 19.1254 166.98 18.9393 166.98 18.7266C166.98 18.5006 166.927 18.3278 166.847 18.3278C166.768 18.3278 166.715 17.7031 166.715 16.7328C166.715 15.7625 166.768 15.1378 166.847 15.1378C166.927 15.1378 166.98 14.8985 166.98 14.6061C166.98 14.3137 167.046 14.0744 167.113 14.0744C167.192 14.0744 167.246 13.9548 167.246 13.8086C167.246 13.6624 167.312 13.5427 167.378 13.5427C167.458 13.5427 167.511 13.4497 167.511 13.3434C167.511 13.0775 169.17 11.416 169.436 11.416C169.542 11.416 169.635 11.3496 169.635 11.2831C169.635 11.2034 169.754 11.1502 169.9 11.1502C170.046 11.1502 170.166 11.0837 170.166 11.0173C170.166 10.9375 170.352 10.8844 170.564 10.8844C170.79 10.8844 170.962 10.8179 170.962 10.7514C170.962 10.6717 171.493 10.6185 172.289 10.6185C173.086 10.6185 173.617 10.6717 173.617 10.7514Z" fill="black"/>
</g>
<defs>
<clipPath id="clip0_1_392">
<rect width="182" height="33" fill="white" transform="translate(0 0.250732)"/>
</clipPath>
</defs>
</svg>
