<svg width="158" height="30" viewBox="0 0 158 30" fill="none" xmlns="http://www.w3.org/2000/svg">
<g clip-path="url(#clip0_1_409)">
<path fill-rule="evenodd" clip-rule="evenodd" d="M27.4756 5.03C32.9621 5.07728 38.1149 8.62284 38.1149 14.816V28.0061C38.1149 28.4316 37.8287 28.7152 37.3992 28.7152H35.6342C33.526 28.7152 31.8174 27.0219 31.8174 24.9333V15.5564C31.8174 14.4321 31.5312 10.8289 27.0782 10.8289C22.6252 10.8289 22.3231 14.5321 22.3231 15.5564V28.0846C22.3231 28.1674 22.3067 28.2493 22.2747 28.3258C22.2427 28.4023 22.1959 28.4718 22.1368 28.5303C22.0778 28.5888 22.0077 28.6353 21.9305 28.6669C21.8534 28.6986 21.7707 28.7149 21.6872 28.7149H16.9277C16.8442 28.7149 16.7615 28.6986 16.6844 28.6669C16.6072 28.6353 16.5371 28.5888 16.4781 28.5303C16.419 28.4718 16.3722 28.4023 16.3402 28.3258C16.3082 28.2493 16.2918 28.1674 16.2918 28.0846V15.5564C16.2918 14.5321 15.9894 10.8289 11.5367 10.8289C7.0837 10.8289 6.79724 14.4321 6.79724 15.5564V28.0846C6.79724 28.1674 6.78079 28.2493 6.74883 28.3258C6.71687 28.4023 6.67003 28.4718 6.61097 28.5303C6.55192 28.5888 6.48182 28.6353 6.40466 28.6669C6.32751 28.6986 6.24481 28.7149 6.1613 28.7149H1.21572C0.786172 28.7152 0.5 28.4316 0.5 28.0061V14.816C0.5 8.62313 5.65255 5.07756 11.1393 5.03C14.7768 4.99849 17.4995 6.0792 19.3076 8.27158C21.1154 6.0792 23.8383 4.99849 27.4756 5.03ZM52.9739 29.2507C46.2483 29.2507 40.8581 23.9127 40.8581 17.2049C40.8581 10.4496 46.2483 5.11166 52.9739 5.11166C59.6995 5.11166 65.0897 10.4496 65.0897 17.2049C65.0897 23.9127 59.6995 29.2507 52.9739 29.2507ZM52.9739 23.4838C56.3071 23.4838 59.0211 20.8399 59.0211 17.2049C59.0211 13.5224 56.3071 10.8788 52.9739 10.8788C49.593 10.8788 46.9264 13.5224 46.9264 17.2049C46.9264 20.8399 49.5933 23.4838 52.9739 23.4838ZM86.2037 6.27346V10.1477C86.2037 10.4783 86.1083 10.8092 85.8701 11.0453L74.0434 23.613H85.4886C85.9178 23.613 86.2037 23.8967 86.2037 24.3216V28.0067C86.2037 28.4319 85.9175 28.7155 85.4886 28.7155H67.1764C66.7472 28.7155 66.4613 28.4319 66.4613 28.0067V24.1325C66.4613 23.8016 66.5567 23.4709 66.7949 23.2346L78.6693 10.6673H67.1764C66.7472 10.6673 66.4613 10.3837 66.4613 9.95884V6.27346C66.4613 5.84828 66.7475 5.56492 67.1764 5.56492H85.4886C85.9178 5.56492 86.2037 5.84856 86.2037 6.27346ZM110.934 16.5551C110.934 18.3991 110.695 19.3449 109.264 19.3449H94.2827C94.9508 22.324 97.3364 24.0265 100.962 24.0265C102.823 24.0265 104.302 23.5534 105.924 22.4186C106.354 22.1349 106.64 22.1349 106.974 22.4658L109.073 24.4992C109.407 24.8301 109.407 25.1611 109.026 25.5392C106.783 27.762 103.73 29.086 100.342 29.086C93.0424 29.086 88.0326 23.7425 88.0326 17.0754C88.0326 10.4078 93.0421 5.11166 99.8174 5.11166C106.592 5.11166 110.934 10.408 110.934 16.5551ZM99.8903 10.4668C97.0343 10.4668 94.797 12.1678 94.2255 15.2865H105.365C104.888 12.1678 102.651 10.4668 99.8903 10.4668ZM114.89 4.28851L119.725 0.323213C119.772 0.28502 119.828 0.260739 119.888 0.253224C119.948 0.24571 120.009 0.255275 120.063 0.280795C120.118 0.306314 120.164 0.346728 120.196 0.397282C120.228 0.447837 120.245 0.506431 120.244 0.566174V28.0852C120.244 28.433 119.96 28.7152 119.61 28.7152H114.602C114.518 28.7151 114.436 28.6987 114.359 28.667C114.282 28.6352 114.212 28.5888 114.153 28.5302C114.094 28.4717 114.048 28.4022 114.016 28.3258C113.984 28.2494 113.968 28.1675 113.968 28.0849V6.23277C113.968 5.86145 114.05 5.49469 114.21 5.15866C114.369 4.82263 114.601 4.52532 114.89 4.28851ZM124.408 4.28851L129.243 0.323213C129.29 0.28502 129.346 0.260739 129.406 0.253224C129.466 0.24571 129.527 0.255275 129.581 0.280795C129.635 0.306314 129.682 0.346728 129.714 0.397282C129.746 0.447837 129.763 0.506431 129.762 0.566174V28.0852C129.762 28.433 129.478 28.7152 129.128 28.7152H124.12C124.037 28.7151 123.954 28.6987 123.877 28.667C123.8 28.6352 123.73 28.5888 123.671 28.5302C123.613 28.4717 123.566 28.4022 123.534 28.3258C123.502 28.2494 123.486 28.1675 123.486 28.0849V6.23277C123.486 5.86145 123.569 5.49469 123.728 5.15866C123.887 4.82263 124.12 4.52532 124.408 4.28851ZM144.538 29.2507C137.812 29.2507 132.422 23.9127 132.422 17.2049C132.422 10.4496 137.812 5.11166 144.538 5.11166C151.264 5.11166 156.654 10.4496 156.654 17.2049C156.654 23.9127 151.264 29.2507 144.538 29.2507ZM144.538 23.4838C147.871 23.4838 150.586 20.8399 150.586 17.2049C150.586 13.5224 147.871 10.8788 144.538 10.8788C141.157 10.8788 138.491 13.5224 138.491 17.2049C138.491 20.8399 141.157 23.4838 144.538 23.4838Z" fill="#04151F"/>
</g>
<defs>
<clipPath id="clip0_1_409">
<rect width="157" height="29" fill="white" transform="translate(0.5 0.250732)"/>
</clipPath>
</defs>
</svg>
