<svg width="65" height="26" viewBox="0 0 65 26" fill="none" xmlns="http://www.w3.org/2000/svg">
<g clip-path="url(#clip0_27_138)">
<path d="M55.796 4.44774C53.7186 4.44774 51.8376 5.30645 50.4656 6.64155L52.018 4.87055H46.9579L42.983 9.59111V4.87055H38.8701V14.9662H31.4962V13.4232H35.8914V10.6197H31.4962V9.07742H37.4522V4.8017H31.4962L11.1394 4.83364L7.86301 14.6845H4.97863V0.662476H0.299927V19.1719H6.28017L4.16965 25.6244H8.39069L10.5012 19.1719H20.5251L16.5845 9.07723H20.5785V19.1719H24.9737V9.07723H27.3368L27.3402 19.1394L42.9804 19.137L42.9768 14.3121L47.0524 19.1719H51.9644L50.4783 17.3618C51.851 18.6876 53.727 19.4947 55.796 19.4947C59.995 19.4947 63.3986 16.123 63.3986 11.9707C63.3984 7.81871 59.9948 4.44774 55.796 4.44774ZM12.3715 14.6845L13.5248 11.1278L14.7212 14.6845H12.3715ZM49.4315 16.0726L45.6543 11.8675L49.5971 7.61455C48.7141 8.84251 48.0257 10.3427 48.0257 11.9655C48.0257 13.4807 48.649 14.8918 49.4315 16.0726ZM55.796 15.7351C53.6911 15.7351 51.9849 14.0462 51.9849 11.9657C51.9849 9.88356 53.6911 8.1951 55.796 8.1951C57.9015 8.1951 59.6071 9.88356 59.6071 11.9657C59.6071 14.0462 57.9015 15.7351 55.796 15.7351Z" fill="#626270"/>
<path d="M13.7902 22.1201H14.5717V24.9278H16.3402V25.6304H13.7902V22.1201Z" fill="#626270"/>
<path d="M21.9874 21.2769H23.5608V21.7302H21.9874V21.2769ZM22.3823 22.0915H23.165V25.601H22.3823V22.0915Z" fill="#626270"/>
<path d="M29.007 25.0149L30.959 22.7689H29.0672V22.0916H31.9624V22.6783L30.0102 24.9247H31.9624V25.6008H29.007V25.0149Z" fill="#626270"/>
<path d="M38.5841 22.0916H37.8038V25.601H38.5841V22.0916Z" fill="#626270"/>
<path d="M44.3282 22.0916H45.0491L46.7102 24.2525V22.0916H47.4813V25.6008H46.8178L45.0987 23.3687V25.6008H44.3282V22.0916Z" fill="#626270"/>
<path d="M51.923 23.8558V23.8457C51.923 22.8483 52.7095 22.031 53.7832 22.031C54.4222 22.031 54.8072 22.2011 55.1778 22.5124L54.6862 23.0983C54.4126 22.8735 54.1684 22.7437 53.7585 22.7437C53.1907 22.7437 52.738 23.2389 52.738 23.8366V23.8459C52.738 24.4879 53.1853 24.9596 53.8135 24.9596C54.097 24.9596 54.351 24.8893 54.5492 24.7484V24.2483H53.7627V23.581H55.304V25.106C54.9392 25.4101 54.4378 25.6625 53.7882 25.6625C52.6829 25.6621 51.923 24.8937 51.923 23.8558Z" fill="#626270"/>
<path d="M59.921 25.0897L60.3817 24.5433C60.7013 24.803 61.0369 24.9689 61.4424 24.9689C61.7608 24.9689 61.954 24.8433 61.954 24.6395V24.6286C61.954 24.4326 61.8321 24.333 61.2388 24.1818C60.5251 24.0009 60.0624 23.8056 60.0624 23.1092V23.0983C60.0624 22.462 60.5807 22.042 61.3044 22.042C61.8226 22.042 62.2642 22.2013 62.6228 22.488L62.2185 23.0697C61.9041 22.8535 61.5943 22.7237 61.2958 22.7237C60.9966 22.7237 60.8393 22.8586 60.8393 23.0286V23.0396C60.8393 23.2701 60.9902 23.3449 61.6039 23.4999C62.3236 23.686 62.7299 23.9423 62.7299 24.5532V24.5625C62.7299 25.261 62.1916 25.6514 61.4278 25.6514C60.8903 25.6512 60.3469 25.4669 59.921 25.0897Z" fill="#626270"/>
</g>
<defs>
<clipPath id="clip0_27_138">
<rect width="64" height="25" fill="white" transform="translate(0.299927 0.662476)"/>
</clipPath>
</defs>
</svg>
