<svg width="72" height="20" viewBox="0 0 72 20" fill="none" xmlns="http://www.w3.org/2000/svg">
<g clip-path="url(#clip0_27_127)">
<mask id="mask0_27_127" style="mask-type:luminance" maskUnits="userSpaceOnUse" x="0" y="0" width="72" height="20">
<path d="M71.2982 0.662476H0.47998V19.6625H71.2982V0.662476Z" fill="white"/>
</mask>
<g mask="url(#mask0_27_127)">
<path fill-rule="evenodd" clip-rule="evenodd" d="M25.9634 1.19769H23.0412C22.2848 1.19769 21.6714 1.82571 21.6714 2.60013V19.3949H24.5936C25.35 19.3949 25.9634 18.7669 25.9634 17.9925V1.19769Z" fill="#626270"/>
<path fill-rule="evenodd" clip-rule="evenodd" d="M20.0623 1.19769H16.0764C15.5584 1.19769 15.0843 1.49064 14.8498 1.95584L10.2711 11.0438L5.69249 1.95584C5.4584 1.49064 4.98431 1.19769 4.46634 1.19769H0.47998L9.56202 19.2241C9.85655 19.8086 10.6862 19.8086 10.9807 19.2241L20.0623 1.19769Z" fill="#626270"/>
<path fill-rule="evenodd" clip-rule="evenodd" d="M40.6766 15.1573H35.4898L37.9193 10.2887H37.9174L41.9901 2.12541C42.2022 1.70043 41.8977 1.19769 41.4286 1.19769H28.9146V4.03221C28.9146 4.80726 29.5334 5.43532 30.2971 5.43532H35.4833L33.0541 10.3043H33.0564L28.9837 18.4677C28.7717 18.8922 29.0759 19.3949 29.545 19.3949H42.0588V16.5609C42.0588 15.7858 41.4399 15.1573 40.6766 15.1573Z" fill="#626270"/>
<path fill-rule="evenodd" clip-rule="evenodd" d="M46.0825 19.3949H49.0047C49.7611 19.3949 50.3744 18.7669 50.3744 17.9925V1.19769H47.4523C46.6959 1.19769 46.0825 1.82571 46.0825 2.60013V19.3949Z" fill="#626270"/>
<path fill-rule="evenodd" clip-rule="evenodd" d="M51.7163 19.1273H55.7023C56.2207 19.1273 56.6947 18.8343 56.9288 18.3691L61.5074 9.28117L66.086 18.3691C66.3206 18.8343 66.7947 19.1273 67.3126 19.1273H71.2985L62.2171 1.10086C61.9225 0.516349 61.0929 0.516349 60.7983 1.10086L51.7163 19.1273Z" fill="#626270"/>
</g>
</g>
<defs>
<clipPath id="clip0_27_127">
<rect width="71" height="19" fill="white" transform="translate(0.47998 0.662476)"/>
</clipPath>
</defs>
</svg>
