<svg width="173" height="44" viewBox="0 0 173 44" fill="none" xmlns="http://www.w3.org/2000/svg">
<path fill-rule="evenodd" clip-rule="evenodd" d="M17.2735 6C16.8463 6 16.5 6.34632 16.5 6.77352V14.3298C16.5 15.0198 17.3351 15.3645 17.8219 14.8753L25.2283 7.43143C25.715 6.94224 26.5501 7.28693 26.5501 7.977V14.3298C26.5501 15.0198 27.3853 15.3645 27.872 14.8753L35.3902 7.3191C35.8755 6.83125 35.53 6 34.8418 6H26.6525H26.5501H17.2735ZM25.2273 17.4315C25.714 16.9423 26.5492 17.287 26.5492 17.977V24.3298C26.5492 25.0199 27.3843 25.3646 27.871 24.8754L35.2774 17.4315C35.7641 16.9423 36.5993 17.287 36.5993 17.977V25.5333C36.5993 25.9605 36.253 26.3068 35.8258 26.3068L26.5492 26.3068L26.4468 26.3068L18.2575 26.3068C17.5693 26.3068 17.2237 25.4756 17.7091 24.9877L25.2273 17.4315Z" fill="#FFDD2D"/>
<path d="M45.5196 21.8817C45.0924 21.8817 44.7461 21.5354 44.7461 21.1082V19.1717C44.7461 18.7445 45.0924 18.3982 45.5196 18.3982H57.4046C57.8318 18.3982 58.1782 18.7445 58.1782 19.1717V21.1082C58.1782 21.5354 57.8318 21.8817 57.4046 21.8817H45.5196ZM40.9115 26.3067C40.3447 26.3067 39.9703 25.7172 40.2114 25.2042L49.025 6.44652C49.1525 6.17519 49.4253 6.00195 49.7251 6.00195H53.264C53.5627 6.00195 53.8347 6.17398 53.9628 6.44387L62.8634 25.2016C63.1069 25.7148 62.7327 26.3067 62.1646 26.3067H59.3345C59.0316 26.3067 58.7565 26.1299 58.6308 25.8543L50.9068 8.92554C50.7114 8.49731 51.0244 8.01046 51.4951 8.01046C51.965 8.01046 52.278 8.49581 52.0841 8.92387L44.4183 25.8523C44.2931 26.1289 44.0174 26.3067 43.7137 26.3067H40.9115Z" fill="white"/>
<path d="M72.3081 21.8817C71.8809 21.8817 71.5346 21.5354 71.5346 21.1082V19.1717C71.5346 18.7445 71.8809 18.3982 72.3081 18.3982H84.1932C84.6204 18.3982 84.9667 18.7445 84.9667 19.1717V21.1082C84.9667 21.5354 84.6204 21.8817 84.1932 21.8817H72.3081ZM67.7 26.3067C67.1332 26.3067 66.7589 25.7172 66.9999 25.2042L75.8135 6.44652C75.941 6.17519 76.2138 6.00195 76.5136 6.00195H80.0525C80.3512 6.00195 80.6233 6.17398 80.7513 6.44387L89.6519 25.2016C89.8955 25.7148 89.5212 26.3067 88.9531 26.3067H86.123C85.8201 26.3067 85.5451 26.1299 85.4193 25.8543L77.6953 8.92554C77.4999 8.49731 77.8129 8.01046 78.2836 8.01046C78.7535 8.01046 79.0665 8.49581 78.8727 8.92387L71.2069 25.8523C71.0816 26.1289 70.806 26.3067 70.5022 26.3067H67.7Z" fill="white"/>
<path d="M108.526 23.4028C108.756 23.7634 108.497 24.2354 108.069 24.2354C107.641 24.2354 107.382 23.7622 107.613 23.4017L118.525 6.35837C118.668 6.13629 118.913 6.00195 119.177 6.00195H122.154C122.581 6.00195 122.928 6.34827 122.928 6.77547V25.5332C122.928 25.9604 122.581 26.3067 122.154 26.3067H119.527C119.1 26.3067 118.754 25.9604 118.754 25.5332V12.0718C118.754 11.8132 119.001 11.6262 119.25 11.6962C119.502 11.7672 119.614 12.0625 119.472 12.2832L110.666 25.9521C110.523 26.1731 110.278 26.3067 110.015 26.3067H106.182C105.919 26.3067 105.675 26.1737 105.532 25.9534L96.7273 12.3458C96.5847 12.1254 96.6963 11.8299 96.9491 11.7588C97.1977 11.6889 97.4444 11.8757 97.4444 12.134V25.5332C97.4444 25.9604 97.0981 26.3067 96.6709 26.3067H94.0439C93.6167 26.3067 93.2704 25.9604 93.2704 25.5332V6.77547C93.2704 6.34827 93.6167 6.00195 94.0439 6.00195H97.0199C97.2843 6.00195 97.5304 6.13697 97.6724 6.35997L108.526 23.4028Z" fill="white"/>
<path d="M126.022 6.77547C126.022 6.34827 126.368 6.00195 126.795 6.00195H129.422C129.849 6.00195 130.196 6.34827 130.196 6.77547V25.5332C130.196 25.9604 129.849 26.3067 129.422 26.3067H126.795C126.368 26.3067 126.022 25.9604 126.022 25.5332V6.77547Z" fill="white"/>
<path d="M153.364 21.6588C153.607 21.8976 153.525 22.3067 153.21 22.4344C152.899 22.5602 152.559 22.3314 152.559 21.9959V6.77547C152.559 6.34827 152.906 6.00195 153.333 6.00195H155.96C156.387 6.00195 156.733 6.34827 156.733 6.77547V25.5332C156.733 25.9604 156.387 26.3067 155.96 26.3067H152.874C152.672 26.3067 152.478 26.2276 152.334 26.0865L136.662 10.7744C136.418 10.5365 136.499 10.127 136.815 9.99925C137.125 9.87365 137.464 10.102 137.464 10.4368V25.5332C137.464 25.9604 137.118 26.3067 136.69 26.3067H134.063C133.636 26.3067 133.29 25.9604 133.29 25.5332V6.77547C133.29 6.34827 133.636 6.00195 134.063 6.00195H137.147C137.35 6.00195 137.545 6.08182 137.69 6.22431L153.364 21.6588Z" fill="white"/>
<path d="M59.6026 37.2127C59.6648 37.3104 59.5946 37.4384 59.4787 37.4384C59.3626 37.4384 59.2924 37.3101 59.355 37.2124L62.2614 32.6731C62.3325 32.562 62.4553 32.4949 62.5872 32.4949H63.1205C63.3341 32.4949 63.5072 32.668 63.5072 32.8816V37.6132C63.5072 37.8268 63.3341 38 63.1205 38H62.7623C62.5487 38 62.3756 37.8268 62.3756 37.6132V34.1406C62.3756 34.0705 62.4425 34.0197 62.51 34.0387C62.5785 34.058 62.6088 34.138 62.5703 34.1979L60.2349 37.8227C60.1637 37.9332 60.0413 38 59.9098 38H59.0633C58.9321 38 58.8099 37.9335 58.7386 37.8233L56.4037 34.2148C56.365 34.1551 56.3953 34.075 56.4638 34.0557C56.5312 34.0367 56.5981 34.0874 56.5981 34.1574V37.6132C56.5981 37.8268 56.4249 38 56.2113 38H55.8532C55.6396 38 55.4664 37.8268 55.4664 37.6132V32.8816C55.4664 32.668 55.6396 32.4949 55.8532 32.4949H56.3859C56.5181 32.4949 56.6411 32.5624 56.7121 32.6739L59.6026 37.2127Z" fill="white"/>
<path d="M70.1448 36.8003C69.9312 36.8003 69.7581 36.6271 69.7581 36.4135V36.2426C69.7581 36.029 69.9312 35.8558 70.1448 35.8558H73.0131C73.2267 35.8558 73.3998 36.0289 73.3998 36.2426V36.4135C73.3998 36.6271 73.2267 36.8003 73.0131 36.8003H70.1448ZM68.9972 38C68.7138 38 68.5266 37.7052 68.6471 37.4487L70.8704 32.7172C70.9341 32.5815 71.0705 32.4949 71.2204 32.4949H71.9555C72.1049 32.4949 72.2409 32.5809 72.3049 32.7158L74.5501 37.4474C74.6718 37.704 74.4847 38 74.2007 38H73.8271C73.6757 38 73.5382 37.9116 73.4753 37.7738L71.4284 33.2875C71.3754 33.1714 71.4602 33.0394 71.5879 33.0394C71.7153 33.0394 71.8001 33.171 71.7476 33.2871L69.7163 37.7728C69.6536 37.9111 69.5158 38 69.364 38H68.9972Z" fill="white"/>
<path d="M80.0836 38C79.87 38 79.6968 37.8268 79.6968 37.6132V32.8816C79.6968 32.668 79.87 32.4949 80.0836 32.4949H83.4322C83.8576 32.4949 84.2263 32.5544 84.5383 32.6736C84.856 32.787 85.1028 32.9685 85.2786 33.2181C85.4544 33.462 85.5424 33.7768 85.5424 34.1626C85.5424 34.4235 85.497 34.6447 85.4062 34.8262C85.3155 35.0078 85.1878 35.1552 85.0233 35.2687C84.8645 35.3821 84.6801 35.4701 84.4703 35.5325C84.2633 35.5884 84.0426 35.625 83.808 35.6424C83.8015 35.6428 83.7951 35.6414 83.7894 35.6381C83.76 35.6213 83.7723 35.5768 83.8062 35.5779C84.1462 35.5884 84.43 35.6215 84.6575 35.6771C84.9127 35.7338 85.1028 35.8416 85.2275 36.0004C85.358 36.1536 85.4232 36.3833 85.4232 36.6896V37.6132C85.4232 37.8268 85.2501 38 85.0365 38H84.6783C84.4647 38 84.2916 37.8268 84.2916 37.6132V36.7662C84.2916 36.5563 84.2547 36.3947 84.181 36.2812C84.1072 36.1621 83.9739 36.0799 83.7811 36.0345C83.5939 35.9891 83.3216 35.9664 82.9642 35.9664H81.2153C81.0017 35.9664 80.8285 36.1396 80.8285 36.3532V37.6132C80.8285 37.8268 80.6553 38 80.4417 38H80.0836ZM80.8285 34.6947C80.8285 34.9083 81.0017 35.0815 81.2153 35.0815H83.4322C83.7499 35.0815 83.9909 35.0049 84.1554 34.8518C84.3256 34.6986 84.4107 34.4916 84.4107 34.2306C84.4107 33.9811 84.3256 33.791 84.1554 33.6606C83.9909 33.5301 83.7499 33.4649 83.4322 33.4649H81.2153C81.0017 33.4649 80.8285 33.638 80.8285 33.8516V34.6947Z" fill="white"/>
<path d="M93.3449 35.1685C93.2742 35.2289 93.1652 35.1798 93.1635 35.0869C93.1618 34.9922 93.2726 34.9398 93.3447 35.0012L96.0683 37.3187C96.3423 37.5518 96.1774 38 95.8177 38H95.3808C95.287 38 95.1965 37.9659 95.1259 37.9041L92.2633 35.3957C92.0884 35.2424 92.0874 34.9705 92.2611 34.8159L94.7595 32.5927C94.8303 32.5297 94.9218 32.4949 95.0166 32.4949H95.4287C95.7882 32.4949 95.9532 32.9425 95.6798 33.1758L93.3449 35.1685ZM90.8108 32.8816C90.8108 32.668 90.9839 32.4949 91.1975 32.4949H91.5557C91.7693 32.4949 91.9424 32.668 91.9424 32.8816V37.6132C91.9424 37.8268 91.7693 38 91.5557 38H91.1975C90.9839 38 90.8108 37.8268 90.8108 37.6132V32.8816Z" fill="white"/>
<path d="M103.343 35.7026C103.13 35.7026 102.957 35.8758 102.957 36.0894V36.6688C102.957 36.8824 103.13 37.0555 103.343 37.0555H106.816C107.029 37.0555 107.203 37.2287 107.203 37.4423V37.6132C107.203 37.8268 107.029 38 106.816 38H102.212C101.998 38 101.825 37.8268 101.825 37.6132V32.8816C101.825 32.668 101.998 32.4949 102.212 32.4949H106.807C107.021 32.4949 107.194 32.668 107.194 32.8816V33.0526C107.194 33.2662 107.021 33.4393 106.807 33.4393H103.343C103.13 33.4393 102.957 33.6125 102.957 33.8261V34.4225C102.957 34.6361 103.13 34.8092 103.343 34.8092H106.041C106.255 34.8092 106.428 34.9824 106.428 35.196V35.3159C106.428 35.5295 106.255 35.7026 106.041 35.7026H103.343Z" fill="white"/>
<path d="M111.964 32.8816C111.964 32.668 112.137 32.4949 112.35 32.4949H117.38C117.593 32.4949 117.767 32.668 117.767 32.8816V33.0526C117.767 33.2662 117.593 33.4393 117.38 33.4393H112.35C112.137 33.4393 111.964 33.2662 111.964 33.0526V32.8816ZM114.304 33.707C114.304 33.4934 114.477 33.3202 114.69 33.3202H115.048C115.262 33.3202 115.435 33.4934 115.435 33.707V37.6132C115.435 37.8268 115.262 38 115.048 38H114.69C114.477 38 114.304 37.8268 114.304 37.6132V33.707Z" fill="white"/>
</svg>
