<svg width="36" height="36" viewBox="0 0 36 36" fill="none" xmlns="http://www.w3.org/2000/svg">
<path fill-rule="evenodd" clip-rule="evenodd" d="M7.49961 7.49961C10.1855 4.81377 13.8998 3.15015 18.0001 3.15015C22.1005 3.15015 25.8148 4.81377 28.5007 7.49961C31.1865 10.1855 32.8501 13.8998 32.8501 18.0001C32.8501 22.1005 31.1865 25.8148 28.5007 28.5007C25.8148 31.1865 22.1005 32.8501 18.0001 32.8501C13.8998 32.8501 10.1855 31.1865 7.49961 28.5007C4.81377 25.8148 3.15015 22.1005 3.15015 18.0001C3.15015 13.8998 4.81377 10.1855 7.49961 7.49961ZM18.0001 5.85015C14.6446 5.85015 11.609 7.2086 9.4088 9.4088C7.2086 11.609 5.85015 14.6446 5.85015 18.0001C5.85015 21.3556 7.2086 24.3913 9.4088 26.5915C11.609 28.7917 14.6446 30.1501 18.0001 30.1501C21.3556 30.1501 24.3913 28.7917 26.5915 26.5915C28.7917 24.3913 30.1501 21.3556 30.1501 18.0001C30.1501 14.6446 28.7917 11.609 26.5915 9.4088C24.3913 7.2086 21.3556 5.85015 18.0001 5.85015Z" fill="#FFDD2D"/>
<path fill-rule="evenodd" clip-rule="evenodd" d="M11.7423 11.7423C13.3423 10.1422 15.5567 9.15015 18.0001 9.15015C20.4436 9.15015 22.658 10.1422 24.258 11.7423C25.8581 13.3423 26.8501 15.5567 26.8501 18.0001C26.8501 20.4436 25.8581 22.658 24.258 24.258C22.658 25.8581 20.4436 26.8501 18.0001 26.8501C15.5567 26.8501 13.3423 25.8581 11.7423 24.258C10.1422 22.658 9.15015 20.4436 9.15015 18.0001C9.15015 15.5567 10.1422 13.3423 11.7423 11.7423ZM18.0001 11.8501C16.3015 11.8501 14.7658 12.537 13.6514 13.6514C12.537 14.7658 11.8501 16.3015 11.8501 18.0001C11.8501 19.6988 12.537 21.2344 13.6514 22.3489C14.7658 23.4633 16.3015 24.1501 18.0001 24.1501C19.6988 24.1501 21.2344 23.4633 22.3489 22.3489C23.4633 21.2344 24.1501 19.6988 24.1501 18.0001C24.1501 16.3015 23.4633 14.7658 22.3489 13.6514C21.2344 12.537 19.6988 11.8501 18.0001 11.8501Z" fill="#FFDD2D"/>
<path fill-rule="evenodd" clip-rule="evenodd" d="M20.0154 15.9849C19.5011 15.4706 18.7868 15.1501 18.0001 15.1501C17.2135 15.1501 16.4992 15.4706 15.9849 15.9849C15.4706 16.4992 15.1501 17.2135 15.1501 18.0001C15.1501 18.7868 15.4706 19.5011 15.9849 20.0154C16.4992 20.5297 17.2135 20.8501 18.0001 20.8501C18.7868 20.8501 19.5011 20.5297 20.0154 20.0154C20.5297 19.5011 20.8501 18.7868 20.8501 18.0001C20.8501 17.2135 20.5297 16.4992 20.0154 15.9849Z" fill="#FFDD2D"/>
</svg>
