<svg width="51" height="26" viewBox="0 0 51 26" fill="none" xmlns="http://www.w3.org/2000/svg">
<g clip-path="url(#clip0_27_123)">
<path d="M50.6699 0.662476H0.669922V25.6625H50.6699V0.662476Z" fill="#626270"/>
<path d="M9.67052 13.2792C9.67052 11.8942 10.3301 11.137 11.3356 11.137C11.7056 11.137 12.0113 11.2498 12.3974 11.4431C12.5342 11.5076 12.6468 11.4834 12.8238 11.0565L12.9525 10.7586C13.0812 10.4041 13.0892 10.2511 12.9284 10.1785C12.4698 9.8967 11.7539 9.73575 11.1265 9.73575C9.3568 9.73575 8.02148 11.1451 8.02148 13.2792C8.02148 15.4136 9.36484 16.8389 11.1265 16.8389C11.7539 16.8389 12.4859 16.6618 12.9444 16.388C13.0973 16.3155 13.0892 16.1624 12.9605 15.8082L12.8318 15.4941C12.6468 15.0591 12.5422 15.035 12.3974 15.1075C12.0194 15.3008 11.6976 15.4136 11.3195 15.4136C10.3301 15.4136 9.67052 14.6646 9.67052 13.2792ZM30.746 16.5088C30.746 16.7021 30.6736 16.7505 30.1507 16.7505H30.0945C29.5475 16.7505 29.4671 16.7181 29.4188 16.5813C29.3946 16.5088 29.3705 16.388 29.3544 16.2994C29.0648 16.6538 28.7108 16.8389 28.1719 16.8389C26.8688 16.8389 26.0806 15.8645 26.0806 14.3101C26.0806 12.627 26.9492 11.6282 28.2523 11.6282C28.6144 11.6282 28.9522 11.7412 29.2097 11.9505V9.7679C29.2097 9.61494 29.2256 9.55844 29.9496 9.55844H29.9979C30.6736 9.55844 30.746 9.61494 30.746 9.7679V16.5088ZM29.2097 13.1827C29.0165 12.9894 28.7833 12.8766 28.5097 12.8766C27.9306 12.8766 27.6571 13.384 27.6571 14.3183C27.6571 14.8497 27.7698 15.1961 27.9306 15.3732C28.0753 15.5505 28.3006 15.6149 28.5097 15.6149C28.7833 15.6149 28.9925 15.5506 29.089 15.4216C29.1695 15.3249 29.2097 15.18 29.2097 14.8417V13.1827ZM38.5809 16.549C38.5809 16.6941 38.5166 16.7505 37.8328 16.7505H37.7845C37.0606 16.7505 37.0365 16.686 37.0365 16.549V9.7759C37.0365 9.62275 37.0527 9.56662 37.7845 9.56662H37.8328C38.5085 9.56662 38.5809 9.62275 38.5809 9.7759V16.549ZM33.1753 14.745C33.2638 15.3571 33.6419 15.655 34.2291 15.655C34.6956 15.655 35.122 15.5505 35.6207 15.3249C35.7253 15.2846 35.8219 15.3249 35.9264 15.6714L36.0068 15.8645C36.1195 16.2189 36.1115 16.2994 35.9908 16.3639C35.3956 16.7021 34.7761 16.8389 34.0844 16.8389C32.556 16.8389 31.5987 15.8968 31.5987 14.2862C31.5987 12.7235 32.4756 11.6364 33.9959 11.6364C35.4841 11.6364 36.2562 12.7075 36.2562 14.1975C36.2562 14.6887 36.216 14.745 36.039 14.745H33.1753ZM34.7199 13.7866C34.6956 13.2712 34.4946 12.8203 33.9797 12.8203C33.5374 12.8203 33.2236 13.1504 33.1592 13.7866H34.7199ZM40.9781 14.745C41.0666 15.3571 41.4366 15.655 42.0319 15.655C42.4903 15.655 42.9248 15.5505 43.4235 15.3249C43.5281 15.2846 43.6166 15.3249 43.7292 15.6714L43.8015 15.8645C43.9143 16.2189 43.9062 16.2994 43.7934 16.3639C43.1982 16.7021 42.5708 16.8389 41.8791 16.8389C40.3507 16.8389 39.3934 15.8968 39.3934 14.2862C39.3934 12.7235 40.2703 11.6364 41.7825 11.6364C43.2788 11.6364 44.0509 12.7075 44.0509 14.1975C44.0509 14.6887 44.0026 14.745 43.8337 14.745H40.9781ZM42.5225 13.7866C42.4984 13.2712 42.2812 12.8203 41.7825 12.8203C41.34 12.8203 41.0183 13.1504 40.962 13.7866H42.5225ZM23.6269 13.223C23.4661 13.0136 23.2248 12.8926 22.9593 12.8848C22.3883 12.8848 22.1066 13.3922 22.1066 14.3021C22.1066 15.0753 22.3079 15.639 22.9434 15.639C23.1846 15.639 23.3535 15.5827 23.4742 15.4537C23.5867 15.3331 23.635 15.172 23.635 14.8095C23.6269 14.8175 23.6269 13.223 23.6269 13.223ZM25.1796 16.5088C25.1796 16.7021 25.1072 16.7505 24.5843 16.7505H24.512C23.965 16.7505 23.8844 16.7181 23.8363 16.5813C23.812 16.5088 23.788 16.388 23.7718 16.2994C23.4823 16.6538 23.1283 16.8389 22.5893 16.8389C21.3345 16.8389 20.538 15.8888 20.538 14.3343C20.538 12.6028 21.5275 11.6364 22.7019 11.6364C23.1846 11.6364 23.5948 11.8456 23.8201 12.1196L23.8442 11.9021C23.8603 11.7973 23.8844 11.725 24.4556 11.725H24.5199C25.1072 11.725 25.1876 11.7652 25.1876 11.9263L25.1796 16.5088ZM17.98 10.2753C18.5592 10.2753 18.5914 10.2833 18.5914 10.4686V11.733H19.5889C19.7257 11.733 19.7659 11.7572 19.7659 12.2324V12.2967C19.7659 12.772 19.7257 12.7961 19.5889 12.7961H18.5914V15.0671C18.5914 15.4537 18.6557 15.647 19.0017 15.647C19.1866 15.647 19.3396 15.6067 19.4924 15.5585C19.6532 15.4861 19.7177 15.5745 19.8302 15.9693L19.8544 16.0659C19.9751 16.5007 19.9349 16.541 19.7819 16.6137C19.4683 16.7584 19.0579 16.8389 18.6718 16.8389C17.4411 16.8389 17.0952 16.2189 17.0952 15.1396V12.8041H16.516C16.3712 12.8041 16.339 12.78 16.339 12.3047V12.2404C16.339 11.7652 16.3712 11.7412 16.516 11.7412H17.1676C17.2319 11.3384 17.3606 10.7664 17.433 10.4766C17.4893 10.3075 17.5135 10.2753 17.98 10.2753ZM14.7624 11.733C15.4381 11.733 15.4944 11.7973 15.4944 11.9425V16.541C15.4944 16.6941 15.4301 16.7425 14.7624 16.7425H14.7222C13.9821 16.7425 13.958 16.6941 13.958 16.541V11.9425C13.958 11.7893 13.9741 11.733 14.7222 11.733H14.7624ZM14.7222 9.48596C15.2048 9.48596 15.5588 9.86455 15.5588 10.2995C15.5588 10.7262 15.2048 11.1048 14.7222 11.1048C14.2395 11.1048 13.8776 10.7262 13.8776 10.2995C13.8856 9.87254 14.2395 9.48596 14.7222 9.48596Z" fill="white"/>
</g>
<defs>
<clipPath id="clip0_27_123">
<rect width="50" height="25" fill="white" transform="translate(0.669922 0.662476)"/>
</clipPath>
</defs>
</svg>
