<svg width="27" height="25" viewBox="0 0 27 25" fill="none" xmlns="http://www.w3.org/2000/svg">
<g clip-path="url(#clip0_27_107)">
<path d="M23.6923 4.03733L22.6926 3.58021C22.5151 3.49905 22.3671 3.36876 22.2678 3.20622C22.1685 3.04368 22.1226 2.85639 22.1359 2.66858L22.1947 1.84902C22.1945 1.76813 22.1744 1.68842 22.136 1.61633C22.0976 1.54424 22.0421 1.48178 21.9739 1.43399C21.9056 1.3862 21.8266 1.35442 21.7432 1.34122C21.6597 1.32801 21.5742 1.33374 21.4935 1.35795C20.5375 1.64727 20.1359 2.42671 18.7322 2.77002L20.1149 6.93683C22.3451 6.81571 23.6412 5.41208 23.8858 4.97015C24.082 4.61277 24.0485 4.2539 23.6923 4.03733Z" fill="#3AACFF"/>
<path d="M4.91823 1.35795C4.83753 1.33374 4.75202 1.32801 4.66859 1.34122C4.58515 1.35442 4.50613 1.3862 4.4379 1.43399C4.36966 1.48178 4.31413 1.54424 4.27576 1.61633C4.2374 1.68842 4.21729 1.76813 4.21705 1.84902L4.27586 2.66858C4.28916 2.85639 4.24321 3.04369 4.14396 3.20622C4.0447 3.36876 3.89671 3.49905 3.71915 3.58021L2.71807 4.0379C2.36228 4.25502 2.32877 4.6139 2.52636 4.97071C2.77099 5.41265 4.06709 6.81627 6.29725 6.9374L7.67999 2.77058C6.27588 2.42708 5.87403 1.64727 4.91823 1.35795Z" fill="#3AACFF"/>
<path d="M16.8811 2.01175C15.7614 2.0305 13.9566 3.6505 13.5095 5.58868V8.28868C13.5095 8.28868 19.2334 8.74168 19.5772 8.28868C19.921 7.83568 20.1149 6.93756 20.1149 6.93756C20.8809 4.44831 18.6461 1.98137 16.8811 2.01175Z" fill="#9ED6FF"/>
<path d="M9.53099 2.01175C7.76678 1.98137 5.53212 4.44925 6.29661 6.93681C6.29661 6.93681 6.47891 7.87 6.93232 8.19812C7.38572 8.52625 12.8902 8.34381 12.8902 8.34381V5.58887C12.4437 3.65068 10.6507 2.03162 9.53099 2.01175Z" fill="#9ED6FF"/>
<path d="M14.3971 6.52933C14.3452 6.5293 14.2942 6.51611 14.2493 6.49111C14.2044 6.46612 14.1673 6.4302 14.1416 6.38702C14.116 6.34383 14.1028 6.29492 14.1033 6.24526C14.1038 6.1956 14.1181 6.14695 14.1446 6.10427C14.2518 5.93214 14.4677 5.84946 14.7409 5.74464C15.0193 5.63777 15.366 5.50464 15.5397 5.28133C15.5863 5.22148 15.6558 5.18179 15.733 5.17097C15.8102 5.16016 15.8887 5.17912 15.9512 5.22368C16.0138 5.26823 16.0553 5.33474 16.0666 5.40856C16.0779 5.48239 16.0581 5.55748 16.0115 5.61733C15.7387 5.96777 15.2884 6.14046 14.9597 6.26664C14.849 6.30434 14.742 6.35127 14.64 6.40689C14.6129 6.44466 14.5767 6.47555 14.5344 6.49689C14.4921 6.51823 14.4449 6.52936 14.3971 6.52933Z" fill="#0D3F48"/>
<path d="M12.0141 6.52948C11.9663 6.52954 11.9191 6.51842 11.8767 6.49709C11.8344 6.47575 11.7981 6.44484 11.7711 6.40704C11.6691 6.35138 11.5622 6.30444 11.4516 6.26679C11.1228 6.14061 10.6726 5.96792 10.3997 5.61748C10.3531 5.55758 10.3333 5.48244 10.3447 5.40858C10.356 5.33472 10.3976 5.26819 10.4602 5.22364C10.5228 5.17908 10.6014 5.16014 10.6786 5.17099C10.7558 5.18184 10.8253 5.22158 10.8719 5.28148C11.0456 5.50479 11.3924 5.63773 11.6707 5.74479C11.944 5.84961 12.1598 5.93229 12.267 6.10442C12.2936 6.1471 12.3078 6.19575 12.3083 6.24541C12.3089 6.29507 12.2956 6.34398 12.27 6.38717C12.2443 6.43035 12.2072 6.46627 12.1623 6.49126C12.1175 6.51626 12.0661 6.52945 12.0141 6.52948Z" fill="#0D3F48"/>
<path d="M11.9431 6.93649H14.4756C14.739 5.1063 11.6667 5.09093 11.9431 6.93649Z" fill="#72C4FF"/>
<path d="M22.6576 7.89847H3.75334C3.17858 7.89847 2.71265 8.34415 2.71265 8.89391V23.1835C2.71265 23.7333 3.17858 24.1789 3.75334 24.1789H22.6576C23.2323 24.1789 23.6982 23.7333 23.6982 23.1835V8.89391C23.6982 8.34415 23.2323 7.89847 22.6576 7.89847Z" fill="#0D3F48"/>
<path d="M15.8354 12.7208H10.5779V24.1789H15.8354V12.7208Z" fill="#AEDDFF"/>
<path d="M23.933 6.74921H2.47599C1.90123 6.74921 1.4353 7.19488 1.4353 7.74464V11.726C1.4353 12.2758 1.90123 12.7215 2.47599 12.7215H23.933C24.5078 12.7215 24.9737 12.2758 24.9737 11.726V7.74464C24.9737 7.19488 24.5078 6.74921 23.933 6.74921Z" fill="#3AADFF"/>
</g>
<defs>
<clipPath id="clip0_27_107">
<rect width="26" height="24" fill="white" transform="translate(0.659912 0.662476)"/>
</clipPath>
</defs>
</svg>
