<svg width="366" height="243" viewBox="0 0 366 243" fill="none" xmlns="http://www.w3.org/2000/svg">
<rect x="0.5" y="0.5" width="365" height="53" rx="7.5" fill="#FEFEFE"/>
<circle cx="20" cy="27" r="8" fill="#FFDD2D"/>
<circle cx="20" cy="27" r="4" fill="white"/>
<path d="M46.9067 22.2222C44.3613 22.2222 42.7744 20.3813 42.7744 17.4233C42.7744 14.459 44.355 12.6182 46.9004 12.6182C48.9189 12.6182 50.4805 13.9067 50.709 15.7412H49.2935C49.0269 14.605 48.1064 13.8813 46.9004 13.8813C45.2563 13.8813 44.228 15.2461 44.228 17.4233C44.228 19.6006 45.2563 20.959 46.9067 20.959C48.1191 20.959 49.0396 20.3052 49.2935 19.2642H50.709C50.4551 21.0479 48.9507 22.2222 46.9067 22.2222ZM52.4863 22V12.4023H53.8384V16.2046H53.9463C54.2827 15.4365 55.0127 14.9795 56.0537 14.9795C57.5264 14.9795 58.4341 15.9126 58.4341 17.5439V22H57.0693V17.8677C57.0693 16.7314 56.5552 16.1665 55.5903 16.1665C54.4731 16.1665 53.8511 16.8838 53.8511 17.9629V22H52.4863ZM64.8896 20.1528H66.2036C65.9053 21.3716 64.7881 22.1333 63.2075 22.1333C61.2271 22.1333 60.0146 20.7686 60.0146 18.5659C60.0146 16.376 61.2524 14.9731 63.2012 14.9731C65.1245 14.9731 66.2861 16.2871 66.2861 18.4453V18.915H61.4048V18.9785C61.4492 20.229 62.1538 21.0161 63.2456 21.0161C64.0708 21.0161 64.6357 20.7114 64.8896 20.1528ZM63.1948 16.084C62.1855 16.084 61.481 16.8203 61.4048 17.9312H64.896C64.8643 16.814 64.2041 16.084 63.1948 16.084ZM73.7764 17.3218H72.4497C72.291 16.6489 71.7324 16.1348 70.8184 16.1348C69.6758 16.1348 68.9775 17.0361 68.9775 18.5278C68.9775 20.0513 69.6821 20.9717 70.8184 20.9717C71.6816 20.9717 72.272 20.5654 72.4497 19.8164H73.7764C73.5986 21.1748 72.5322 22.1333 70.8247 22.1333C68.8125 22.1333 67.5811 20.7622 67.5811 18.5278C67.5811 16.3379 68.8062 14.9731 70.8184 14.9731C72.5513 14.9731 73.5986 15.9824 73.7764 17.3218ZM76.874 18.0137L79.6162 15.1064H81.2285L78.3848 18.0581L81.4189 22H79.7432L77.3691 18.915L76.7661 19.4927V22H75.4014V12.4023H76.7661V18.0137H76.874ZM83.3804 13.875C82.9043 13.875 82.5171 13.4878 82.5171 13.0181C82.5171 12.542 82.9043 12.1548 83.3804 12.1548C83.8564 12.1548 84.2437 12.542 84.2437 13.0181C84.2437 13.4878 83.8564 13.875 83.3804 13.875ZM82.7012 22V15.1064H84.0596V22H82.7012ZM86.0654 22V15.1064H87.3794V16.1982H87.481C87.8174 15.4365 88.5029 14.9731 89.5439 14.9731C91.0864 14.9731 91.937 15.8936 91.937 17.5376V22H90.5723V17.8613C90.5723 16.7188 90.0898 16.1602 89.0806 16.1602C88.0713 16.1602 87.4302 16.8457 87.4302 17.9565V22H86.0654ZM96.7739 24.6343C95.0474 24.6343 93.9302 23.8662 93.7842 22.7046H95.1807C95.2949 23.2251 95.8726 23.5552 96.793 23.5552C97.9292 23.5552 98.6021 22.9966 98.6021 22.0635V20.7368H98.5005C98.0815 21.4858 97.3198 21.8984 96.3677 21.8984C94.603 21.8984 93.5112 20.5337 93.5112 18.4644C93.5112 16.376 94.6157 14.9858 96.3804 14.9858C97.3325 14.9858 98.1641 15.4556 98.5513 16.2046H98.6592V15.1064H99.9668V22.0698C99.9668 23.6377 98.729 24.6343 96.7739 24.6343ZM96.7549 20.7686C97.9229 20.7686 98.6274 19.8735 98.6274 18.4644C98.6274 17.0552 97.9165 16.1538 96.7549 16.1538C95.5806 16.1538 94.9204 17.0552 94.9204 18.4644C94.9204 19.8735 95.5806 20.7686 96.7549 20.7686Z" fill="black"/>
<path d="M48.8618 40.7622V42H43.1489V32.8403H44.5708V40.7622H48.8618ZM53.2036 42H51.7817V34.0654H48.8999V32.8403H56.0791V34.0654H53.2036V42ZM60.5352 42.2222C58.396 42.2222 57.1455 40.4575 57.1455 37.4106C57.1455 34.3892 58.4087 32.6182 60.5352 32.6182C62.6489 32.6182 63.9121 34.3892 63.9121 37.4297C63.9121 40.4639 62.668 42.2222 60.5352 42.2222ZM60.5352 41.0415C61.7793 41.0415 62.4775 39.7783 62.4775 37.4106C62.4775 35.0684 61.7666 33.8052 60.5352 33.8052C59.3037 33.8052 58.5801 35.0811 58.5801 37.4106C58.5801 39.772 59.291 41.0415 60.5352 41.0415ZM68.9395 42.2222C67.1177 42.2222 65.8354 41.1113 65.7466 39.5181H67.105C67.2065 40.4321 67.9492 41.0352 68.9458 41.0352C70.0566 41.0352 70.8057 40.2354 70.8057 39.042C70.8057 37.8867 70.063 37.1123 68.9839 37.1123C68.1714 37.1123 67.5303 37.4932 67.1938 38.1279H65.8926L66.4067 32.8403H71.7197V34.0464H67.5112L67.2446 36.8584H67.3525C67.7715 36.2935 68.4507 35.9951 69.3774 35.9951C70.9263 35.9951 72.1958 37.1885 72.1958 39.0166C72.1958 40.9209 70.8818 42.2222 68.9395 42.2222ZM77.3755 42.2158C75.3125 42.2158 73.8081 40.6606 73.8081 37.5439C73.8081 34.4336 75.2046 32.6182 77.4326 32.6182C79.1528 32.6182 80.3335 33.583 80.562 35.0366H79.1338C78.9561 34.2622 78.3276 33.8179 77.4644 33.8179C76.0361 33.8179 75.1982 35.043 75.1729 37.3662H75.2808C75.7188 36.4839 76.6011 35.9761 77.6865 35.9761C79.4258 35.9761 80.6953 37.2646 80.6953 39.0293C80.6953 40.8892 79.3179 42.2158 77.3755 42.2158ZM77.3628 41.0288C78.4546 41.0288 79.2861 40.1782 79.2861 39.0674C79.2861 37.9185 78.5054 37.1123 77.3755 37.1123C76.2456 37.1123 75.4395 37.9185 75.4395 39.0356C75.4395 40.1655 76.271 41.0288 77.3628 41.0288ZM84.6943 42V34.3066H84.5864L82.2886 35.9507V34.5542L84.7007 32.8403H86.1162V42H84.6943ZM88.7061 35.4937C88.7061 33.8115 90.0073 32.6182 91.8545 32.6182C93.5747 32.6182 94.8125 33.7163 94.8125 35.2207C94.8125 36.2808 94.3491 37.0361 92.7432 38.6484L90.7246 40.6797V40.7876H94.9521V42H88.7822V41.0352L91.918 37.7725C93.0796 36.5601 93.3843 36.103 93.3843 35.3604C93.3843 34.4717 92.7812 33.7925 91.7656 33.7925C90.731 33.7925 90.0518 34.478 90.0518 35.4937H88.7061ZM98.8433 37.855V36.7378H99.9478C100.938 36.7378 101.624 36.1157 101.624 35.2334C101.624 34.4272 101.014 33.7861 99.9858 33.7861C98.9448 33.7861 98.2783 34.3257 98.1958 35.2842H96.8501C96.9453 33.729 98.1387 32.6182 100.068 32.6182C101.96 32.6182 103.033 33.7544 103.026 35.0557C103.02 36.1602 102.328 36.8901 101.37 37.1567V37.2646C102.588 37.4487 103.375 38.2612 103.375 39.5181C103.375 41.0796 101.935 42.2222 100.024 42.2222C98.0879 42.2222 96.7549 41.1621 96.6787 39.5498H98.0435C98.126 40.4512 98.894 41.0288 100.005 41.0288C101.128 41.0288 101.916 40.394 101.916 39.4419C101.916 38.4644 101.179 37.855 99.9858 37.855H98.8433ZM109.387 42V40.1782H104.918V38.9722C106.124 36.9028 107.47 34.7383 108.733 32.8403H110.758V38.9722H112.021V40.1782H110.758V42H109.387ZM106.283 38.9087V38.9976H109.406V34.04H109.323C108.339 35.519 107.222 37.3027 106.283 38.9087ZM116.953 42.2222C115.131 42.2222 113.849 41.1113 113.76 39.5181H115.119C115.22 40.4321 115.963 41.0352 116.959 41.0352C118.07 41.0352 118.819 40.2354 118.819 39.042C118.819 37.8867 118.077 37.1123 116.998 37.1123C116.185 37.1123 115.544 37.4932 115.208 38.1279H113.906L114.42 32.8403H119.733V34.0464H115.525L115.258 36.8584H115.366C115.785 36.2935 116.464 35.9951 117.391 35.9951C118.94 35.9951 120.209 37.1885 120.209 39.0166C120.209 40.9209 118.896 42.2222 116.953 42.2222ZM126.221 42V40.1782H121.752V38.9722C122.958 36.9028 124.304 34.7383 125.567 32.8403H127.592V38.9722H128.855V40.1782H127.592V42H126.221ZM123.117 38.9087V38.9976H126.24V34.04H126.157C125.173 35.519 124.056 37.3027 123.117 38.9087ZM134.803 42V40.1782H130.334V38.9722C131.54 36.9028 132.886 34.7383 134.149 32.8403H136.174V38.9722H137.437V40.1782H136.174V42H134.803ZM131.699 38.9087V38.9976H134.822V34.04H134.739C133.755 35.519 132.638 37.3027 131.699 38.9087ZM141.195 37.855V36.7378H142.299C143.29 36.7378 143.975 36.1157 143.975 35.2334C143.975 34.4272 143.366 33.7861 142.337 33.7861C141.296 33.7861 140.63 34.3257 140.547 35.2842H139.202C139.297 33.729 140.49 32.6182 142.42 32.6182C144.312 32.6182 145.384 33.7544 145.378 35.0557C145.372 36.1602 144.68 36.8901 143.721 37.1567V37.2646C144.94 37.4487 145.727 38.2612 145.727 39.5181C145.727 41.0796 144.286 42.2222 142.375 42.2222C140.439 42.2222 139.106 41.1621 139.03 39.5498H140.395C140.478 40.4512 141.246 41.0288 142.356 41.0288C143.48 41.0288 144.267 40.394 144.267 39.4419C144.267 38.4644 143.531 37.855 142.337 37.855H141.195ZM149.548 37.855V36.7378H150.653C151.643 36.7378 152.329 36.1157 152.329 35.2334C152.329 34.4272 151.719 33.7861 150.691 33.7861C149.65 33.7861 148.983 34.3257 148.901 35.2842H147.555C147.65 33.729 148.844 32.6182 150.773 32.6182C152.665 32.6182 153.738 33.7544 153.731 35.0557C153.725 36.1602 153.033 36.8901 152.075 37.1567V37.2646C153.293 37.4487 154.081 38.2612 154.081 39.5181C154.081 41.0796 152.64 42.2222 150.729 42.2222C148.793 42.2222 147.46 41.1621 147.384 39.5498H148.749C148.831 40.4512 149.599 41.0288 150.71 41.0288C151.833 41.0288 152.621 40.394 152.621 39.4419C152.621 38.4644 151.884 37.855 150.691 37.855H149.548ZM155.801 35.4937C155.801 33.8115 157.102 32.6182 158.949 32.6182C160.669 32.6182 161.907 33.7163 161.907 35.2207C161.907 36.2808 161.444 37.0361 159.838 38.6484L157.819 40.6797V40.7876H162.047V42H155.877V41.0352L159.013 37.7725C160.174 36.5601 160.479 36.103 160.479 35.3604C160.479 34.4717 159.876 33.7925 158.86 33.7925C157.826 33.7925 157.146 34.478 157.146 35.4937H155.801ZM166.109 42V34.3066H166.001L163.704 35.9507V34.5542L166.116 32.8403H167.531V42H166.109ZM173.435 42.2222C171.295 42.2222 170.045 40.4575 170.045 37.4106C170.045 34.3892 171.308 32.6182 173.435 32.6182C175.548 32.6182 176.812 34.3892 176.812 37.4297C176.812 40.4639 175.567 42.2222 173.435 42.2222ZM173.435 41.0415C174.679 41.0415 175.377 39.7783 175.377 37.4106C175.377 35.0684 174.666 33.8052 173.435 33.8052C172.203 33.8052 171.479 35.0811 171.479 37.4106C171.479 39.772 172.19 41.0415 173.435 41.0415ZM181.877 42.2222C179.738 42.2222 178.487 40.4575 178.487 37.4106C178.487 34.3892 179.75 32.6182 181.877 32.6182C183.991 32.6182 185.254 34.3892 185.254 37.4297C185.254 40.4639 184.01 42.2222 181.877 42.2222ZM181.877 41.0415C183.121 41.0415 183.819 39.7783 183.819 37.4106C183.819 35.0684 183.108 33.8052 181.877 33.8052C180.646 33.8052 179.922 35.0811 179.922 37.4106C179.922 39.772 180.633 41.0415 181.877 41.0415ZM190.161 42.2158C188.536 42.2158 187.304 41.2764 187.031 39.8037H188.466C188.682 40.5591 189.335 41.0161 190.173 41.0161C191.576 41.0161 192.382 39.7466 192.42 37.4741H192.312C191.875 38.3501 190.999 38.8579 189.913 38.8579C188.167 38.8579 186.898 37.5693 186.898 35.8047C186.898 33.9448 188.275 32.6182 190.218 32.6182C192.319 32.6182 193.792 34.2178 193.792 37.29C193.792 40.4004 192.452 42.2158 190.161 42.2158ZM190.224 37.709C191.348 37.709 192.154 36.9092 192.154 35.7983C192.154 34.6685 191.329 33.8052 190.237 33.8052C189.139 33.8052 188.313 34.6558 188.313 35.7603C188.313 36.9155 189.094 37.709 190.224 37.709ZM198.825 42.2222C196.686 42.2222 195.436 40.4575 195.436 37.4106C195.436 34.3892 196.699 32.6182 198.825 32.6182C200.939 32.6182 202.202 34.3892 202.202 37.4297C202.202 40.4639 200.958 42.2222 198.825 42.2222ZM198.825 41.0415C200.069 41.0415 200.768 39.7783 200.768 37.4106C200.768 35.0684 200.057 33.8052 198.825 33.8052C197.594 33.8052 196.87 35.0811 196.87 37.4106C196.87 39.772 197.581 41.0415 198.825 41.0415ZM207.268 42.2222C205.128 42.2222 203.878 40.4575 203.878 37.4106C203.878 34.3892 205.141 32.6182 207.268 32.6182C209.381 32.6182 210.645 34.3892 210.645 37.4297C210.645 40.4639 209.4 42.2222 207.268 42.2222ZM207.268 41.0415C208.512 41.0415 209.21 39.7783 209.21 37.4106C209.21 35.0684 208.499 33.8052 207.268 33.8052C206.036 33.8052 205.312 35.0811 205.312 37.4106C205.312 39.772 206.023 41.0415 207.268 41.0415Z" fill="black"/>
<rect x="0.5" y="0.5" width="365" height="53" rx="7.5" stroke="#D9D9D9"/>
<rect x="0.5" y="61.5" width="365" height="53" rx="7.5" fill="#FEFEFE"/>
<circle cx="20" cy="88" r="7.5" stroke="#D9D9D9"/>
<path d="M42.7173 80.5562H44.1265C44.2471 81.4448 45.0977 82.0098 46.3228 82.0098C47.4653 82.0098 48.3032 81.4067 48.3032 80.5688C48.3032 79.8516 47.77 79.4072 46.5576 79.1152L45.377 78.8296C43.7202 78.4297 42.9648 77.6426 42.9648 76.3096C42.9648 74.6973 44.2979 73.6182 46.2974 73.6182C48.1572 73.6182 49.5156 74.6973 49.5981 76.2271H48.2144C48.0811 75.3574 47.3447 74.8242 46.2783 74.8242C45.1548 74.8242 44.4058 75.3765 44.4058 76.2334C44.4058 76.8999 44.8882 77.2808 46.0815 77.5728L47.0908 77.8203C48.9697 78.271 49.7441 79.0264 49.7441 80.3975C49.7441 82.1304 48.3857 83.2222 46.2148 83.2222C44.1836 83.2222 42.8188 82.1812 42.7173 80.5562ZM53.3306 83.1143C51.9976 83.1143 51.0264 82.3145 51.0264 81.0576C51.0264 79.8198 51.9531 79.1025 53.5972 79.001L55.4697 78.8867V78.2837C55.4697 77.5283 54.9873 77.103 54.0542 77.103C53.2925 77.103 52.7656 77.3887 52.6133 77.8901H51.293C51.4326 76.7285 52.5498 75.9731 54.1177 75.9731C55.8506 75.9731 56.8281 76.8364 56.8281 78.2837V83H55.5142V82.0225H55.4062C54.9937 82.7207 54.2383 83.1143 53.3306 83.1143ZM53.6797 82.0161C54.708 82.0161 55.4697 81.3433 55.4697 80.4546V79.8579L53.7812 79.9722C52.8291 80.0356 52.3975 80.3721 52.3975 81.0005C52.3975 81.6416 52.937 82.0161 53.6797 82.0161ZM64.3945 76.1064L61.9062 83H60.4399L57.9453 76.1064H59.4053L61.1255 81.6035H61.2334L62.9473 76.1064H64.3945ZM66.4829 74.875C66.0068 74.875 65.6196 74.4878 65.6196 74.0181C65.6196 73.542 66.0068 73.1548 66.4829 73.1548C66.959 73.1548 67.3462 73.542 67.3462 74.0181C67.3462 74.4878 66.959 74.875 66.4829 74.875ZM65.8037 83V76.1064H67.1621V83H65.8037ZM69.168 83V76.1064H70.4819V77.1982H70.5835C70.9199 76.4365 71.6055 75.9731 72.6465 75.9731C74.189 75.9731 75.0396 76.8936 75.0396 78.5376V83H73.6748V78.8613C73.6748 77.7188 73.1924 77.1602 72.1831 77.1602C71.1738 77.1602 70.5327 77.8457 70.5327 78.9565V83H69.168ZM79.8765 85.6343C78.1499 85.6343 77.0327 84.8662 76.8867 83.7046H78.2832C78.3975 84.2251 78.9751 84.5552 79.8955 84.5552C81.0317 84.5552 81.7046 83.9966 81.7046 83.0635V81.7368H81.603C81.1841 82.4858 80.4224 82.8984 79.4702 82.8984C77.7056 82.8984 76.6138 81.5337 76.6138 79.4644C76.6138 77.376 77.7183 75.9858 79.4829 75.9858C80.4351 75.9858 81.2666 76.4556 81.6538 77.2046H81.7617V76.1064H83.0693V83.0698C83.0693 84.6377 81.8315 85.6343 79.8765 85.6343ZM79.8574 81.7686C81.0254 81.7686 81.73 80.8735 81.73 79.4644C81.73 78.0552 81.019 77.1538 79.8574 77.1538C78.6831 77.1538 78.0229 78.0552 78.0229 79.4644C78.0229 80.8735 78.6831 81.7686 79.8574 81.7686ZM84.8911 78.0361C84.8911 76.8364 86.0146 75.9731 87.5762 75.9731C89.1313 75.9731 90.147 76.6968 90.2803 77.8901H88.9727C88.8457 77.376 88.3506 77.0396 87.5762 77.0396C86.8145 77.0396 86.2368 77.4141 86.2368 77.9727C86.2368 78.3979 86.5859 78.6646 87.335 78.8423L88.4839 79.1089C89.7979 79.4136 90.4136 79.9785 90.4136 80.9814C90.4136 82.2637 89.2012 83.1333 87.5508 83.1333C85.9067 83.1333 84.834 82.3906 84.7134 81.1909H86.0781C86.2495 81.7305 86.7573 82.0669 87.5825 82.0669C88.4331 82.0669 89.0361 81.6733 89.0361 81.1084C89.0361 80.6768 88.7124 80.3975 88.0205 80.2324L86.8145 79.9468C85.5005 79.6421 84.8911 79.0581 84.8911 78.0361Z" fill="black"/>
<path d="M48.8618 101.762V103H43.1489V93.8403H44.5708V101.762H48.8618ZM53.2036 103H51.7817V95.0654H48.8999V93.8403H56.0791V95.0654H53.2036V103ZM60.5352 103.222C58.396 103.222 57.1455 101.458 57.1455 98.4106C57.1455 95.3892 58.4087 93.6182 60.5352 93.6182C62.6489 93.6182 63.9121 95.3892 63.9121 98.4297C63.9121 101.464 62.668 103.222 60.5352 103.222ZM60.5352 102.042C61.7793 102.042 62.4775 100.778 62.4775 98.4106C62.4775 96.0684 61.7666 94.8052 60.5352 94.8052C59.3037 94.8052 58.5801 96.0811 58.5801 98.4106C58.5801 100.772 59.291 102.042 60.5352 102.042ZM68.9395 103.222C67.1177 103.222 65.8354 102.111 65.7466 100.518H67.105C67.2065 101.432 67.9492 102.035 68.9458 102.035C70.0566 102.035 70.8057 101.235 70.8057 100.042C70.8057 98.8867 70.063 98.1123 68.9839 98.1123C68.1714 98.1123 67.5303 98.4932 67.1938 99.1279H65.8926L66.4067 93.8403H71.7197V95.0464H67.5112L67.2446 97.8584H67.3525C67.7715 97.2935 68.4507 96.9951 69.3774 96.9951C70.9263 96.9951 72.1958 98.1885 72.1958 100.017C72.1958 101.921 70.8818 103.222 68.9395 103.222ZM77.3755 103.216C75.3125 103.216 73.8081 101.661 73.8081 98.5439C73.8081 95.4336 75.2046 93.6182 77.4326 93.6182C79.1528 93.6182 80.3335 94.583 80.562 96.0366H79.1338C78.9561 95.2622 78.3276 94.8179 77.4644 94.8179C76.0361 94.8179 75.1982 96.043 75.1729 98.3662H75.2808C75.7188 97.4839 76.6011 96.9761 77.6865 96.9761C79.4258 96.9761 80.6953 98.2646 80.6953 100.029C80.6953 101.889 79.3179 103.216 77.3755 103.216ZM77.3628 102.029C78.4546 102.029 79.2861 101.178 79.2861 100.067C79.2861 98.9185 78.5054 98.1123 77.3755 98.1123C76.2456 98.1123 75.4395 98.9185 75.4395 100.036C75.4395 101.166 76.271 102.029 77.3628 102.029ZM84.6943 103V95.3066H84.5864L82.2886 96.9507V95.5542L84.7007 93.8403H86.1162V103H84.6943ZM88.7061 96.4937C88.7061 94.8115 90.0073 93.6182 91.8545 93.6182C93.5747 93.6182 94.8125 94.7163 94.8125 96.2207C94.8125 97.2808 94.3491 98.0361 92.7432 99.6484L90.7246 101.68V101.788H94.9521V103H88.7822V102.035L91.918 98.7725C93.0796 97.5601 93.3843 97.103 93.3843 96.3604C93.3843 95.4717 92.7812 94.7925 91.7656 94.7925C90.731 94.7925 90.0518 95.478 90.0518 96.4937H88.7061ZM98.8433 98.855V97.7378H99.9478C100.938 97.7378 101.624 97.1157 101.624 96.2334C101.624 95.4272 101.014 94.7861 99.9858 94.7861C98.9448 94.7861 98.2783 95.3257 98.1958 96.2842H96.8501C96.9453 94.729 98.1387 93.6182 100.068 93.6182C101.96 93.6182 103.033 94.7544 103.026 96.0557C103.02 97.1602 102.328 97.8901 101.37 98.1567V98.2646C102.588 98.4487 103.375 99.2612 103.375 100.518C103.375 102.08 101.935 103.222 100.024 103.222C98.0879 103.222 96.7549 102.162 96.6787 100.55H98.0435C98.126 101.451 98.894 102.029 100.005 102.029C101.128 102.029 101.916 101.394 101.916 100.442C101.916 99.4644 101.179 98.855 99.9858 98.855H98.8433ZM109.387 103V101.178H104.918V99.9722C106.124 97.9028 107.47 95.7383 108.733 93.8403H110.758V99.9722H112.021V101.178H110.758V103H109.387ZM106.283 99.9087V99.9976H109.406V95.04H109.323C108.339 96.519 107.222 98.3027 106.283 99.9087ZM116.953 103.222C115.131 103.222 113.849 102.111 113.76 100.518H115.119C115.22 101.432 115.963 102.035 116.959 102.035C118.07 102.035 118.819 101.235 118.819 100.042C118.819 98.8867 118.077 98.1123 116.998 98.1123C116.185 98.1123 115.544 98.4932 115.208 99.1279H113.906L114.42 93.8403H119.733V95.0464H115.525L115.258 97.8584H115.366C115.785 97.2935 116.464 96.9951 117.391 96.9951C118.94 96.9951 120.209 98.1885 120.209 100.017C120.209 101.921 118.896 103.222 116.953 103.222ZM126.221 103V101.178H121.752V99.9722C122.958 97.9028 124.304 95.7383 125.567 93.8403H127.592V99.9722H128.855V101.178H127.592V103H126.221ZM123.117 99.9087V99.9976H126.24V95.04H126.157C125.173 96.519 124.056 98.3027 123.117 99.9087ZM134.803 103V101.178H130.334V99.9722C131.54 97.9028 132.886 95.7383 134.149 93.8403H136.174V99.9722H137.437V101.178H136.174V103H134.803ZM131.699 99.9087V99.9976H134.822V95.04H134.739C133.755 96.519 132.638 98.3027 131.699 99.9087ZM141.195 98.855V97.7378H142.299C143.29 97.7378 143.975 97.1157 143.975 96.2334C143.975 95.4272 143.366 94.7861 142.337 94.7861C141.296 94.7861 140.63 95.3257 140.547 96.2842H139.202C139.297 94.729 140.49 93.6182 142.42 93.6182C144.312 93.6182 145.384 94.7544 145.378 96.0557C145.372 97.1602 144.68 97.8901 143.721 98.1567V98.2646C144.94 98.4487 145.727 99.2612 145.727 100.518C145.727 102.08 144.286 103.222 142.375 103.222C140.439 103.222 139.106 102.162 139.03 100.55H140.395C140.478 101.451 141.246 102.029 142.356 102.029C143.48 102.029 144.267 101.394 144.267 100.442C144.267 99.4644 143.531 98.855 142.337 98.855H141.195ZM149.548 98.855V97.7378H150.653C151.643 97.7378 152.329 97.1157 152.329 96.2334C152.329 95.4272 151.719 94.7861 150.691 94.7861C149.65 94.7861 148.983 95.3257 148.901 96.2842H147.555C147.65 94.729 148.844 93.6182 150.773 93.6182C152.665 93.6182 153.738 94.7544 153.731 96.0557C153.725 97.1602 153.033 97.8901 152.075 98.1567V98.2646C153.293 98.4487 154.081 99.2612 154.081 100.518C154.081 102.08 152.64 103.222 150.729 103.222C148.793 103.222 147.46 102.162 147.384 100.55H148.749C148.831 101.451 149.599 102.029 150.71 102.029C151.833 102.029 152.621 101.394 152.621 100.442C152.621 99.4644 151.884 98.855 150.691 98.855H149.548ZM155.801 96.4937C155.801 94.8115 157.102 93.6182 158.949 93.6182C160.669 93.6182 161.907 94.7163 161.907 96.2207C161.907 97.2808 161.444 98.0361 159.838 99.6484L157.819 101.68V101.788H162.047V103H155.877V102.035L159.013 98.7725C160.174 97.5601 160.479 97.103 160.479 96.3604C160.479 95.4717 159.876 94.7925 158.86 94.7925C157.826 94.7925 157.146 95.478 157.146 96.4937H155.801ZM166.109 103V95.3066H166.001L163.704 96.9507V95.5542L166.116 93.8403H167.531V103H166.109ZM173.435 103.222C171.295 103.222 170.045 101.458 170.045 98.4106C170.045 95.3892 171.308 93.6182 173.435 93.6182C175.548 93.6182 176.812 95.3892 176.812 98.4297C176.812 101.464 175.567 103.222 173.435 103.222ZM173.435 102.042C174.679 102.042 175.377 100.778 175.377 98.4106C175.377 96.0684 174.666 94.8052 173.435 94.8052C172.203 94.8052 171.479 96.0811 171.479 98.4106C171.479 100.772 172.19 102.042 173.435 102.042ZM181.877 103.222C179.738 103.222 178.487 101.458 178.487 98.4106C178.487 95.3892 179.75 93.6182 181.877 93.6182C183.991 93.6182 185.254 95.3892 185.254 98.4297C185.254 101.464 184.01 103.222 181.877 103.222ZM181.877 102.042C183.121 102.042 183.819 100.778 183.819 98.4106C183.819 96.0684 183.108 94.8052 181.877 94.8052C180.646 94.8052 179.922 96.0811 179.922 98.4106C179.922 100.772 180.633 102.042 181.877 102.042ZM190.37 103.222C188.333 103.222 186.93 102.13 186.93 100.55C186.93 99.3755 187.698 98.4487 188.872 98.2139V98.106C187.92 97.8647 187.298 97.0713 187.298 96.0811C187.298 94.6401 188.574 93.6182 190.37 93.6182C192.167 93.6182 193.442 94.6401 193.442 96.0811C193.442 97.0776 192.833 97.8584 191.868 98.106V98.2139C193.042 98.436 193.817 99.3628 193.817 100.543C193.817 102.124 192.408 103.222 190.37 103.222ZM190.37 97.668C191.367 97.668 192.046 97.084 192.046 96.2144C192.046 95.332 191.373 94.7417 190.37 94.7417C189.367 94.7417 188.701 95.332 188.701 96.2144C188.701 97.084 189.374 97.668 190.37 97.668ZM190.37 102.092C191.544 102.092 192.357 101.413 192.357 100.436C192.357 99.458 191.544 98.7852 190.37 98.7852C189.196 98.7852 188.383 99.458 188.383 100.436C188.383 101.413 189.196 102.092 190.37 102.092ZM197.848 103V95.3066H197.74L195.442 96.9507V95.5542L197.854 93.8403H199.27V103H197.848ZM204.132 103V95.3066H204.024L201.726 96.9507V95.5542L204.138 93.8403H205.554V103H204.132Z" fill="black"/>
<rect x="0.5" y="61.5" width="365" height="53" rx="7.5" stroke="#D9D9D9"/>
<rect y="133" width="44" height="24" rx="12" fill="#FFDD2D"/>
<circle cx="30" cy="145" r="10" fill="white"/>
<path d="M52.7109 138.518H54.3105C54.4121 139.356 55.2246 139.889 56.3862 139.889C57.4653 139.889 58.2461 139.324 58.2461 138.543C58.2461 137.877 57.7446 137.471 56.5703 137.198L55.3833 136.925C53.7202 136.544 52.9395 135.725 52.9395 134.367C52.9395 132.716 54.2979 131.612 56.3481 131.612C58.2715 131.612 59.6616 132.71 59.7378 134.278H58.1699C58.0557 133.459 57.3447 132.945 56.3418 132.945C55.2881 132.945 54.5898 133.465 54.5898 134.259C54.5898 134.887 55.0532 135.249 56.1895 135.516L57.2432 135.757C59.103 136.182 59.8838 136.957 59.8838 138.347C59.8838 140.124 58.5063 141.229 56.2847 141.229C54.1836 141.229 52.7935 140.175 52.7109 138.518ZM63.4067 141.114C62.0674 141.114 61.1089 140.302 61.1089 139.032C61.1089 137.788 62.0547 137.058 63.7432 136.963L65.5332 136.855V136.258C65.5332 135.566 65.0762 135.179 64.2256 135.179C63.502 135.179 63.0068 135.439 62.8608 135.916H61.3755C61.5024 134.703 62.6514 133.929 64.3018 133.929C66.0854 133.929 67.0884 134.792 67.0884 136.258V141H65.5713V140.048H65.4634C65.0762 140.721 64.3145 141.114 63.4067 141.114ZM63.8701 139.902C64.8223 139.902 65.5332 139.28 65.5332 138.455V137.89L63.9653 137.998C63.083 138.055 62.6704 138.378 62.6704 138.956C62.6704 139.553 63.1719 139.902 63.8701 139.902ZM74.8262 134.062L72.3696 141H70.6367L68.1675 134.062H69.856L71.4619 139.458H71.5698L73.1631 134.062H74.8262ZM80.4058 139.102H81.8975C81.6118 140.353 80.4502 141.14 78.8125 141.14C76.7686 141.14 75.5371 139.781 75.5371 137.56C75.5371 135.332 76.7876 133.929 78.7998 133.929C80.7803 133.929 81.9673 135.243 81.9673 137.42V137.921H77.1177V138.004C77.1558 139.178 77.8223 139.915 78.8569 139.915C79.6377 139.915 80.1772 139.623 80.4058 139.102ZM78.7935 135.154C77.854 135.154 77.1938 135.833 77.124 136.874H80.3931C80.3613 135.82 79.7393 135.154 78.7935 135.154ZM87.0137 141V134.062H88.5308V135.179H88.6387C88.937 134.398 89.6479 133.929 90.5684 133.929C91.5269 133.929 92.1934 134.411 92.4854 135.179H92.5933C92.936 134.424 93.7358 133.929 94.7007 133.929C96.0908 133.929 96.9287 134.786 96.9287 136.227V141H95.3608V136.614C95.3608 135.712 94.9355 135.262 94.0913 135.262C93.2725 135.262 92.7329 135.871 92.7329 136.665V141H91.2031V136.5C91.2031 135.731 90.7207 135.262 89.9463 135.262C89.1655 135.262 88.5879 135.916 88.5879 136.779V141H87.0137ZM99.3408 143.514C99.2456 143.514 98.8203 143.507 98.7188 143.488V142.238C98.8076 142.25 99.0425 142.257 99.1504 142.257C99.8169 142.257 100.191 142.003 100.395 141.349L100.477 141.025L97.9951 134.062H99.7217L101.347 139.508H101.455L103.073 134.062H104.736L102.229 141.241C101.639 142.949 100.896 143.514 99.3408 143.514ZM110.36 132.9C109.846 132.9 109.421 132.488 109.421 131.967C109.421 131.453 109.846 131.034 110.36 131.034C110.881 131.034 111.306 131.453 111.306 131.967C111.306 132.488 110.881 132.9 110.36 132.9ZM109.58 141V134.062H111.147V141H109.58ZM113.103 141V134.062H114.62V135.173H114.728C115.058 134.398 115.756 133.929 116.791 133.929C118.339 133.929 119.184 134.862 119.184 136.512V141H117.609V136.88C117.609 135.801 117.165 135.262 116.207 135.262C115.267 135.262 114.677 135.916 114.677 136.957V141H113.103ZM121.558 141V135.332H120.421V134.106H121.558V133.376C121.558 131.993 122.262 131.313 123.805 131.313C124.141 131.313 124.427 131.333 124.681 131.377V132.513C124.554 132.494 124.363 132.475 124.141 132.475C123.398 132.475 123.106 132.805 123.106 133.465V134.106H124.617V135.332H123.125V141H121.558ZM128.883 141.14C126.801 141.14 125.544 139.781 125.544 137.528C125.544 135.293 126.82 133.929 128.883 133.929C130.952 133.929 132.222 135.287 132.222 137.528C132.222 139.781 130.958 141.14 128.883 141.14ZM128.883 139.851C129.981 139.851 130.603 139 130.603 137.534C130.603 136.068 129.975 135.217 128.883 135.217C127.785 135.217 127.156 136.068 127.156 137.534C127.156 139 127.785 139.851 128.883 139.851ZM137.782 141V135.332H136.646V134.106H137.782V133.376C137.782 131.993 138.487 131.313 140.029 131.313C140.366 131.313 140.651 131.333 140.905 131.377V132.513C140.778 132.494 140.588 132.475 140.366 132.475C139.623 132.475 139.331 132.805 139.331 133.465V134.106H140.842V135.332H139.35V141H137.782ZM145.107 141.14C143.025 141.14 141.769 139.781 141.769 137.528C141.769 135.293 143.044 133.929 145.107 133.929C147.177 133.929 148.446 135.287 148.446 137.528C148.446 139.781 147.183 141.14 145.107 141.14ZM145.107 139.851C146.206 139.851 146.828 139 146.828 137.534C146.828 136.068 146.199 135.217 145.107 135.217C144.009 135.217 143.381 136.068 143.381 137.534C143.381 139 144.009 139.851 145.107 139.851ZM150.033 141V134.062H151.55V135.141H151.658C151.849 134.456 152.598 133.948 153.493 133.948C153.721 133.948 154 133.973 154.146 134.011V135.446C154.026 135.401 153.607 135.357 153.34 135.357C152.318 135.357 151.607 135.992 151.607 136.969V141H150.033ZM158.749 136.042C158.749 134.798 159.891 133.929 161.529 133.929C163.179 133.929 164.214 134.652 164.328 135.903H162.849C162.735 135.414 162.271 135.097 161.535 135.097C160.818 135.097 160.278 135.446 160.278 135.96C160.278 136.354 160.608 136.601 161.307 136.766L162.532 137.039C163.858 137.344 164.474 137.909 164.474 138.931C164.474 140.257 163.249 141.14 161.516 141.14C159.783 141.14 158.691 140.391 158.571 139.14H160.126C160.278 139.654 160.767 139.972 161.554 139.972C162.348 139.972 162.9 139.61 162.9 139.083C162.9 138.689 162.602 138.436 161.941 138.283L160.71 137.998C159.377 137.693 158.749 137.083 158.749 136.042ZM170.593 139.102H172.085C171.799 140.353 170.638 141.14 169 141.14C166.956 141.14 165.725 139.781 165.725 137.56C165.725 135.332 166.975 133.929 168.987 133.929C170.968 133.929 172.155 135.243 172.155 137.42V137.921H167.305V138.004C167.343 139.178 168.01 139.915 169.044 139.915C169.825 139.915 170.365 139.623 170.593 139.102ZM168.981 135.154C168.042 135.154 167.381 135.833 167.312 136.874H170.581C170.549 135.82 169.927 135.154 168.981 135.154ZM179.734 136.379H178.236C178.09 135.706 177.569 135.217 176.706 135.217C175.627 135.217 174.986 136.068 174.986 137.515C174.986 138.988 175.633 139.845 176.706 139.845C177.525 139.845 178.071 139.458 178.236 138.728H179.734C179.562 140.162 178.471 141.14 176.712 141.14C174.624 141.14 173.393 139.788 173.393 137.515C173.393 135.268 174.618 133.929 176.706 133.929C178.49 133.929 179.569 134.944 179.734 136.379ZM187.281 134.062V141H185.764V139.896H185.656C185.32 140.689 184.641 141.14 183.581 141.14C182.063 141.14 181.175 140.194 181.175 138.569V134.062H182.749V138.188C182.749 139.267 183.187 139.788 184.126 139.788C185.148 139.788 185.707 139.153 185.707 138.105V134.062H187.281ZM189.211 141V134.062H190.728V135.141H190.836C191.026 134.456 191.775 133.948 192.67 133.948C192.899 133.948 193.178 133.973 193.324 134.011V135.446C193.204 135.401 192.785 135.357 192.518 135.357C191.496 135.357 190.785 135.992 190.785 136.969V141H189.211ZM198.967 139.102H200.459C200.173 140.353 199.012 141.14 197.374 141.14C195.33 141.14 194.099 139.781 194.099 137.56C194.099 135.332 195.349 133.929 197.361 133.929C199.342 133.929 200.529 135.243 200.529 137.42V137.921H195.679V138.004C195.717 139.178 196.384 139.915 197.418 139.915C198.199 139.915 198.739 139.623 198.967 139.102ZM197.355 135.154C196.416 135.154 195.755 135.833 195.686 136.874H198.955C198.923 135.82 198.301 135.154 197.355 135.154ZM207.778 141V133.453H207.67L205.391 135.065V133.522L207.784 131.84H209.416V141H207.778ZM216.265 138.029H212.094V136.588H216.265V138.029ZM224.269 136.379H222.771C222.625 135.706 222.104 135.217 221.241 135.217C220.162 135.217 219.521 136.068 219.521 137.515C219.521 138.988 220.168 139.845 221.241 139.845C222.06 139.845 222.606 139.458 222.771 138.728H224.269C224.098 140.162 223.006 141.14 221.248 141.14C219.159 141.14 217.928 139.788 217.928 137.515C217.928 135.268 219.153 133.929 221.241 133.929C223.025 133.929 224.104 134.944 224.269 136.379ZM225.837 141V131.377H227.411V141H225.837ZM230.204 132.9C229.69 132.9 229.265 132.488 229.265 131.967C229.265 131.453 229.69 131.034 230.204 131.034C230.725 131.034 231.15 131.453 231.15 131.967C231.15 132.488 230.725 132.9 230.204 132.9ZM229.423 141V134.062H230.991V141H229.423ZM238.945 136.379H237.447C237.301 135.706 236.78 135.217 235.917 135.217C234.838 135.217 234.197 136.068 234.197 137.515C234.197 138.988 234.844 139.845 235.917 139.845C236.736 139.845 237.282 139.458 237.447 138.728H238.945C238.773 140.162 237.682 141.14 235.923 141.14C233.835 141.14 232.604 139.788 232.604 137.515C232.604 135.268 233.829 133.929 235.917 133.929C237.701 133.929 238.78 134.944 238.945 136.379ZM242.195 136.906L244.759 134.062H246.587L243.82 137.039L246.778 141H244.874L242.646 138.004L242.087 138.562V141H240.513V131.377H242.087V136.906H242.195ZM257.455 136.379H255.957C255.811 135.706 255.29 135.217 254.427 135.217C253.348 135.217 252.707 136.068 252.707 137.515C252.707 138.988 253.354 139.845 254.427 139.845C255.246 139.845 255.792 139.458 255.957 138.728H257.455C257.283 140.162 256.191 141.14 254.433 141.14C252.345 141.14 251.113 139.788 251.113 137.515C251.113 135.268 252.338 133.929 254.427 133.929C256.21 133.929 257.29 134.944 257.455 136.379ZM259.022 141V131.377H260.571V135.186H260.686C261.016 134.405 261.758 133.935 262.793 133.935C264.278 133.935 265.18 134.875 265.18 136.525V141H263.605V136.893C263.605 135.82 263.123 135.274 262.209 135.274C261.174 135.274 260.597 135.954 260.597 136.969V141H259.022ZM271.572 139.102H273.063C272.778 140.353 271.616 141.14 269.979 141.14C267.935 141.14 266.703 139.781 266.703 137.56C266.703 135.332 267.954 133.929 269.966 133.929C271.946 133.929 273.133 135.243 273.133 137.42V137.921H268.284V138.004C268.322 139.178 268.988 139.915 270.023 139.915C270.804 139.915 271.343 139.623 271.572 139.102ZM269.959 135.154C269.02 135.154 268.36 135.833 268.29 136.874H271.559C271.527 135.82 270.905 135.154 269.959 135.154ZM280.712 136.379H279.214C279.068 135.706 278.548 135.217 277.685 135.217C276.605 135.217 275.964 136.068 275.964 137.515C275.964 138.988 276.612 139.845 277.685 139.845C278.503 139.845 279.049 139.458 279.214 138.728H280.712C280.541 140.162 279.449 141.14 277.691 141.14C275.603 141.14 274.371 139.788 274.371 137.515C274.371 135.268 275.596 133.929 277.685 133.929C279.468 133.929 280.547 134.944 280.712 136.379ZM283.962 136.906L286.527 134.062H288.355L285.587 137.039L288.545 141H286.641L284.413 138.004L283.854 138.562V141H282.28V131.377H283.854V136.906H283.962ZM292.373 141.14C290.291 141.14 289.034 139.781 289.034 137.528C289.034 135.293 290.31 133.929 292.373 133.929C294.442 133.929 295.712 135.287 295.712 137.528C295.712 139.781 294.449 141.14 292.373 141.14ZM292.373 139.851C293.471 139.851 294.093 139 294.093 137.534C294.093 136.068 293.465 135.217 292.373 135.217C291.275 135.217 290.646 136.068 290.646 137.534C290.646 139 291.275 139.851 292.373 139.851ZM303.342 134.062V141H301.825V139.896H301.717C301.38 140.689 300.701 141.14 299.641 141.14C298.124 141.14 297.235 140.194 297.235 138.569V134.062H298.81V138.188C298.81 139.267 299.248 139.788 300.187 139.788C301.209 139.788 301.768 139.153 301.768 138.105V134.062H303.342ZM305.773 132.361H307.341V134.106H308.826V135.332H307.341V138.785C307.341 139.477 307.633 139.788 308.293 139.788C308.515 139.788 308.636 139.775 308.826 139.756V140.962C308.598 141.006 308.306 141.032 308.001 141.032C306.408 141.032 305.773 140.499 305.773 139.159V135.332H304.675V134.106H305.773V132.361Z" fill="black"/>
<path d="M53.1489 149.84H56.7354C58.5254 149.84 59.7568 151.072 59.7568 152.875C59.7568 154.639 58.4873 155.871 56.6909 155.871H54.5708V159H53.1489V149.84ZM54.5708 151.04V154.677H56.3608C57.5859 154.677 58.3032 154.023 58.3032 152.875C58.3032 151.688 57.6113 151.04 56.3608 151.04H54.5708ZM63.0894 159.114C61.7563 159.114 60.7852 158.314 60.7852 157.058C60.7852 155.82 61.7119 155.103 63.356 155.001L65.2285 154.887V154.284C65.2285 153.528 64.7461 153.103 63.813 153.103C63.0513 153.103 62.5244 153.389 62.3721 153.89H61.0518C61.1914 152.729 62.3086 151.973 63.8765 151.973C65.6094 151.973 66.5869 152.836 66.5869 154.284V159H65.2729V158.022H65.165C64.7524 158.721 63.9971 159.114 63.0894 159.114ZM63.4385 158.016C64.4668 158.016 65.2285 157.343 65.2285 156.455V155.858L63.54 155.972C62.5879 156.036 62.1562 156.372 62.1562 157C62.1562 157.642 62.6958 158.016 63.4385 158.016ZM68.9863 161.501C68.8721 161.501 68.5483 161.488 68.4214 161.469V160.352C68.5293 160.371 68.7388 160.377 68.8657 160.377C69.5132 160.377 69.8813 160.104 70.1162 159.375L70.2178 159.019L67.7168 152.106H69.2021L70.9351 157.629H71.043L72.7695 152.106H74.2168L71.6396 159.317C71.0493 160.974 70.3955 161.501 68.9863 161.501ZM79.6567 159V153.217H78.5205V152.125H79.6567V151.383C79.6567 150.012 80.355 149.339 81.7896 149.339C82.1006 149.339 82.3672 149.364 82.6021 149.402V150.431C82.4751 150.412 82.291 150.399 82.0752 150.399C81.3135 150.399 81.0024 150.748 81.0024 151.446V152.125H82.5449V153.217H81.0215V159H79.6567ZM85.8013 159.114C84.4683 159.114 83.4971 158.314 83.4971 157.058C83.4971 155.82 84.4238 155.103 86.0679 155.001L87.9404 154.887V154.284C87.9404 153.528 87.458 153.103 86.5249 153.103C85.7632 153.103 85.2363 153.389 85.084 153.89H83.7637C83.9033 152.729 85.0205 151.973 86.5884 151.973C88.3213 151.973 89.2988 152.836 89.2988 154.284V159H87.9849V158.022H87.877C87.4644 158.721 86.709 159.114 85.8013 159.114ZM86.1504 158.016C87.1787 158.016 87.9404 157.343 87.9404 156.455V155.858L86.252 155.972C85.2998 156.036 84.8682 156.372 84.8682 157C84.8682 157.642 85.4077 158.016 86.1504 158.016ZM91.0825 154.036C91.0825 152.836 92.2061 151.973 93.7676 151.973C95.3228 151.973 96.3384 152.697 96.4717 153.89H95.1641C95.0371 153.376 94.542 153.04 93.7676 153.04C93.0059 153.04 92.4282 153.414 92.4282 153.973C92.4282 154.398 92.7773 154.665 93.5264 154.842L94.6753 155.109C95.9893 155.414 96.605 155.979 96.605 156.981C96.605 158.264 95.3926 159.133 93.7422 159.133C92.0981 159.133 91.0254 158.391 90.9048 157.191H92.2695C92.4409 157.73 92.9487 158.067 93.7739 158.067C94.6245 158.067 95.2275 157.673 95.2275 157.108C95.2275 156.677 94.9038 156.397 94.2119 156.232L93.0059 155.947C91.6919 155.642 91.0825 155.058 91.0825 154.036ZM98.6807 150.367H100.045V152.125H101.543V153.217H100.045V156.854C100.045 157.597 100.344 157.921 101.023 157.921C101.232 157.921 101.353 157.908 101.543 157.889V158.975C101.321 159.013 101.067 159.044 100.801 159.044C99.2837 159.044 98.6807 158.511 98.6807 157.185V153.217H97.5825V152.125H98.6807V150.367ZM107.605 157.153H108.919C108.621 158.372 107.504 159.133 105.923 159.133C103.943 159.133 102.73 157.769 102.73 155.566C102.73 153.376 103.968 151.973 105.917 151.973C107.84 151.973 109.002 153.287 109.002 155.445V155.915H104.121V155.979C104.165 157.229 104.87 158.016 105.961 158.016C106.787 158.016 107.352 157.711 107.605 157.153ZM105.911 153.084C104.901 153.084 104.197 153.82 104.121 154.931H107.612C107.58 153.814 106.92 153.084 105.911 153.084ZM110.64 159V152.106H111.954V153.154H112.055C112.252 152.475 113.02 151.986 113.921 151.986C114.125 151.986 114.385 152.005 114.531 152.037V153.319C114.417 153.287 114.01 153.243 113.769 153.243C112.734 153.243 112.004 153.909 112.004 154.88V159H110.64ZM121.31 159.114C119.977 159.114 119.006 158.314 119.006 157.058C119.006 155.82 119.933 155.103 121.577 155.001L123.449 154.887V154.284C123.449 153.528 122.967 153.103 122.034 153.103C121.272 153.103 120.745 153.389 120.593 153.89H119.272C119.412 152.729 120.529 151.973 122.097 151.973C123.83 151.973 124.808 152.836 124.808 154.284V159H123.494V158.022H123.386C122.973 158.721 122.218 159.114 121.31 159.114ZM121.659 158.016C122.688 158.016 123.449 157.343 123.449 156.455V155.858L121.761 155.972C120.809 156.036 120.377 156.372 120.377 157C120.377 157.642 120.917 158.016 121.659 158.016ZM132.603 154.322H131.276C131.117 153.649 130.559 153.135 129.645 153.135C128.502 153.135 127.804 154.036 127.804 155.528C127.804 157.051 128.508 157.972 129.645 157.972C130.508 157.972 131.098 157.565 131.276 156.816H132.603C132.425 158.175 131.358 159.133 129.651 159.133C127.639 159.133 126.407 157.762 126.407 155.528C126.407 153.338 127.632 151.973 129.645 151.973C131.377 151.973 132.425 152.982 132.603 154.322ZM134.164 159V152.106H135.478V153.154H135.58C135.776 152.475 136.544 151.986 137.446 151.986C137.649 151.986 137.909 152.005 138.055 152.037V153.319C137.941 153.287 137.535 153.243 137.293 153.243C136.259 153.243 135.529 153.909 135.529 154.88V159H134.164ZM142.111 159.133C140.086 159.133 138.849 157.781 138.849 155.553C138.849 153.332 140.093 151.973 142.111 151.973C144.124 151.973 145.368 153.325 145.368 155.553C145.368 157.781 144.13 159.133 142.111 159.133ZM142.111 157.972C143.292 157.972 143.965 157.083 143.965 155.553C143.965 154.017 143.292 153.128 142.111 153.128C140.924 153.128 140.258 154.017 140.258 155.553C140.258 157.089 140.924 157.972 142.111 157.972ZM146.853 154.036C146.853 152.836 147.977 151.973 149.538 151.973C151.093 151.973 152.109 152.697 152.242 153.89H150.935C150.808 153.376 150.312 153.04 149.538 153.04C148.776 153.04 148.199 153.414 148.199 153.973C148.199 154.398 148.548 154.665 149.297 154.842L150.446 155.109C151.76 155.414 152.375 155.979 152.375 156.981C152.375 158.264 151.163 159.133 149.513 159.133C147.869 159.133 146.796 158.391 146.675 157.191H148.04C148.211 157.73 148.719 158.067 149.544 158.067C150.395 158.067 150.998 157.673 150.998 157.108C150.998 156.677 150.674 156.397 149.982 156.232L148.776 155.947C147.462 155.642 146.853 155.058 146.853 154.036ZM153.734 154.036C153.734 152.836 154.857 151.973 156.419 151.973C157.974 151.973 158.99 152.697 159.123 153.89H157.815C157.688 153.376 157.193 153.04 156.419 153.04C155.657 153.04 155.08 153.414 155.08 153.973C155.08 154.398 155.429 154.665 156.178 154.842L157.327 155.109C158.641 155.414 159.256 155.979 159.256 156.981C159.256 158.264 158.044 159.133 156.394 159.133C154.75 159.133 153.677 158.391 153.556 157.191H154.921C155.092 157.73 155.6 158.067 156.425 158.067C157.276 158.067 157.879 157.673 157.879 157.108C157.879 156.677 157.555 156.397 156.863 156.232L155.657 155.947C154.343 155.642 153.734 155.058 153.734 154.036ZM167.654 159.222C165.833 159.222 164.55 158.111 164.461 156.518H165.82C165.921 157.432 166.664 158.035 167.661 158.035C168.771 158.035 169.521 157.235 169.521 156.042C169.521 154.887 168.778 154.112 167.699 154.112C166.886 154.112 166.245 154.493 165.909 155.128H164.607L165.122 149.84H170.435V151.046H166.226L165.959 153.858H166.067C166.486 153.293 167.166 152.995 168.092 152.995C169.641 152.995 170.911 154.188 170.911 156.017C170.911 157.921 169.597 159.222 167.654 159.222ZM175.944 159.222C173.805 159.222 172.555 157.458 172.555 154.411C172.555 151.389 173.818 149.618 175.944 149.618C178.058 149.618 179.321 151.389 179.321 154.43C179.321 157.464 178.077 159.222 175.944 159.222ZM175.944 158.042C177.188 158.042 177.887 156.778 177.887 154.411C177.887 152.068 177.176 150.805 175.944 150.805C174.713 150.805 173.989 152.081 173.989 154.411C173.989 156.772 174.7 158.042 175.944 158.042ZM184.387 159.222C182.248 159.222 180.997 157.458 180.997 154.411C180.997 151.389 182.26 149.618 184.387 149.618C186.5 149.618 187.764 151.389 187.764 154.43C187.764 157.464 186.52 159.222 184.387 159.222ZM184.387 158.042C185.631 158.042 186.329 156.778 186.329 154.411C186.329 152.068 185.618 150.805 184.387 150.805C183.155 150.805 182.432 152.081 182.432 154.411C182.432 156.772 183.143 158.042 184.387 158.042ZM193.54 155.985V158.632H192.29V155.985H189.77V154.747H192.29V152.1H193.54V154.747H196.066V155.985H193.54ZM201.684 159V158.029L206.661 151.173V151.065H201.836V149.84H208.444V150.812L203.493 157.667V157.775H208.565V159H201.684ZM212.361 159.114C211.028 159.114 210.057 158.314 210.057 157.058C210.057 155.82 210.983 155.103 212.627 155.001L214.5 154.887V154.284C214.5 153.528 214.018 153.103 213.084 153.103C212.323 153.103 211.796 153.389 211.644 153.89H210.323C210.463 152.729 211.58 151.973 213.148 151.973C214.881 151.973 215.858 152.836 215.858 154.284V159H214.544V158.022H214.437C214.024 158.721 213.269 159.114 212.361 159.114ZM212.71 158.016C213.738 158.016 214.5 157.343 214.5 156.455V155.858L212.812 155.972C211.859 156.036 211.428 156.372 211.428 157C211.428 157.642 211.967 158.016 212.71 158.016ZM219.711 159.114C218.378 159.114 217.407 158.314 217.407 157.058C217.407 155.82 218.334 155.103 219.978 155.001L221.851 154.887V154.284C221.851 153.528 221.368 153.103 220.435 153.103C219.673 153.103 219.146 153.389 218.994 153.89H217.674C217.813 152.729 218.931 151.973 220.499 151.973C222.231 151.973 223.209 152.836 223.209 154.284V159H221.895V158.022H221.787C221.375 158.721 220.619 159.114 219.711 159.114ZM220.061 158.016C221.089 158.016 221.851 157.343 221.851 156.455V155.858L220.162 155.972C219.21 156.036 218.778 156.372 218.778 157C218.778 157.642 219.318 158.016 220.061 158.016ZM225.151 159V152.106H226.465V153.205H226.567C226.872 152.43 227.57 151.973 228.49 151.973C229.436 151.973 230.09 152.462 230.395 153.205H230.502C230.852 152.462 231.645 151.973 232.604 151.973C234 151.973 234.812 152.811 234.812 154.246V159H233.448V154.576C233.448 153.624 233.003 153.16 232.108 153.16C231.226 153.16 230.648 153.808 230.648 154.639V159H229.309V154.436C229.309 153.649 228.789 153.16 227.976 153.16C227.145 153.16 226.516 153.865 226.516 154.766V159H225.151ZM237.434 150.875C236.958 150.875 236.571 150.488 236.571 150.018C236.571 149.542 236.958 149.155 237.434 149.155C237.91 149.155 238.297 149.542 238.297 150.018C238.297 150.488 237.91 150.875 237.434 150.875ZM236.755 159V152.106H238.113V159H236.755ZM240.119 159V152.106H241.433V153.198H241.535C241.871 152.437 242.557 151.973 243.598 151.973C245.14 151.973 245.991 152.894 245.991 154.538V159H244.626V154.861C244.626 153.719 244.144 153.16 243.134 153.16C242.125 153.16 241.484 153.846 241.484 154.957V159H240.119ZM251.31 154.036C251.31 152.836 252.434 151.973 253.995 151.973C255.55 151.973 256.566 152.697 256.699 153.89H255.392C255.265 153.376 254.77 153.04 253.995 153.04C253.233 153.04 252.656 153.414 252.656 153.973C252.656 154.398 253.005 154.665 253.754 154.842L254.903 155.109C256.217 155.414 256.833 155.979 256.833 156.981C256.833 158.264 255.62 159.133 253.97 159.133C252.326 159.133 251.253 158.391 251.132 157.191H252.497C252.668 157.73 253.176 158.067 254.001 158.067C254.852 158.067 255.455 157.673 255.455 157.108C255.455 156.677 255.131 156.397 254.439 156.232L253.233 155.947C251.919 155.642 251.31 155.058 251.31 154.036ZM264.304 152.106V159H262.99V157.908H262.882C262.545 158.689 261.841 159.133 260.793 159.133C259.264 159.133 258.413 158.2 258.413 156.582V152.106H259.778V156.245C259.778 157.388 260.229 157.934 261.231 157.934C262.336 157.934 262.939 157.261 262.939 156.15V152.106H264.304ZM269.871 151.986C271.629 151.986 272.74 153.363 272.74 155.553C272.74 157.73 271.629 159.114 269.883 159.114C268.899 159.114 268.119 158.689 267.757 157.959H267.649V161.298H266.284V152.106H267.598V153.249H267.7C268.119 152.462 268.931 151.986 269.871 151.986ZM269.483 157.946C270.645 157.946 271.337 157.051 271.337 155.553C271.337 154.055 270.645 153.154 269.49 153.154C268.341 153.154 267.624 154.074 267.624 155.553C267.624 157.026 268.341 157.946 269.483 157.946ZM277.97 151.986C279.729 151.986 280.839 153.363 280.839 155.553C280.839 157.73 279.729 159.114 277.983 159.114C276.999 159.114 276.218 158.689 275.856 157.959H275.749V161.298H274.384V152.106H275.698V153.249H275.799C276.218 152.462 277.031 151.986 277.97 151.986ZM277.583 157.946C278.745 157.946 279.437 157.051 279.437 155.553C279.437 154.055 278.745 153.154 277.589 153.154C276.44 153.154 275.723 154.074 275.723 155.553C275.723 157.026 276.44 157.946 277.583 157.946ZM285.403 159.133C283.378 159.133 282.141 157.781 282.141 155.553C282.141 153.332 283.385 151.973 285.403 151.973C287.416 151.973 288.66 153.325 288.66 155.553C288.66 157.781 287.422 159.133 285.403 159.133ZM285.403 157.972C286.584 157.972 287.257 157.083 287.257 155.553C287.257 154.017 286.584 153.128 285.403 153.128C284.216 153.128 283.55 154.017 283.55 155.553C283.55 157.089 284.216 157.972 285.403 157.972ZM290.304 159V152.106H291.618V153.154H291.719C291.916 152.475 292.684 151.986 293.585 151.986C293.789 151.986 294.049 152.005 294.195 152.037V153.319C294.081 153.287 293.674 153.243 293.433 153.243C292.398 153.243 291.668 153.909 291.668 154.88V159H290.304ZM296.347 150.367H297.711V152.125H299.209V153.217H297.711V156.854C297.711 157.597 298.01 157.921 298.689 157.921C298.898 157.921 299.019 157.908 299.209 157.889V158.975C298.987 159.013 298.733 159.044 298.467 159.044C296.95 159.044 296.347 158.511 296.347 157.185V153.217H295.249V152.125H296.347V150.367ZM305.271 157.153H306.585C306.287 158.372 305.17 159.133 303.589 159.133C301.609 159.133 300.396 157.769 300.396 155.566C300.396 153.376 301.634 151.973 303.583 151.973C305.506 151.973 306.668 153.287 306.668 155.445V155.915H301.787V155.979C301.831 157.229 302.536 158.016 303.627 158.016C304.453 158.016 305.018 157.711 305.271 157.153ZM303.577 153.084C302.567 153.084 301.863 153.82 301.787 154.931H305.278C305.246 153.814 304.586 153.084 303.577 153.084ZM310.832 159.114C309.074 159.114 307.963 157.73 307.963 155.547C307.963 153.376 309.086 151.986 310.832 151.986C311.778 151.986 312.578 152.443 312.952 153.198H313.054V149.402H314.418V159H313.111V157.908H313.003C312.59 158.664 311.784 159.114 310.832 159.114ZM311.219 153.154C310.07 153.154 309.372 154.062 309.372 155.553C309.372 157.051 310.064 157.946 311.219 157.946C312.368 157.946 313.079 157.039 313.079 155.553C313.079 154.081 312.362 153.154 311.219 153.154ZM319.865 154.036C319.865 152.836 320.988 151.973 322.55 151.973C324.105 151.973 325.121 152.697 325.254 153.89H323.946C323.819 153.376 323.324 153.04 322.55 153.04C321.788 153.04 321.21 153.414 321.21 153.973C321.21 154.398 321.56 154.665 322.309 154.842L323.458 155.109C324.771 155.414 325.387 155.979 325.387 156.981C325.387 158.264 324.175 159.133 322.524 159.133C320.88 159.133 319.808 158.391 319.687 157.191H321.052C321.223 157.73 321.731 158.067 322.556 158.067C323.407 158.067 324.01 157.673 324.01 157.108C324.01 156.677 323.686 156.397 322.994 156.232L321.788 155.947C320.474 155.642 319.865 155.058 319.865 154.036ZM327.463 150.367H328.828V152.125H330.326V153.217H328.828V156.854C328.828 157.597 329.126 157.921 329.805 157.921C330.015 157.921 330.135 157.908 330.326 157.889V158.975C330.104 159.013 329.85 159.044 329.583 159.044C328.066 159.044 327.463 158.511 327.463 157.185V153.217H326.365V152.125H327.463V150.367ZM334.775 159.133C332.75 159.133 331.513 157.781 331.513 155.553C331.513 153.332 332.757 151.973 334.775 151.973C336.788 151.973 338.032 153.325 338.032 155.553C338.032 157.781 336.794 159.133 334.775 159.133ZM334.775 157.972C335.956 157.972 336.629 157.083 336.629 155.553C336.629 154.017 335.956 153.128 334.775 153.128C333.588 153.128 332.922 154.017 332.922 155.553C332.922 157.089 333.588 157.972 334.775 157.972ZM339.676 159V152.106H340.99V153.154H341.091C341.288 152.475 342.056 151.986 342.958 151.986C343.161 151.986 343.421 152.005 343.567 152.037V153.319C343.453 153.287 343.046 153.243 342.805 153.243C341.771 153.243 341.041 153.909 341.041 154.88V159H339.676ZM349.235 157.153H350.549C350.251 158.372 349.134 159.133 347.553 159.133C345.573 159.133 344.36 157.769 344.36 155.566C344.36 153.376 345.598 151.973 347.547 151.973C349.47 151.973 350.632 153.287 350.632 155.445V155.915H345.75V155.979C345.795 157.229 346.5 158.016 347.591 158.016C348.417 158.016 348.981 157.711 349.235 157.153ZM347.541 153.084C346.531 153.084 345.827 153.82 345.75 154.931H349.242C349.21 153.814 348.55 153.084 347.541 153.084ZM352.111 154.036C352.111 152.836 353.234 151.973 354.796 151.973C356.351 151.973 357.367 152.697 357.5 153.89H356.192C356.065 153.376 355.57 153.04 354.796 153.04C354.034 153.04 353.457 153.414 353.457 153.973C353.457 154.398 353.806 154.665 354.555 154.842L355.704 155.109C357.018 155.414 357.633 155.979 357.633 156.981C357.633 158.264 356.421 159.133 354.771 159.133C353.126 159.133 352.054 158.391 351.933 157.191H353.298C353.469 157.73 353.977 158.067 354.802 158.067C355.653 158.067 356.256 157.673 356.256 157.108C356.256 156.677 355.932 156.397 355.24 156.232L354.034 155.947C352.72 155.642 352.111 155.058 352.111 154.036Z" fill="black" fill-opacity="0.6"/>
<rect y="187" width="366" height="56" rx="28" fill="#FFDD2D"/>
<path d="M96.7173 221.199C93.2974 221.199 91.1475 218.85 91.1475 215.007C91.1475 211.188 93.314 208.823 96.7173 208.823C99.498 208.823 101.615 210.558 101.88 213.131H99.772C99.4897 211.628 98.2695 210.641 96.7173 210.641C94.6587 210.641 93.3389 212.334 93.3389 215.007C93.3389 217.696 94.6504 219.381 96.7256 219.381C98.311 219.381 99.4482 218.526 99.7803 217.082H101.88C101.507 219.647 99.5479 221.199 96.7173 221.199ZM107.193 221.174C104.611 221.174 102.935 219.456 102.935 216.601C102.935 213.762 104.628 212.019 107.193 212.019C109.758 212.019 111.451 213.753 111.451 216.601C111.451 219.456 109.774 221.174 107.193 221.174ZM107.193 219.539C108.504 219.539 109.351 218.477 109.351 216.601C109.351 214.733 108.504 213.662 107.193 213.662C105.89 213.662 105.035 214.733 105.035 216.601C105.035 218.477 105.881 219.539 107.193 219.539ZM112.779 221V212.201H114.763V213.712H114.805C115.278 212.666 116.216 212.035 117.569 212.035C119.511 212.035 120.615 213.28 120.615 215.314V221H118.548V215.729C118.548 214.484 117.967 213.787 116.789 213.787C115.602 213.787 114.846 214.642 114.846 215.903V221H112.779ZM122.848 221V213.795H121.645V212.226H122.848V211.446C122.848 209.736 123.662 208.931 125.571 208.931C125.978 208.931 126.426 208.972 126.683 209.022V210.466C126.509 210.441 126.268 210.417 126.027 210.417C125.239 210.417 124.882 210.79 124.882 211.504V212.226H126.642V213.795H124.915V221H122.848ZM129.082 210.873C128.451 210.873 127.945 210.367 127.945 209.752C127.945 209.13 128.451 208.632 129.082 208.632C129.713 208.632 130.211 209.13 130.211 209.752C130.211 210.367 129.713 210.873 129.082 210.873ZM128.053 221V212.201H130.12V221H128.053ZM131.854 221V212.201H133.838V213.737H133.88C134.179 212.666 134.951 212.052 135.988 212.052C136.254 212.052 136.486 212.102 136.636 212.135V214.002C136.461 213.936 136.146 213.886 135.797 213.886C134.627 213.886 133.921 214.642 133.921 215.878V221H131.854ZM137.698 221V212.201H139.682V213.729H139.724C140.105 212.708 141.035 212.035 142.23 212.035C143.476 212.035 144.364 212.674 144.688 213.803H144.737C145.161 212.716 146.207 212.035 147.477 212.035C149.211 212.035 150.349 213.206 150.349 214.965V221H148.282V215.472C148.282 214.393 147.717 213.778 146.705 213.778C145.708 213.778 145.028 214.509 145.028 215.563V221H143.019V215.364C143.019 214.384 142.421 213.778 141.458 213.778C140.462 213.778 139.765 214.55 139.765 215.613V221H137.698ZM155.985 210.143H158.052V212.201H159.712V213.795H158.052V218.369C158.052 219.091 158.384 219.423 159.114 219.423C159.305 219.423 159.571 219.406 159.704 219.381V220.958C159.479 221.008 159.073 221.042 158.633 221.042C156.732 221.042 155.985 220.369 155.985 218.659V213.795H154.723V212.201H155.985V210.143ZM164.85 221.174C162.269 221.174 160.592 219.456 160.592 216.601C160.592 213.762 162.285 212.019 164.85 212.019C167.415 212.019 169.108 213.753 169.108 216.601C169.108 219.456 167.432 221.174 164.85 221.174ZM164.85 219.539C166.162 219.539 167.008 218.477 167.008 216.601C167.008 214.733 166.162 213.662 164.85 213.662C163.547 213.662 162.692 214.733 162.692 216.601C162.692 218.477 163.539 219.539 164.85 219.539ZM178.671 212.052C180.904 212.052 182.323 213.787 182.323 216.601C182.323 219.406 180.912 221.141 178.704 221.141C177.426 221.141 176.43 220.527 175.948 219.539H175.907V223.897H173.84V212.201H175.857V213.72H175.898C176.396 212.699 177.393 212.052 178.671 212.052ZM178.04 219.448C179.376 219.448 180.207 218.344 180.207 216.601C180.207 214.866 179.376 213.753 178.04 213.753C176.753 213.753 175.898 214.891 175.89 216.601C175.898 218.327 176.753 219.448 178.04 219.448ZM186.241 221.141C184.54 221.141 183.303 220.07 183.303 218.485C183.303 216.924 184.506 215.986 186.648 215.854L188.972 215.721V215.09C188.972 214.168 188.35 213.637 187.329 213.637C186.349 213.637 185.727 214.11 185.594 214.841H183.676C183.768 213.197 185.17 212.019 187.412 212.019C189.595 212.019 191.014 213.172 191.014 214.94V221H189.022V219.597H188.98C188.474 220.552 187.37 221.141 186.241 221.141ZM186.864 219.581C188.034 219.581 188.972 218.8 188.972 217.738V217.065L186.938 217.19C185.942 217.256 185.37 217.705 185.37 218.402C185.37 219.124 185.967 219.581 186.864 219.581ZM193.637 224.271C193.513 224.271 192.932 224.262 192.824 224.237V222.602C192.932 222.627 193.297 222.635 193.421 222.635C194.276 222.635 194.716 222.312 194.94 221.498C194.94 221.473 195.073 221.033 195.065 221.008L191.936 212.201H194.193L196.26 219.24H196.302L198.377 212.201H200.552L197.364 221.349C196.617 223.532 195.646 224.271 193.637 224.271ZM209.002 222.187V220.826C206.786 220.693 205.092 219.481 205.034 217.456H206.968C207.118 218.377 207.732 219.041 209.002 219.166V215.804L208.545 215.696C206.412 215.206 205.25 214.243 205.25 212.508C205.25 210.591 206.819 209.337 209.002 209.196V207.818H209.898V209.196C212.082 209.354 213.592 210.624 213.667 212.55H211.733C211.617 211.562 210.919 210.989 209.898 210.865V214.094L210.405 214.21C212.621 214.725 213.808 215.621 213.808 217.414C213.808 219.481 212.123 220.676 209.898 220.826V222.187H209.002ZM207.25 212.342C207.25 213.064 207.749 213.562 209.002 213.886V210.856C207.856 210.989 207.25 211.612 207.25 212.342ZM211.816 217.622C211.816 216.816 211.351 216.368 209.898 216.011V219.166C211.218 219.066 211.816 218.452 211.816 217.622ZM221.852 215.629V214.036H223.221C224.541 214.036 225.421 213.28 225.421 212.218C225.421 211.164 224.724 210.483 223.404 210.483C222.142 210.483 221.237 211.155 221.163 212.284H219.17C219.312 210.143 220.997 208.781 223.404 208.781C225.886 208.781 227.479 210.076 227.479 211.927C227.479 213.438 226.409 214.434 224.964 214.733V214.774C226.732 214.94 227.903 216.003 227.903 217.671C227.903 219.796 226.043 221.241 223.42 221.241C220.797 221.241 219.021 219.805 218.913 217.688H220.963C221.046 218.775 222.001 219.489 223.42 219.489C224.79 219.489 225.728 218.717 225.728 217.622C225.736 216.343 224.807 215.629 223.271 215.629H221.852ZM233.796 221.241C231.555 221.241 229.82 219.954 229.488 218.062H231.613C231.912 219.008 232.717 219.506 233.813 219.506C235.697 219.506 236.61 217.738 236.61 214.949H236.577C236.112 216.111 234.884 216.891 233.332 216.891C231.09 216.891 229.355 215.281 229.355 212.965C229.355 210.524 231.24 208.773 233.83 208.773C236.287 208.773 238.669 210.433 238.669 214.874C238.669 218.867 236.843 221.241 233.796 221.241ZM233.83 215.231C235.216 215.231 236.253 214.26 236.253 212.923C236.253 211.579 235.208 210.533 233.854 210.533C232.518 210.533 231.456 211.57 231.456 212.882C231.456 214.251 232.468 215.231 233.83 215.231ZM244.471 221.241C242.23 221.241 240.495 219.954 240.163 218.062H242.288C242.587 219.008 243.392 219.506 244.488 219.506C246.372 219.506 247.285 217.738 247.285 214.949H247.252C246.787 216.111 245.559 216.891 244.006 216.891C241.765 216.891 240.03 215.281 240.03 212.965C240.03 210.524 241.915 208.773 244.504 208.773C246.961 208.773 249.344 210.433 249.344 214.874C249.344 218.867 247.518 221.241 244.471 221.241ZM244.504 215.231C245.891 215.231 246.928 214.26 246.928 212.923C246.928 211.579 245.882 210.533 244.529 210.533C243.193 210.533 242.13 211.57 242.13 212.882C242.13 214.251 243.143 215.231 244.504 215.231ZM251.967 221.091C251.294 221.091 250.771 220.568 250.771 219.896C250.771 219.232 251.294 218.701 251.967 218.701C252.631 218.701 253.154 219.232 253.154 219.896C253.154 220.568 252.631 221.091 251.967 221.091ZM259.363 221.241C257.122 221.241 255.387 219.954 255.055 218.062H257.18C257.479 219.008 258.284 219.506 259.379 219.506C261.264 219.506 262.177 217.738 262.177 214.949H262.144C261.679 216.111 260.45 216.891 258.898 216.891C256.657 216.891 254.922 215.281 254.922 212.965C254.922 210.524 256.806 208.773 259.396 208.773C261.853 208.773 264.235 210.433 264.235 214.874C264.235 218.867 262.409 221.241 259.363 221.241ZM259.396 215.231C260.782 215.231 261.82 214.26 261.82 212.923C261.82 211.579 260.774 210.533 259.421 210.533C258.084 210.533 257.022 211.57 257.022 212.882C257.022 214.251 258.035 215.231 259.396 215.231ZM270.212 221.241C267.747 221.241 265.954 219.755 265.862 217.63H267.871C268.004 218.75 268.967 219.506 270.229 219.506C271.656 219.506 272.644 218.518 272.644 217.107C272.644 215.704 271.648 214.716 270.237 214.716C269.208 214.716 268.402 215.173 267.946 215.986H266.078L266.651 209.022H274.005V210.773H268.361L268.029 214.384H268.07C268.593 213.579 269.581 213.106 270.785 213.106C273.067 213.106 274.711 214.766 274.711 217.049C274.711 219.531 272.868 221.241 270.212 221.241Z" fill="black"/>
</svg>
