<svg width="152" height="44" viewBox="0 0 152 44" fill="none" xmlns="http://www.w3.org/2000/svg">
<g clip-path="url(#clip0_1_423)">
<path d="M52.3103 24.1618C51.0221 23.4536 50.344 22.8802 50.344 22.0708C50.344 21.0253 51.2594 20.3845 52.7172 20.3845C54.4123 20.3845 55.9039 21.0928 55.9039 21.0928L57.0905 17.4841C57.0905 17.4841 56.0056 16.641 52.785 16.641C48.3099 16.641 45.1909 19.2041 45.1909 22.779C45.1909 24.8026 46.6487 26.3539 48.5811 27.4669C50.1406 28.3438 50.683 28.9845 50.683 29.8951C50.683 30.8732 49.9033 31.6488 48.4455 31.6488C46.2758 31.6488 44.2417 30.5359 44.2417 30.5359L42.9873 34.1445C42.9873 34.1445 44.8858 35.3924 48.0387 35.3924C52.6494 35.3924 55.9378 33.1328 55.9378 29.0857C56.0056 26.8598 54.3105 25.3085 52.3103 24.1618ZM70.6852 16.5736C68.4137 16.5736 66.6508 17.6528 65.2609 19.2716L65.1931 19.2379L67.1594 8.98535H62.0402L57.0566 35.0551H62.1758L63.8709 26.1516C64.5489 22.779 66.2779 20.7218 67.9052 20.7218C69.0579 20.7218 69.4986 21.4975 69.4986 22.6104C69.4986 23.3187 69.4308 24.1618 69.2613 24.87L67.3289 35.0888H72.4481L74.4483 24.5665C74.6856 23.4536 74.8212 22.1383 74.8212 21.2277C74.8551 18.2936 73.3295 16.5736 70.6852 16.5736ZM86.4496 16.5736C80.2794 16.5736 76.1773 22.1045 76.1773 28.2763C76.1773 32.2222 78.6182 35.4261 83.2289 35.4261C89.2973 35.4261 93.3656 30.03 93.3656 23.7234C93.3995 20.0473 91.2636 16.5736 86.4496 16.5736ZM83.9408 31.4802C82.1779 31.4802 81.466 29.9963 81.466 28.1414C81.466 25.2073 82.9916 20.452 85.7715 20.452C87.6022 20.452 88.1786 22.0034 88.1786 23.521C88.1786 26.6912 86.653 31.4802 83.9408 31.4802ZM106.52 16.5736C103.062 16.5736 101.095 19.6088 101.095 19.6088H101.027L101.333 16.8771H96.7897C96.5523 18.732 96.1455 21.5312 95.7387 23.6559L92.179 42.3398H97.2982L98.7221 34.7853H98.8238C98.8238 34.7853 99.8747 35.4598 101.841 35.4598C107.876 35.4598 111.808 29.3218 111.808 23.1163C111.808 19.6426 110.283 16.5736 106.52 16.5736ZM101.638 31.5814C100.315 31.5814 99.5357 30.8394 99.5357 30.8394L100.383 26.0841C100.994 22.9139 102.655 20.7892 104.418 20.7892C105.977 20.7892 106.452 22.2394 106.452 23.5885C106.452 26.8598 104.485 31.5814 101.638 31.5814ZM119.131 9.22143C117.504 9.22143 116.182 10.503 116.182 12.1892C116.182 13.7069 117.131 14.7524 118.589 14.7524H118.656C120.25 14.7524 121.64 13.6732 121.674 11.7845C121.708 10.3006 120.691 9.22143 119.131 9.22143Z" fill="#010202"/>
<path d="M111.943 35.0552H117.096L120.588 16.9783H115.401L111.943 35.0552Z" fill="#010202"/>
<path d="M133.607 16.9109H130.047L130.217 16.0678C130.522 14.3141 131.539 12.7627 133.268 12.7627C134.184 12.7627 134.895 13.0325 134.895 13.0325L135.913 9.05293C135.913 9.05293 135.031 8.6145 133.133 8.6145C131.302 8.6145 129.505 9.12038 128.115 10.3007C126.352 11.7847 125.539 13.9094 125.132 16.0678L124.996 16.9109H122.623L121.877 20.7556H124.25L121.538 35.0215H126.657L129.369 20.7556H132.895L133.607 16.9109ZM145.947 16.9784C145.947 16.9784 142.727 25.0051 141.303 29.3894H141.235C141.133 27.9729 139.981 16.9784 139.981 16.9784H134.59L137.675 33.5713C137.743 33.9423 137.709 34.1784 137.574 34.4145C136.963 35.5611 135.98 36.6741 134.794 37.4835C133.844 38.1917 132.76 38.6302 131.912 38.9337L133.336 43.2505C134.387 43.0145 136.523 42.1713 138.353 40.4851C140.693 38.2929 142.862 34.9541 145.066 30.3674L151.338 16.9784H145.947Z" fill="#010202"/>
<path d="M24.4094 42.1715L37.0887 39.4397C37.0887 39.4397 32.5119 8.64838 32.478 8.44602C32.4441 8.24367 32.2746 8.10877 32.1051 8.10877C31.9356 8.10877 28.7149 7.87269 28.7149 7.87269C28.7149 7.87269 26.4774 5.64681 26.2062 5.41073C26.1384 5.34328 26.0706 5.30956 26.0028 5.27583L24.4094 42.1715ZM25.4604 5.20838C25.4264 5.20838 25.3586 5.2421 25.3247 5.2421C25.2908 5.2421 24.8162 5.37701 24.0704 5.61309C23.3245 3.45465 22.0023 1.46485 19.6631 1.46485C19.5953 1.46485 19.5275 1.46485 19.4597 1.46485C18.7817 0.621714 17.968 0.250732 17.2561 0.250732C11.7979 0.250732 9.18742 7.02955 8.37377 10.4695C6.27186 11.1103 4.74627 11.5825 4.57676 11.6499C3.39019 12.0209 3.35629 12.0546 3.22068 13.1676C3.08508 13.977 0 37.7534 0 37.7534L23.8331 42.2052L25.4604 5.20838ZM19.2563 6.86093C19.2563 6.92838 19.2563 7.02955 19.2563 7.09701C17.9341 7.50171 16.4763 7.94014 15.0525 8.37857C15.8661 5.27583 17.3917 3.75818 18.7139 3.18485C19.0529 4.06171 19.2563 5.2421 19.2563 6.86093ZM17.0866 1.70093C17.3239 1.70093 17.5612 1.76838 17.7985 1.937C16.0695 2.74642 14.171 4.80368 13.3913 8.91818C12.2386 9.28916 11.1198 9.62642 10.0689 9.92995C10.9842 6.79348 13.1878 1.70093 17.0866 1.70093ZM18.0358 20.0138C18.0358 20.0138 16.6119 19.2719 14.9168 19.2719C12.3742 19.2719 12.2725 20.857 12.2725 21.2617C12.2725 23.4201 17.968 24.2632 17.968 29.3558C17.968 33.3691 15.4254 35.9323 11.9674 35.9323C7.83135 35.9323 5.72943 33.3691 5.72943 33.3691L6.84819 29.7268C6.84819 29.7268 9.01791 31.5817 10.8486 31.5817C12.0352 31.5817 12.5437 30.6374 12.5437 29.9629C12.5437 27.1299 7.86525 26.995 7.86525 22.3409C7.86525 18.4287 10.6791 14.6178 16.4085 14.6178C18.6122 14.6178 19.697 15.2585 19.697 15.2585L18.0358 20.0138ZM20.2055 2.94877C21.426 3.08367 22.2058 4.46642 22.7143 6.01779C22.1041 6.22014 21.426 6.42249 20.6802 6.65857C20.6802 6.52367 20.6802 6.38877 20.6802 6.22015C20.6802 4.90485 20.5107 3.82563 20.2055 2.94877Z" fill="#010202"/>
</g>
<defs>
<clipPath id="clip0_1_423">
<rect width="152" height="43" fill="white" transform="translate(0 0.250732)"/>
</clipPath>
</defs>
</svg>
