<svg width="178" height="35" viewBox="0 0 178 35" fill="none" xmlns="http://www.w3.org/2000/svg">
<mask id="mask0_1_385" style="mask-type:alpha" maskUnits="userSpaceOnUse" x="0" y="0" width="177" height="35">
<path d="M18.5171 24.8704C16.3134 26.953 13.7283 27.9943 10.7617 27.9943C7.79519 27.9943 5.34331 27.0801 3.40596 25.2518C1.46865 23.4234 0.5 20.9715 0.5 17.896C0.5 14.8205 1.48681 12.3747 3.46044 10.5584C5.4341 8.74218 7.76494 7.83407 10.453 7.83407C13.141 7.83407 15.4234 8.64531 17.3002 10.2678C19.177 11.8903 20.1154 14.1182 20.1154 16.9516V19.8576H5.87604C6.04559 20.9231 6.60255 21.7949 7.54698 22.4729C8.49145 23.151 9.55696 23.49 10.7436 23.49C12.6567 23.49 14.2308 22.8483 15.4658 21.5648L18.5171 24.8704ZM14.594 15.9708C14.4729 14.8084 14.037 13.9124 13.2863 13.2828C12.5356 12.6531 11.6214 12.3383 10.5438 12.3383C9.46617 12.3383 8.47935 12.6652 7.58334 13.3191C6.68733 13.9729 6.16664 14.8568 6.02136 15.9708H14.594ZM37.9933 21.6374C37.9933 23.5506 37.2849 25.0883 35.8682 26.2507C34.4515 27.4131 32.6535 27.9943 30.474 27.9943C29.021 27.9943 27.5075 27.734 25.9334 27.2133C24.3593 26.6926 22.9427 25.9238 21.6834 24.9067L24.0809 21.4922C26.115 23.0662 28.2824 23.8533 30.583 23.8533C31.2852 23.8533 31.8423 23.714 32.2539 23.4355C32.6656 23.157 32.8714 22.7877 32.8714 22.3276C32.8714 21.8675 32.5869 21.4437 32.0178 21.0563C31.4487 20.6688 30.6253 20.3056 29.5477 19.9665C28.4701 19.6275 27.6467 19.3369 27.0777 19.0947C26.5086 18.8525 25.8607 18.5014 25.1343 18.0413C23.657 17.1211 22.9184 15.7589 22.9184 13.9548C22.9184 12.1506 23.6449 10.6795 25.0979 9.54133C26.5509 8.40313 28.4277 7.83407 30.7283 7.83407C33.0289 7.83407 35.3294 8.60899 37.63 10.1588L35.5958 13.7913C33.9006 12.6289 32.2116 12.0477 30.5285 12.0477C28.8455 12.0477 28.0039 12.5078 28.0039 13.428C28.0039 13.9366 28.2703 14.3361 28.8031 14.6268C29.3358 14.9174 30.2197 15.2564 31.4548 15.6438C32.6898 16.0313 33.5677 16.328 34.0883 16.5338C34.609 16.7397 35.2325 17.0605 35.959 17.4964C37.3152 18.3198 37.9933 19.7001 37.9933 21.6374ZM46.8626 17.1695V27.7037H41.4138V0.750732H46.8626V10.3405C48.5093 8.66954 50.3558 7.83407 52.4021 7.83407C54.4484 7.83407 56.1738 8.56054 57.5784 10.0136C58.9829 11.4665 59.6852 13.4038 59.6852 15.8255V27.7037H54.2365V17.0242C54.2365 14.0213 53.1347 12.5199 50.9309 12.5199C49.8412 12.5199 48.8907 12.9135 48.0794 13.7005C47.2682 14.4875 46.8626 15.6438 46.8626 17.1695ZM68.2276 17.9323C68.2276 19.5306 68.6816 20.8322 69.5898 21.8372C70.4979 22.8422 71.6603 23.3447 73.0769 23.3447C74.4936 23.3447 75.656 22.8422 76.5641 21.8372C77.4723 20.8322 77.9263 19.5306 77.9263 17.9323C77.9263 16.334 77.4723 15.0263 76.5641 14.0092C75.656 12.9921 74.4936 12.4836 73.0769 12.4836C71.6603 12.4836 70.4979 12.9921 69.5898 14.0092C68.6816 15.0263 68.2276 16.334 68.2276 17.9323ZM83.4113 17.9323C83.4113 20.7657 82.4306 23.151 80.4691 25.0883C78.5075 27.0257 76.0435 27.9943 73.0769 27.9943C70.1104 27.9943 67.6464 27.0257 65.6848 25.0883C63.7233 23.151 62.7426 20.7657 62.7426 17.9323C62.7426 15.099 63.7233 12.7076 65.6848 10.7582C67.6464 8.80875 70.1104 7.83407 73.0769 7.83407C76.0435 7.83407 78.5075 8.80875 80.4691 10.7582C82.4306 12.7076 83.4113 15.099 83.4113 17.9323ZM98.0563 7.83407C100.333 7.83407 102.361 8.78456 104.141 10.6856C105.921 12.5865 106.811 14.9779 106.811 17.8597C106.811 20.7415 105.921 23.151 104.141 25.0883C102.361 27.0257 100.278 27.9943 97.8929 27.9943C95.5075 27.9943 93.5884 27.0378 92.1354 25.1246V34.7507H86.6867V8.16099H92.1354V10.3405C93.8063 8.66954 95.7799 7.83407 98.0563 7.83407ZM92.0627 17.9687C92.0627 19.5427 92.5047 20.8322 93.3886 21.8372C94.2725 22.8422 95.3441 23.3447 96.6033 23.3447C97.8626 23.3447 98.9644 22.8422 99.9089 21.8372C100.853 20.8322 101.326 19.5427 101.326 17.9687C101.326 16.3946 100.865 15.0748 99.9452 14.0092C99.025 12.9437 97.9231 12.4109 96.6396 12.4109C95.3562 12.4109 94.2725 12.9376 93.3886 13.9911C92.5047 15.0445 92.0627 16.3704 92.0627 17.9687ZM113.537 13.1011C114.166 11.6481 115.068 10.5403 116.243 9.77744C117.417 9.01461 118.828 8.62108 120.475 8.59686V10.8853C118.465 10.8611 116.848 11.4483 115.625 12.6471C114.402 13.8458 113.706 15.4743 113.537 17.5327V27.7037H111.103V8.66954H113.537V13.1011ZM131.051 8.59686C134.006 8.59686 136.258 9.53526 137.808 11.412C139.358 13.2888 140.072 15.8134 139.951 18.9858H124.077C124.247 21.0199 124.997 22.6606 126.329 23.9078C127.661 25.1549 129.308 25.7785 131.269 25.7785C132.48 25.7785 133.606 25.5606 134.648 25.1246C135.689 24.6887 136.585 24.0712 137.336 23.2721L138.716 24.6524C137.796 25.6453 136.688 26.4142 135.392 26.9591C134.097 27.5039 132.674 27.7764 131.124 27.7764C129.284 27.7764 127.649 27.3707 126.22 26.5595C124.791 25.7482 123.671 24.6161 122.86 23.1631C122.049 21.7101 121.643 20.0513 121.643 18.1866C121.643 16.3461 122.049 14.6934 122.86 13.2282C123.671 11.7632 124.791 10.625 126.22 9.81376C127.649 9.00252 129.259 8.59686 131.051 8.59686ZM137.771 17.0969C137.65 15.1111 136.99 13.531 135.792 12.3565C134.593 11.1819 133.025 10.5948 131.088 10.5948C129.175 10.5948 127.576 11.188 126.293 12.3746C125.009 13.5612 124.271 15.1353 124.077 17.0969H137.771ZM154.233 8.59686C156.509 8.59686 158.295 9.25675 159.591 10.5766C160.886 11.8964 161.534 13.7065 161.534 16.0071V27.7037H159.064V16.5883C159.064 14.7963 158.567 13.3917 157.575 12.3746C156.582 11.3575 155.201 10.849 153.433 10.849C151.472 10.8732 149.904 11.4786 148.729 12.6652C147.555 13.8519 146.883 15.4501 146.713 17.4601V27.7037H144.28V8.66954H146.713V13.1011C147.367 11.6239 148.33 10.51 149.601 9.75928C150.873 9.00855 152.416 8.62108 154.233 8.59686ZM176.869 26.396C175.561 27.292 174.157 27.7642 172.655 27.8127C171.203 27.8127 170.052 27.3647 169.205 26.4687C168.357 25.5726 167.933 24.2286 167.933 22.4366V11.1033H165.209L165.172 9.21441H167.933V4.31056H170.367V9.21441L176.542 9.17809V11.1033H170.367V22.037C170.367 24.386 171.239 25.5606 172.982 25.5606C173.951 25.5606 175.004 25.2215 176.143 24.5434L176.869 26.396Z" fill="white"/>
</mask>
<g mask="url(#mask0_1_385)">
<path fill-rule="evenodd" clip-rule="evenodd" d="M-1.60645 36.8574H178.976V-1.35596H-1.60645V36.8574Z" fill="black"/>
</g>
</svg>
