<svg width="196" height="44" viewBox="0 0 196 44" fill="none" xmlns="http://www.w3.org/2000/svg">
<rect width="194.964" height="43.7021" transform="translate(0.634399 0.148926)" fill="#FFDD2D"/>
<path d="M16.0545 25.3178V22.2192H24.707C25.7399 22.2192 26.5584 21.9464 27.1625 21.4007C27.7666 20.8356 28.0687 20.0561 28.0687 19.0622C28.0687 18.0294 27.7666 17.2401 27.1625 16.6945C26.5584 16.1488 25.7399 15.876 24.707 15.876H16.5222V31.4564H12.6344V12.5436H24.3563C25.4086 12.5436 26.3927 12.6702 27.3086 12.9236C28.2441 13.1769 29.0528 13.5667 29.7348 14.0929C30.4364 14.619 30.9821 15.2913 31.3718 16.1098C31.7616 16.9283 31.9565 17.9124 31.9565 19.0622C31.9565 20.1925 31.7616 21.1572 31.3718 21.9562C30.9821 22.7551 30.4364 23.408 29.7348 23.9146C29.0528 24.4018 28.2441 24.7624 27.3086 24.9962C26.3927 25.2106 25.4086 25.3178 24.3563 25.3178H16.0545Z" fill="black"/>
<path d="M38.6627 27.3347V24.0901H51.1738V27.3347H38.6627ZM33.9565 31.4564L42.8428 12.5436H47.0522L56.0262 31.4564H51.7876L44.0121 14.4144H45.8829L38.1658 31.4564H33.9565Z" fill="black"/>
<path d="M78.5466 12.5436L70.2449 25.4932V31.4564H66.328V25.4932L58.0262 12.5436H62.528L69.5142 23.8562H67.1755L74.0452 12.5436H78.5466Z" fill="black"/>
<path d="M80.5563 25.0693H84.5025C84.5804 25.7319 84.8825 26.336 85.4087 26.8816C85.9542 27.4078 86.6656 27.8268 87.5425 28.1386C88.4194 28.4309 89.4036 28.5771 90.4949 28.5771C91.4887 28.5771 92.3073 28.4699 92.9505 28.2555C93.5936 28.0411 94.0708 27.7391 94.3825 27.3493C94.6946 26.9596 94.8504 26.4919 94.8504 25.9462C94.8504 25.4201 94.6556 25.0205 94.2656 24.7477C93.876 24.4554 93.2622 24.2215 92.4242 24.0462C91.5863 23.8513 90.4853 23.6564 89.1211 23.4615C88.0491 23.3056 87.036 23.0913 86.0808 22.8184C85.126 22.5261 84.2784 22.1559 83.5377 21.7076C82.8167 21.2594 82.2418 20.7138 81.8132 20.0707C81.4039 19.4081 81.1994 18.6286 81.1994 17.7322C81.1994 16.6213 81.5111 15.647 82.1346 14.809C82.7777 13.971 83.7229 13.3182 84.9701 12.8505C86.2173 12.3828 87.747 12.1489 89.5594 12.1489C92.2877 12.1489 94.3825 12.7336 95.8442 13.9028C97.3253 15.0526 98.0463 16.6409 98.0073 18.6675H94.2073C94.1294 17.5178 93.6422 16.6895 92.7456 16.1829C91.8687 15.6762 90.758 15.4229 89.4132 15.4229C88.166 15.4229 87.1332 15.608 86.3149 15.9783C85.5156 16.3485 85.1163 16.9819 85.1163 17.8783C85.1163 18.2291 85.2136 18.5409 85.4087 18.8137C85.6036 19.0671 85.9346 19.2912 86.4025 19.4861C86.8701 19.6809 87.5036 19.8661 88.3025 20.0414C89.1015 20.2168 90.0953 20.3922 91.2842 20.5676C92.3949 20.7235 93.3984 20.9379 94.2949 21.2107C95.2108 21.4641 95.9905 21.8051 96.6336 22.2338C97.296 22.6431 97.8029 23.1692 98.1536 23.8123C98.5042 24.4554 98.6798 25.2446 98.6798 26.1801C98.6798 27.3299 98.3777 28.3335 97.7736 29.1909C97.1891 30.0289 96.2729 30.6817 95.0256 31.1494C93.798 31.6171 92.2001 31.851 90.2318 31.851C88.8287 31.851 87.5911 31.7048 86.5194 31.4125C85.4477 31.1007 84.5218 30.6915 83.7425 30.1848C82.9629 29.6781 82.3294 29.1227 81.8422 28.5186C81.3553 27.9145 81.0042 27.3104 80.7901 26.7062C80.5953 26.1021 80.5173 25.5565 80.5563 25.0693Z" fill="black"/>
<path d="M104.567 23.5639V28.2117H119.154V31.4564H100.68V12.5436H119.125V15.7883H104.567V20.4946H116.494V23.5639H104.567Z" fill="black"/>
<path d="M140.33 27.5978L139.102 28.0948V12.5436H142.99V31.4564H139.102L123.814 16.5191L125.042 16.0221V31.4564H121.154V12.5436H125.042L140.33 27.5978Z" fill="black"/>
<path d="M145 25.0693H148.946C149.024 25.7319 149.326 26.336 149.852 26.8816C150.398 27.4078 151.11 27.8268 151.986 28.1386C152.863 28.4309 153.847 28.5771 154.939 28.5771C155.933 28.5771 156.751 28.4699 157.394 28.2555C158.037 28.0411 158.515 27.7391 158.826 27.3493C159.138 26.9596 159.294 26.4919 159.294 25.9462C159.294 25.4201 159.099 25.0205 158.71 24.7477C158.32 24.4554 157.706 24.2215 156.868 24.0462C156.03 23.8513 154.929 23.6564 153.565 23.4615C152.493 23.3056 151.48 23.0913 150.525 22.8184C149.57 22.5261 148.722 22.1559 147.982 21.7076C147.261 21.2594 146.686 20.7138 146.257 20.0707C145.848 19.4081 145.643 18.6286 145.643 17.7322C145.643 16.6213 145.955 15.647 146.578 14.809C147.222 13.971 148.167 13.3182 149.414 12.8505C150.661 12.3828 152.191 12.1489 154.003 12.1489C156.732 12.1489 158.826 12.7336 160.288 13.9028C161.769 15.0526 162.49 16.6409 162.451 18.6675H158.651C158.573 17.5178 158.086 16.6895 157.19 16.1829C156.313 15.6762 155.202 15.4229 153.857 15.4229C152.61 15.4229 151.577 15.608 150.758 15.9783C149.96 16.3485 149.56 16.9819 149.56 17.8783C149.56 18.2291 149.657 18.5409 149.852 18.8137C150.047 19.0671 150.378 19.2912 150.846 19.4861C151.314 19.6809 151.947 19.8661 152.746 20.0414C153.545 20.2168 154.539 20.3922 155.728 20.5676C156.839 20.7235 157.842 20.9379 158.739 21.2107C159.655 21.4641 160.434 21.8051 161.077 22.2338C161.74 22.6431 162.246 23.1692 162.597 23.8123C162.948 24.4554 163.124 25.2446 163.124 26.1801C163.124 27.3299 162.822 28.3335 162.217 29.1909C161.633 30.0289 160.717 30.6817 159.47 31.1494C158.242 31.6171 156.644 31.851 154.676 31.851C153.273 31.851 152.035 31.7048 150.963 31.4125C149.891 31.1007 148.966 30.6915 148.186 30.1848C147.407 29.6781 146.773 29.1227 146.286 28.5186C145.799 27.9145 145.448 27.3104 145.234 26.7062C145.039 26.1021 144.961 25.5565 145 25.0693Z" fill="black"/>
<path d="M169.012 23.5639V28.2117H183.598V31.4564H165.124V12.5436H183.569V15.7883H169.012V20.4946H180.938V23.5639H169.012Z" fill="black"/>
</svg>
